<svg xmlns="http://www.w3.org/2000/svg" xmlns:xlink="http://www.w3.org/1999/xlink" width="1000" zoomAndPan="magnify" viewBox="0 0 750 225" height="300" preserveAspectRatio="xMidYMid meet" version="1.0"><defs><g/><clipPath id="dc6fe18bd5"><path d="M 0.238281 34 L 54 34 L 54 131 L 0.238281 131 Z M 0.238281 34 " clip-rule="nonzero"/></clipPath><clipPath id="719b2fa2e0"><rect x="0" width="58" y="0" height="144"/></clipPath></defs><g fill="#004aad" fill-opacity="1"><g transform="translate(78.21573, 148.875004)"><g><path d="M 33 -11.484375 C 34.65625 -11.484375 36.304688 -11.753906 37.953125 -12.296875 C 39.609375 -12.835938 41.128906 -13.632812 42.515625 -14.6875 C 43.910156 -15.75 45.0625 -17.050781 45.96875 -18.59375 L 56.671875 -10.46875 C 54.335938 -7.363281 51.859375 -4.96875 49.234375 -3.28125 C 46.609375 -1.601562 43.910156 -0.453125 41.140625 0.171875 C 38.367188 0.796875 35.570312 1.109375 32.75 1.109375 C 28.488281 1.109375 24.550781 0.515625 20.9375 -0.671875 C 17.320312 -1.859375 14.175781 -3.648438 11.5 -6.046875 C 8.832031 -8.453125 6.757812 -11.472656 5.28125 -15.109375 C 3.8125 -18.742188 3.078125 -23.007812 3.078125 -27.90625 C 3.078125 -32.476562 3.734375 -36.597656 5.046875 -40.265625 C 6.359375 -43.929688 8.226562 -47.0625 10.65625 -49.65625 C 13.09375 -52.25 16 -54.234375 19.375 -55.609375 C 22.757812 -56.992188 26.515625 -57.6875 30.640625 -57.6875 C 34.484375 -57.6875 38.003906 -57.0625 41.203125 -55.8125 C 44.410156 -54.5625 47.1875 -52.75 49.53125 -50.375 C 51.882812 -48.007812 53.703125 -45.132812 54.984375 -41.75 C 56.265625 -38.375 56.90625 -34.539062 56.90625 -30.25 C 56.90625 -29.675781 56.894531 -29.140625 56.875 -28.640625 C 56.863281 -28.148438 56.816406 -27.582031 56.734375 -26.9375 C 56.660156 -26.300781 56.546875 -25.472656 56.390625 -24.453125 L 19.40625 -24.453125 C 19.46875 -21.859375 20.085938 -19.59375 21.265625 -17.65625 C 22.453125 -15.71875 24.0625 -14.203125 26.09375 -13.109375 C 28.132812 -12.023438 30.4375 -11.484375 33 -11.484375 Z M 30.40625 -45.671875 C 28.0625 -45.671875 26.144531 -45.238281 24.65625 -44.375 C 23.164062 -43.507812 22.03125 -42.375 21.25 -40.96875 C 20.46875 -39.5625 19.945312 -38.007812 19.6875 -36.3125 L 41.015625 -36.3125 C 40.660156 -39.15625 39.609375 -41.425781 37.859375 -43.125 C 36.117188 -44.820312 33.632812 -45.671875 30.40625 -45.671875 Z M 30.40625 -45.671875 "/></g></g></g><g fill="#004aad" fill-opacity="1"><g transform="translate(131.691017, 148.875004)"><g><path d="M 29.578125 -57.6875 C 34.222656 -57.6875 38.257812 -56.960938 41.6875 -55.515625 C 45.113281 -54.078125 47.765625 -51.910156 49.640625 -49.015625 C 51.515625 -46.117188 52.453125 -42.507812 52.453125 -38.1875 L 52.453125 0 L 38.1875 0 L 38.1875 -5.859375 C 34.789062 -3.140625 31.617188 -1.28125 28.671875 -0.28125 C 25.722656 0.707031 22.921875 1.203125 20.265625 1.203125 C 16.710938 1.203125 13.625 0.578125 11 -0.671875 C 8.375 -1.921875 6.335938 -3.726562 4.890625 -6.09375 C 3.453125 -8.46875 2.734375 -11.316406 2.734375 -14.640625 C 2.734375 -17.398438 3.226562 -19.8125 4.21875 -21.875 C 5.21875 -23.9375 6.613281 -25.734375 8.40625 -27.265625 C 10.195312 -28.804688 12.304688 -30.140625 14.734375 -31.265625 C 17.171875 -32.390625 19.816406 -33.347656 22.671875 -34.140625 L 38.1875 -38.5625 C 38.050781 -40.832031 37.191406 -42.566406 35.609375 -43.765625 C 34.023438 -44.972656 31.859375 -45.578125 29.109375 -45.578125 C 26.960938 -45.578125 24.773438 -45.238281 22.546875 -44.5625 C 20.316406 -43.894531 18.175781 -42.984375 16.125 -41.828125 C 14.082031 -40.679688 12.273438 -39.367188 10.703125 -37.890625 L 3.796875 -48.609375 C 7.703125 -51.773438 11.863281 -54.078125 16.28125 -55.515625 C 20.695312 -56.960938 25.128906 -57.6875 29.578125 -57.6875 Z M 24.96875 -10.234375 C 27.21875 -10.234375 29.445312 -10.800781 31.65625 -11.9375 C 33.863281 -13.070312 36.039062 -14.566406 38.1875 -16.421875 L 38.1875 -26.984375 L 26.515625 -23.25 C 23.890625 -22.414062 21.9375 -21.453125 20.65625 -20.359375 C 19.375 -19.273438 18.734375 -17.785156 18.734375 -15.890625 C 18.734375 -14.128906 19.285156 -12.742188 20.390625 -11.734375 C 21.492188 -10.734375 23.019531 -10.234375 24.96875 -10.234375 Z M 24.96875 -10.234375 "/></g></g></g><g fill="#004aad" fill-opacity="1"><g transform="translate(183.245527, 148.875004)"><g><path d="M 26.609375 1.203125 C 23.023438 1.203125 19.796875 0.5 16.921875 -0.90625 C 14.054688 -2.320312 11.613281 -4.332031 9.59375 -6.9375 C 7.582031 -9.550781 6.046875 -12.664062 4.984375 -16.28125 C 3.929688 -19.894531 3.40625 -23.894531 3.40625 -28.28125 C 3.40625 -32.675781 3.925781 -36.664062 4.96875 -40.25 C 6.007812 -43.832031 7.519531 -46.925781 9.5 -49.53125 C 11.488281 -52.144531 13.898438 -54.15625 16.734375 -55.5625 C 19.566406 -56.976562 22.757812 -57.6875 26.3125 -57.6875 C 29.101562 -57.6875 31.515625 -57.375 33.546875 -56.75 C 35.578125 -56.125 37.320312 -55.28125 38.78125 -54.21875 C 40.238281 -53.164062 41.492188 -51.984375 42.546875 -50.671875 L 42.84375 -50.671875 L 42.84375 -76.265625 L 59.078125 -76.265625 L 59.078125 0 L 43.21875 0 L 43.21875 -5.90625 L 42.890625 -5.90625 C 41.992188 -4.75 40.832031 -3.625 39.40625 -2.53125 C 37.976562 -1.445312 36.222656 -0.554688 34.140625 0.140625 C 32.066406 0.847656 29.554688 1.203125 26.609375 1.203125 Z M 32.03125 -11.859375 C 34.40625 -11.859375 36.472656 -12.503906 38.234375 -13.796875 C 39.992188 -15.097656 41.367188 -16.984375 42.359375 -19.453125 C 43.347656 -21.921875 43.84375 -24.914062 43.84375 -28.4375 C 43.84375 -31.757812 43.347656 -34.617188 42.359375 -37.015625 C 41.367188 -39.421875 39.992188 -41.269531 38.234375 -42.5625 C 36.472656 -43.863281 34.40625 -44.515625 32.03125 -44.515625 C 28.15625 -44.515625 25.144531 -43.171875 23 -40.484375 C 20.851562 -37.796875 19.78125 -33.78125 19.78125 -28.4375 C 19.78125 -22.800781 20.851562 -18.628906 23 -15.921875 C 25.144531 -13.210938 28.15625 -11.859375 32.03125 -11.859375 Z M 32.03125 -11.859375 "/></g></g></g><g fill="#004aad" fill-opacity="1"><g transform="translate(242.6272, 148.875004)"><g><path d="M 42.21875 -42.59375 L 75.203125 -42.59375 L 75.203125 0 L 61.328125 0 L 61.28125 -9.171875 C 59.875 -6.734375 58.039062 -4.707031 55.78125 -3.09375 C 53.519531 -1.476562 50.957031 -0.253906 48.09375 0.578125 C 45.226562 1.410156 42.179688 1.828125 38.953125 1.828125 C 33.503906 1.828125 28.644531 0.921875 24.375 -0.890625 C 20.101562 -2.703125 16.476562 -5.328125 13.5 -8.765625 C 10.519531 -12.203125 8.253906 -16.363281 6.703125 -21.25 C 5.148438 -26.132812 4.375 -31.632812 4.375 -37.75 C 4.375 -44.09375 5.203125 -49.757812 6.859375 -54.75 C 8.523438 -59.75 10.953125 -63.992188 14.140625 -67.484375 C 17.328125 -70.972656 21.203125 -73.628906 25.765625 -75.453125 C 30.328125 -77.273438 35.503906 -78.1875 41.296875 -78.1875 C 45.648438 -78.1875 49.597656 -77.632812 53.140625 -76.53125 C 56.679688 -75.425781 59.800781 -73.878906 62.5 -71.890625 C 65.207031 -69.910156 67.488281 -67.59375 69.34375 -64.9375 C 71.207031 -62.28125 72.632812 -59.378906 73.625 -56.234375 L 58.734375 -51.484375 C 57.359375 -55.617188 55.222656 -58.78125 52.328125 -60.96875 C 49.429688 -63.164062 45.769531 -64.265625 41.34375 -64.265625 C 37.851562 -64.265625 34.84375 -63.625 32.3125 -62.34375 C 29.789062 -61.0625 27.710938 -59.257812 26.078125 -56.9375 C 24.441406 -54.613281 23.234375 -51.863281 22.453125 -48.6875 C 21.671875 -45.519531 21.28125 -42.050781 21.28125 -38.28125 C 21.28125 -34.726562 21.640625 -31.394531 22.359375 -28.28125 C 23.078125 -25.175781 24.210938 -22.460938 25.765625 -20.140625 C 27.316406 -17.828125 29.359375 -16.015625 31.890625 -14.703125 C 34.421875 -13.390625 37.492188 -12.734375 41.109375 -12.734375 C 44.117188 -12.734375 46.71875 -13.179688 48.90625 -14.078125 C 51.101562 -14.972656 52.929688 -16.203125 54.390625 -17.765625 C 55.847656 -19.335938 56.984375 -21.125 57.796875 -23.125 C 58.617188 -25.125 59.140625 -27.226562 59.359375 -29.4375 L 42.21875 -29.4375 Z M 42.21875 -42.59375 "/></g></g></g><g fill="#004aad" fill-opacity="1"><g transform="translate(317.279045, 148.875004)"><g><path d="M 33 -11.484375 C 34.65625 -11.484375 36.304688 -11.753906 37.953125 -12.296875 C 39.609375 -12.835938 41.128906 -13.632812 42.515625 -14.6875 C 43.910156 -15.75 45.0625 -17.050781 45.96875 -18.59375 L 56.671875 -10.46875 C 54.335938 -7.363281 51.859375 -4.96875 49.234375 -3.28125 C 46.609375 -1.601562 43.910156 -0.453125 41.140625 0.171875 C 38.367188 0.796875 35.570312 1.109375 32.75 1.109375 C 28.488281 1.109375 24.550781 0.515625 20.9375 -0.671875 C 17.320312 -1.859375 14.175781 -3.648438 11.5 -6.046875 C 8.832031 -8.453125 6.757812 -11.472656 5.28125 -15.109375 C 3.8125 -18.742188 3.078125 -23.007812 3.078125 -27.90625 C 3.078125 -32.476562 3.734375 -36.597656 5.046875 -40.265625 C 6.359375 -43.929688 8.226562 -47.0625 10.65625 -49.65625 C 13.09375 -52.25 16 -54.234375 19.375 -55.609375 C 22.757812 -56.992188 26.515625 -57.6875 30.640625 -57.6875 C 34.484375 -57.6875 38.003906 -57.0625 41.203125 -55.8125 C 44.410156 -54.5625 47.1875 -52.75 49.53125 -50.375 C 51.882812 -48.007812 53.703125 -45.132812 54.984375 -41.75 C 56.265625 -38.375 56.90625 -34.539062 56.90625 -30.25 C 56.90625 -29.675781 56.894531 -29.140625 56.875 -28.640625 C 56.863281 -28.148438 56.816406 -27.582031 56.734375 -26.9375 C 56.660156 -26.300781 56.546875 -25.472656 56.390625 -24.453125 L 19.40625 -24.453125 C 19.46875 -21.859375 20.085938 -19.59375 21.265625 -17.65625 C 22.453125 -15.71875 24.0625 -14.203125 26.09375 -13.109375 C 28.132812 -12.023438 30.4375 -11.484375 33 -11.484375 Z M 30.40625 -45.671875 C 28.0625 -45.671875 26.144531 -45.238281 24.65625 -44.375 C 23.164062 -43.507812 22.03125 -42.375 21.25 -40.96875 C 20.46875 -39.5625 19.945312 -38.007812 19.6875 -36.3125 L 41.015625 -36.3125 C 40.660156 -39.15625 39.609375 -41.425781 37.859375 -43.125 C 36.117188 -44.820312 33.632812 -45.671875 30.40625 -45.671875 Z M 30.40625 -45.671875 "/></g></g></g><g fill="#004aad" fill-opacity="1"><g transform="translate(370.754331, 148.875004)"><g><path d="M 7.203125 0 L 7.203125 -56.578125 L 23.15625 -56.578125 L 23.15625 -49.859375 L 23.71875 -49.859375 C 24.78125 -51.265625 26.132812 -52.554688 27.78125 -53.734375 C 29.425781 -54.921875 31.363281 -55.875 33.59375 -56.59375 C 35.820312 -57.320312 38.3125 -57.6875 41.0625 -57.6875 C 44.90625 -57.6875 48.273438 -56.867188 51.171875 -55.234375 C 54.066406 -53.597656 56.316406 -51.242188 57.921875 -48.171875 C 59.523438 -45.097656 60.328125 -41.398438 60.328125 -37.078125 L 60.328125 0 L 44.328125 0 L 44.328125 -33.09375 C 44.328125 -37.21875 43.453125 -40.148438 41.703125 -41.890625 C 39.960938 -43.640625 37.617188 -44.515625 34.671875 -44.515625 C 32.492188 -44.515625 30.554688 -44.039062 28.859375 -43.09375 C 27.160156 -42.15625 25.820312 -40.660156 24.84375 -38.609375 C 23.875 -36.566406 23.390625 -33.878906 23.390625 -30.546875 L 23.390625 0 Z M 7.203125 0 "/></g></g></g><g fill="#ffffff" fill-opacity="1"><g transform="translate(430.188372, 148.875004)"><g><path d="M 11.140625 0 L 11.140625 -76.265625 L 20.796875 -76.265625 L 20.796875 0 Z M 11.140625 0 "/></g></g></g><g fill="#ffffff" fill-opacity="1"><g transform="translate(455.18815, 148.875004)"><g><path d="M 8.84375 0 L 8.84375 -56.578125 L 18.0625 -56.578125 L 18.0625 -49.1875 L 18.53125 -49.1875 C 19.5625 -50.78125 20.859375 -52.21875 22.421875 -53.5 C 23.992188 -54.78125 25.851562 -55.796875 28 -56.546875 C 30.144531 -57.304688 32.546875 -57.6875 35.203125 -57.6875 C 38.921875 -57.6875 42.144531 -56.90625 44.875 -55.34375 C 47.613281 -53.789062 49.742188 -51.519531 51.265625 -48.53125 C 52.785156 -45.539062 53.546875 -41.898438 53.546875 -37.609375 L 53.546875 0 L 44.46875 0 L 44.46875 -35.296875 C 44.46875 -38.753906 44.007812 -41.523438 43.09375 -43.609375 C 42.1875 -45.691406 40.867188 -47.195312 39.140625 -48.125 C 37.410156 -49.050781 35.347656 -49.515625 32.953125 -49.515625 C 30.128906 -49.515625 27.585938 -48.890625 25.328125 -47.640625 C 23.078125 -46.390625 21.296875 -44.515625 19.984375 -42.015625 C 18.671875 -39.523438 18.015625 -36.375 18.015625 -32.5625 L 18.015625 0 Z M 8.84375 0 "/></g></g></g><g fill="#ffffff" fill-opacity="1"><g transform="translate(509.575804, 148.875004)"><g><path d="M 25.984375 1.203125 C 22.492188 1.203125 19.257812 0.585938 16.28125 -0.640625 C 13.300781 -1.878906 10.707031 -3.515625 8.5 -5.546875 C 6.289062 -7.578125 4.59375 -9.796875 3.40625 -12.203125 L 10.1875 -16.8125 C 10.976562 -15.082031 12.085938 -13.390625 13.515625 -11.734375 C 14.941406 -10.085938 16.71875 -8.734375 18.84375 -7.671875 C 20.976562 -6.617188 23.503906 -6.09375 26.421875 -6.09375 C 28.429688 -6.09375 30.332031 -6.425781 32.125 -7.09375 C 33.914062 -7.769531 35.375 -8.8125 36.5 -10.21875 C 37.625 -11.632812 38.1875 -13.445312 38.1875 -15.65625 C 38.1875 -17.382812 37.785156 -18.800781 36.984375 -19.90625 C 36.179688 -21.007812 35.070312 -21.90625 33.65625 -22.59375 C 32.25 -23.28125 30.648438 -23.863281 28.859375 -24.34375 L 19.5 -26.796875 C 16.96875 -27.472656 14.660156 -28.398438 12.578125 -29.578125 C 10.503906 -30.765625 8.847656 -32.332031 7.609375 -34.28125 C 6.378906 -36.238281 5.765625 -38.675781 5.765625 -41.59375 C 5.765625 -45.019531 6.613281 -47.929688 8.3125 -50.328125 C 10.007812 -52.734375 12.335938 -54.5625 15.296875 -55.8125 C 18.253906 -57.0625 21.65625 -57.6875 25.5 -57.6875 C 29.082031 -57.6875 32.210938 -57.140625 34.890625 -56.046875 C 37.566406 -54.960938 39.847656 -53.515625 41.734375 -51.703125 C 43.617188 -49.890625 45.171875 -47.894531 46.390625 -45.71875 L 39.859375 -41.453125 C 36.628906 -47.535156 31.796875 -50.578125 25.359375 -50.578125 C 22.253906 -50.578125 19.71875 -49.847656 17.75 -48.390625 C 15.78125 -46.929688 14.796875 -44.90625 14.796875 -42.3125 C 14.796875 -40.320312 15.503906 -38.789062 16.921875 -37.71875 C 18.347656 -36.644531 20.28125 -35.789062 22.71875 -35.15625 L 32.03125 -32.609375 C 33.957031 -32.097656 35.816406 -31.441406 37.609375 -30.640625 C 39.398438 -29.835938 41.023438 -28.820312 42.484375 -27.59375 C 43.941406 -26.363281 45.09375 -24.832031 45.9375 -23 C 46.78125 -21.175781 47.203125 -18.96875 47.203125 -16.375 C 47.203125 -13.457031 46.640625 -10.898438 45.515625 -8.703125 C 44.398438 -6.515625 42.859375 -4.6875 40.890625 -3.21875 C 38.921875 -1.75 36.65625 -0.644531 34.09375 0.09375 C 31.53125 0.832031 28.828125 1.203125 25.984375 1.203125 Z M 25.984375 1.203125 "/></g></g></g><g fill="#ffffff" fill-opacity="1"><g transform="translate(554.311559, 148.875004)"><g><path d="M 8.84375 -65.609375 L 8.84375 -76.265625 L 18.015625 -76.265625 L 18.015625 -65.609375 Z M 8.84375 0 L 8.84375 -56.578125 L 18.015625 -56.578125 L 18.015625 0 Z M 8.84375 0 "/></g></g></g><g fill="#ffffff" fill-opacity="1"><g transform="translate(574.317318, 148.875004)"><g><path d="M 28.1875 1.203125 C 24.25 1.203125 20.820312 0.457031 17.90625 -1.03125 C 15 -2.519531 12.597656 -4.59375 10.703125 -7.25 C 8.816406 -9.90625 7.410156 -13.023438 6.484375 -16.609375 C 5.554688 -20.203125 5.09375 -24.09375 5.09375 -28.28125 C 5.09375 -32.445312 5.554688 -36.304688 6.484375 -39.859375 C 7.410156 -43.410156 8.828125 -46.523438 10.734375 -49.203125 C 12.640625 -51.878906 15.039062 -53.960938 17.9375 -55.453125 C 20.832031 -56.941406 24.265625 -57.6875 28.234375 -57.6875 C 31.054688 -57.6875 33.53125 -57.335938 35.65625 -56.640625 C 37.789062 -55.953125 39.671875 -55.007812 41.296875 -53.8125 C 42.929688 -52.613281 44.40625 -51.226562 45.71875 -49.65625 L 46.109375 -49.65625 L 46.109375 -76.265625 L 55.28125 -76.265625 L 55.28125 0 L 46.203125 0 L 46.203125 -6.96875 L 45.859375 -6.96875 C 44.617188 -5.425781 43.171875 -4.035156 41.515625 -2.796875 C 39.867188 -1.566406 37.957031 -0.59375 35.78125 0.125 C 33.601562 0.84375 31.070312 1.203125 28.1875 1.203125 Z M 30.875 -6.765625 C 34.144531 -6.765625 36.972656 -7.632812 39.359375 -9.375 C 41.742188 -11.125 43.578125 -13.609375 44.859375 -16.828125 C 46.140625 -20.046875 46.78125 -23.882812 46.78125 -28.34375 C 46.78125 -32.65625 46.140625 -36.394531 44.859375 -39.5625 C 43.578125 -42.738281 41.742188 -45.191406 39.359375 -46.921875 C 36.972656 -48.648438 34.144531 -49.515625 30.875 -49.515625 C 27.132812 -49.515625 24.039062 -48.65625 21.59375 -46.9375 C 19.144531 -45.226562 17.316406 -42.796875 16.109375 -39.640625 C 14.910156 -36.492188 14.3125 -32.726562 14.3125 -28.34375 C 14.3125 -21.582031 15.671875 -16.296875 18.390625 -12.484375 C 21.117188 -8.671875 25.28125 -6.765625 30.875 -6.765625 Z M 30.875 -6.765625 "/></g></g></g><g fill="#ffffff" fill-opacity="1"><g transform="translate(631.634157, 148.875004)"><g><path d="M 54.609375 -29.203125 C 54.609375 -28.367188 54.59375 -27.675781 54.5625 -27.125 C 54.53125 -26.582031 54.445312 -25.929688 54.3125 -25.171875 L 14.03125 -25.171875 C 14.1875 -22.734375 14.664062 -20.414062 15.46875 -18.21875 C 16.269531 -16.03125 17.394531 -14.078125 18.84375 -12.359375 C 20.300781 -10.648438 22.132812 -9.304688 24.34375 -8.328125 C 26.550781 -7.359375 29.144531 -6.875 32.125 -6.875 C 34.019531 -6.875 35.878906 -7.132812 37.703125 -7.65625 C 39.523438 -8.1875 41.234375 -8.9375 42.828125 -9.90625 C 44.429688 -10.882812 45.78125 -12.066406 46.875 -13.453125 L 52.875 -7.25 C 50.695312 -5.101562 48.445312 -3.421875 46.125 -2.203125 C 43.800781 -0.992188 41.460938 -0.140625 39.109375 0.359375 C 36.765625 0.859375 34.4375 1.109375 32.125 1.109375 C 27.382812 1.109375 23.285156 0.34375 19.828125 -1.1875 C 16.367188 -2.726562 13.519531 -4.859375 11.28125 -7.578125 C 9.039062 -10.304688 7.375 -13.4375 6.28125 -16.96875 C 5.195312 -20.507812 4.65625 -24.28125 4.65625 -28.28125 C 4.65625 -31.320312 4.96875 -34.285156 5.59375 -37.171875 C 6.21875 -40.054688 7.1875 -42.738281 8.5 -45.21875 C 9.8125 -47.695312 11.484375 -49.875 13.515625 -51.75 C 15.546875 -53.625 17.960938 -55.082031 20.765625 -56.125 C 23.566406 -57.164062 26.765625 -57.6875 30.359375 -57.6875 C 34.003906 -57.6875 37.175781 -57.148438 39.875 -56.078125 C 42.582031 -55.003906 44.875 -53.519531 46.75 -51.625 C 48.625 -49.738281 50.132812 -47.578125 51.28125 -45.140625 C 52.4375 -42.710938 53.28125 -40.132812 53.8125 -37.40625 C 54.34375 -34.6875 54.609375 -31.953125 54.609375 -29.203125 Z M 30.0625 -49.90625 C 27.144531 -49.90625 24.6875 -49.421875 22.6875 -48.453125 C 20.6875 -47.492188 19.070312 -46.191406 17.84375 -44.546875 C 16.613281 -42.898438 15.691406 -41.050781 15.078125 -39 C 14.472656 -36.945312 14.101562 -34.816406 13.96875 -32.609375 L 45.625 -32.609375 C 45.4375 -36.160156 44.75 -39.222656 43.5625 -41.796875 C 42.375 -44.378906 40.660156 -46.375 38.421875 -47.78125 C 36.179688 -49.195312 33.394531 -49.90625 30.0625 -49.90625 Z M 30.0625 -49.90625 "/></g></g></g><g fill="#ffffff" fill-opacity="1"><g transform="translate(683.860939, 148.875004)"><g><path d="M 8.84375 0 L 8.84375 -56.578125 L 18.0625 -56.578125 L 18.0625 -47.15625 L 18.296875 -47.15625 C 19.316406 -49.851562 20.738281 -51.960938 22.5625 -53.484375 C 24.394531 -55.003906 26.613281 -56.082031 29.21875 -56.71875 C 31.832031 -57.363281 34.820312 -57.6875 38.1875 -57.6875 L 38.1875 -49.28125 C 34.144531 -49.21875 30.816406 -48.664062 28.203125 -47.625 C 25.597656 -46.582031 23.550781 -45.023438 22.0625 -42.953125 C 20.570312 -40.890625 19.523438 -38.289062 18.921875 -35.15625 C 18.316406 -32.019531 18.015625 -28.304688 18.015625 -24.015625 L 18.015625 0 Z M 8.84375 0 "/></g></g></g><g fill="#ffffff" fill-opacity="1"><g transform="translate(716.591841, 148.875004)"><g><path d="M 12.109375 0 L 12.109375 -12.34375 L 24.109375 -12.34375 L 24.109375 0 Z M 12.109375 0 "/></g></g></g><g transform="matrix(1, 0, 0, 1, 18, 17)"><g clip-path="url(#719b2fa2e0)"><g clip-path="url(#dc6fe18bd5)"><g fill="#ffffff" fill-opacity="1"><g transform="translate(0.639075, 130.470726)"><g><path d="M 51.859375 -17.890625 C 52.742188 -17.890625 53.1875 -17.488281 53.1875 -16.6875 L 53.1875 -1.078125 C 53.1875 -0.359375 52.742188 0 51.859375 0 L 1.328125 0 C 0.441406 0 0 -0.359375 0 -1.078125 L 0 -17.890625 Z M 18.359375 -36.25 L 0 -36.25 L 0 -94.953125 C 0 -95.671875 0.441406 -96.03125 1.328125 -96.03125 L 17.171875 -96.03125 C 17.960938 -96.03125 18.359375 -95.671875 18.359375 -94.953125 Z M 18.359375 -36.25 "/></g></g></g></g></g></g></svg>