<svg xmlns="http://www.w3.org/2000/svg" xmlns:xlink="http://www.w3.org/1999/xlink" width="170" zoomAndPan="magnify" viewBox="0 0 127.5 52.499999" height="70" preserveAspectRatio="xMidYMid meet" version="1.0"><defs><g/><clipPath id="f719c4751e"><path d="M 24 13 L 126.652344 13 L 126.652344 34 L 24 34 Z M 24 13 " clip-rule="nonzero"/></clipPath><clipPath id="c6d0692513"><rect x="0" width="103" y="0" height="21"/></clipPath><clipPath id="65e97dea51"><rect x="0" width="80" y="0" height="11"/></clipPath><clipPath id="e63b646e7f"><path d="M 11 36 L 13 36 L 13 40.386719 L 11 40.386719 Z M 11 36 " clip-rule="nonzero"/></clipPath><clipPath id="3a54341bdc"><path d="M 13 37 L 17 37 L 17 40.386719 L 13 40.386719 Z M 13 37 " clip-rule="nonzero"/></clipPath><clipPath id="f445ee062b"><path d="M 11 14 L 18 14 L 18 40.386719 L 11 40.386719 Z M 11 14 " clip-rule="nonzero"/></clipPath><clipPath id="f98342aba8"><path d="M 9 36 L 13 36 L 13 40.386719 L 9 40.386719 Z M 9 36 " clip-rule="nonzero"/></clipPath><clipPath id="3402754c89"><path d="M 9 11.414062 L 19.667969 11.414062 L 19.667969 16 L 9 16 Z M 9 11.414062 " clip-rule="nonzero"/></clipPath><clipPath id="92c3442408"><path d="M 1.097656 22 L 17 22 L 17 40.386719 L 1.097656 40.386719 Z M 1.097656 22 " clip-rule="nonzero"/></clipPath></defs><g clip-path="url(#f719c4751e)"><g transform="matrix(1, 0, 0, 1, 24, 13)"><g clip-path="url(#c6d0692513)"><g fill="#ffffff" fill-opacity="1"><g transform="translate(0.393955, 15.088773)"><g><path d="M 9.75 0 L 8.03125 0 L 2.859375 -7.828125 L 2.859375 0 L 1.125 0 L 1.125 -10.5 L 2.859375 -10.5 L 8.03125 -2.6875 L 8.03125 -10.5 L 9.75 -10.5 Z M 9.75 0 "/></g></g></g><g fill="#ffffff" fill-opacity="1"><g transform="translate(14.103413, 15.088773)"><g><path d="M 2.859375 -9.109375 L 2.859375 -6.015625 L 6.46875 -6.015625 L 6.46875 -4.625 L 2.859375 -4.625 L 2.859375 -1.40625 L 6.921875 -1.40625 L 6.921875 0 L 1.125 0 L 1.125 -10.5 L 6.921875 -10.5 L 6.921875 -9.109375 Z M 2.859375 -9.109375 "/></g></g></g><g fill="#ffffff" fill-opacity="1"><g transform="translate(24.838514, 15.088773)"><g><path d="M 5.953125 -5.234375 L 9.203125 0 L 7.28125 0 L 4.90625 -3.796875 L 2.6875 0 L 0.765625 0 L 4.03125 -5.234375 L 0.75 -10.484375 L 2.6875 -10.484375 L 5.078125 -6.65625 L 7.3125 -10.484375 L 9.21875 -10.484375 Z M 5.953125 -5.234375 "/></g></g></g><g fill="#ffffff" fill-opacity="1"><g transform="translate(37.62698, 15.088773)"><g><path d="M 7.90625 -10.484375 L 7.90625 -9.09375 L 5.109375 -9.09375 L 5.109375 0 L 3.390625 0 L 3.390625 -9.09375 L 0.59375 -9.09375 L 0.59375 -10.484375 Z M 7.90625 -10.484375 "/></g></g></g><g fill="#ffffff" fill-opacity="1"><g transform="translate(48.966018, 15.088773)"><g><path d="M 2.859375 -1.390625 L 6.40625 -1.390625 L 6.40625 0 L 1.125 0 L 1.125 -10.484375 L 2.859375 -10.484375 Z M 2.859375 -1.390625 "/></g></g></g><g fill="#ffffff" fill-opacity="1"><g transform="translate(58.493269, 15.088773)"><g><path d="M 2.859375 -9.109375 L 2.859375 -6.015625 L 6.46875 -6.015625 L 6.46875 -4.625 L 2.859375 -4.625 L 2.859375 -1.40625 L 6.921875 -1.40625 L 6.921875 0 L 1.125 0 L 1.125 -10.5 L 6.921875 -10.5 L 6.921875 -9.109375 Z M 2.859375 -9.109375 "/></g></g></g><g fill="#ffffff" fill-opacity="1"><g transform="translate(69.228369, 15.088773)"><g><path d="M 10.171875 -10.484375 L 6.234375 0 L 4.234375 0 L 0.28125 -10.484375 L 2.125 -10.484375 L 5.234375 -1.765625 L 8.359375 -10.484375 Z M 10.171875 -10.484375 "/></g></g></g><g fill="#ffffff" fill-opacity="1"><g transform="translate(82.530174, 15.088773)"><g><path d="M 2.859375 -9.109375 L 2.859375 -6.015625 L 6.46875 -6.015625 L 6.46875 -4.625 L 2.859375 -4.625 L 2.859375 -1.40625 L 6.921875 -1.40625 L 6.921875 0 L 1.125 0 L 1.125 -10.5 L 6.921875 -10.5 L 6.921875 -9.109375 Z M 2.859375 -9.109375 "/></g></g></g><g fill="#ffffff" fill-opacity="1"><g transform="translate(93.265274, 15.088773)"><g><path d="M 2.859375 -1.390625 L 6.40625 -1.390625 L 6.40625 0 L 1.125 0 L 1.125 -10.484375 L 2.859375 -10.484375 Z M 2.859375 -1.390625 "/></g></g></g></g></g></g><g transform="matrix(1, 0, 0, 1, 24, 28)"><g clip-path="url(#65e97dea51)"><g fill="#ffffff" fill-opacity="1"><g transform="translate(1.007884, 7.225624)"><g><path d="M 2.921875 -2.34375 C 3.171875 -2.289062 3.378906 -2.15625 3.546875 -1.9375 C 3.710938 -1.726562 3.796875 -1.488281 3.796875 -1.21875 C 3.796875 -0.988281 3.734375 -0.78125 3.609375 -0.59375 C 3.492188 -0.414062 3.320312 -0.269531 3.09375 -0.15625 C 2.875 -0.0507812 2.613281 0 2.3125 0 L 0.484375 0 L 0.484375 -4.546875 L 2.21875 -4.546875 C 2.53125 -4.546875 2.796875 -4.492188 3.015625 -4.390625 C 3.242188 -4.285156 3.414062 -4.144531 3.53125 -3.96875 C 3.644531 -3.789062 3.703125 -3.59375 3.703125 -3.375 C 3.703125 -3.113281 3.628906 -2.894531 3.484375 -2.71875 C 3.347656 -2.550781 3.160156 -2.425781 2.921875 -2.34375 Z M 1.234375 -2.640625 L 2.15625 -2.640625 C 2.40625 -2.640625 2.597656 -2.691406 2.734375 -2.796875 C 2.867188 -2.910156 2.9375 -3.070312 2.9375 -3.28125 C 2.9375 -3.488281 2.867188 -3.648438 2.734375 -3.765625 C 2.597656 -3.878906 2.40625 -3.9375 2.15625 -3.9375 L 1.234375 -3.9375 Z M 2.25 -0.609375 C 2.5 -0.609375 2.695312 -0.664062 2.84375 -0.78125 C 2.988281 -0.90625 3.0625 -1.078125 3.0625 -1.296875 C 3.0625 -1.523438 2.984375 -1.703125 2.828125 -1.828125 C 2.671875 -1.960938 2.46875 -2.03125 2.21875 -2.03125 L 1.234375 -2.03125 L 1.234375 -0.609375 Z M 2.25 -0.609375 "/></g></g></g><g fill="#ffffff" fill-opacity="1"><g transform="translate(6.352989, 7.225624)"><g><path d="M 1.234375 -4.546875 L 1.234375 -1.65625 C 1.234375 -1.300781 1.320312 -1.035156 1.5 -0.859375 C 1.6875 -0.691406 1.941406 -0.609375 2.265625 -0.609375 C 2.585938 -0.609375 2.835938 -0.691406 3.015625 -0.859375 C 3.203125 -1.035156 3.296875 -1.300781 3.296875 -1.65625 L 3.296875 -4.546875 L 4.046875 -4.546875 L 4.046875 -1.65625 C 4.046875 -1.289062 3.960938 -0.976562 3.796875 -0.71875 C 3.640625 -0.457031 3.425781 -0.265625 3.15625 -0.140625 C 2.882812 -0.015625 2.582031 0.046875 2.25 0.046875 C 1.925781 0.046875 1.628906 -0.015625 1.359375 -0.140625 C 1.085938 -0.265625 0.875 -0.457031 0.71875 -0.71875 C 0.5625 -0.976562 0.484375 -1.289062 0.484375 -1.65625 L 0.484375 -4.546875 Z M 1.234375 -4.546875 "/></g></g></g><g fill="#ffffff" fill-opacity="1"><g transform="translate(12.090635, 7.225624)"><g><path d="M 1.984375 0.046875 C 1.679688 0.046875 1.40625 -0.00390625 1.15625 -0.109375 C 0.914062 -0.222656 0.722656 -0.375 0.578125 -0.5625 C 0.441406 -0.757812 0.375 -0.988281 0.375 -1.25 L 1.171875 -1.25 C 1.191406 -1.0625 1.269531 -0.898438 1.40625 -0.765625 C 1.539062 -0.640625 1.734375 -0.578125 1.984375 -0.578125 C 2.242188 -0.578125 2.445312 -0.640625 2.59375 -0.765625 C 2.738281 -0.890625 2.8125 -1.050781 2.8125 -1.25 C 2.8125 -1.40625 2.765625 -1.53125 2.671875 -1.625 C 2.585938 -1.71875 2.476562 -1.789062 2.34375 -1.84375 C 2.207031 -1.894531 2.019531 -1.953125 1.78125 -2.015625 C 1.488281 -2.097656 1.25 -2.175781 1.0625 -2.25 C 0.875 -2.332031 0.710938 -2.457031 0.578125 -2.625 C 0.453125 -2.800781 0.390625 -3.03125 0.390625 -3.3125 C 0.390625 -3.570312 0.453125 -3.800781 0.578125 -4 C 0.710938 -4.195312 0.898438 -4.347656 1.140625 -4.453125 C 1.378906 -4.554688 1.648438 -4.609375 1.953125 -4.609375 C 2.398438 -4.609375 2.765625 -4.5 3.046875 -4.28125 C 3.328125 -4.0625 3.484375 -3.757812 3.515625 -3.375 L 2.6875 -3.375 C 2.675781 -3.539062 2.597656 -3.679688 2.453125 -3.796875 C 2.304688 -3.910156 2.113281 -3.96875 1.875 -3.96875 C 1.664062 -3.96875 1.492188 -3.910156 1.359375 -3.796875 C 1.222656 -3.691406 1.15625 -3.539062 1.15625 -3.34375 C 1.15625 -3.195312 1.195312 -3.078125 1.28125 -2.984375 C 1.363281 -2.898438 1.46875 -2.832031 1.59375 -2.78125 C 1.726562 -2.726562 1.910156 -2.671875 2.140625 -2.609375 C 2.441406 -2.523438 2.6875 -2.441406 2.875 -2.359375 C 3.0625 -2.273438 3.222656 -2.144531 3.359375 -1.96875 C 3.492188 -1.800781 3.5625 -1.578125 3.5625 -1.296875 C 3.5625 -1.054688 3.5 -0.832031 3.375 -0.625 C 3.25 -0.425781 3.066406 -0.265625 2.828125 -0.140625 C 2.585938 -0.015625 2.304688 0.046875 1.984375 0.046875 Z M 1.984375 0.046875 "/></g></g></g><g fill="#ffffff" fill-opacity="1"><g transform="translate(17.265634, 7.225624)"><g><path d="M 1.234375 -4.546875 L 1.234375 0 L 0.484375 0 L 0.484375 -4.546875 Z M 1.234375 -4.546875 "/></g></g></g><g fill="#ffffff" fill-opacity="1"><g transform="translate(20.216233, 7.225624)"><g><path d="M 4.234375 0 L 3.484375 0 L 1.234375 -3.390625 L 1.234375 0 L 0.484375 0 L 0.484375 -4.5625 L 1.234375 -4.5625 L 3.484375 -1.171875 L 3.484375 -4.5625 L 4.234375 -4.5625 Z M 4.234375 0 "/></g></g></g><g fill="#ffffff" fill-opacity="1"><g transform="translate(26.156688, 7.225624)"><g><path d="M 1.234375 -3.953125 L 1.234375 -2.609375 L 2.8125 -2.609375 L 2.8125 -2 L 1.234375 -2 L 1.234375 -0.609375 L 3 -0.609375 L 3 0 L 0.484375 0 L 0.484375 -4.5625 L 3 -4.5625 L 3 -3.953125 Z M 1.234375 -3.953125 "/></g></g></g><g fill="#ffffff" fill-opacity="1"><g transform="translate(30.808297, 7.225624)"><g><path d="M 1.984375 0.046875 C 1.679688 0.046875 1.40625 -0.00390625 1.15625 -0.109375 C 0.914062 -0.222656 0.722656 -0.375 0.578125 -0.5625 C 0.441406 -0.757812 0.375 -0.988281 0.375 -1.25 L 1.171875 -1.25 C 1.191406 -1.0625 1.269531 -0.898438 1.40625 -0.765625 C 1.539062 -0.640625 1.734375 -0.578125 1.984375 -0.578125 C 2.242188 -0.578125 2.445312 -0.640625 2.59375 -0.765625 C 2.738281 -0.890625 2.8125 -1.050781 2.8125 -1.25 C 2.8125 -1.40625 2.765625 -1.53125 2.671875 -1.625 C 2.585938 -1.71875 2.476562 -1.789062 2.34375 -1.84375 C 2.207031 -1.894531 2.019531 -1.953125 1.78125 -2.015625 C 1.488281 -2.097656 1.25 -2.175781 1.0625 -2.25 C 0.875 -2.332031 0.710938 -2.457031 0.578125 -2.625 C 0.453125 -2.800781 0.390625 -3.03125 0.390625 -3.3125 C 0.390625 -3.570312 0.453125 -3.800781 0.578125 -4 C 0.710938 -4.195312 0.898438 -4.347656 1.140625 -4.453125 C 1.378906 -4.554688 1.648438 -4.609375 1.953125 -4.609375 C 2.398438 -4.609375 2.765625 -4.5 3.046875 -4.28125 C 3.328125 -4.0625 3.484375 -3.757812 3.515625 -3.375 L 2.6875 -3.375 C 2.675781 -3.539062 2.597656 -3.679688 2.453125 -3.796875 C 2.304688 -3.910156 2.113281 -3.96875 1.875 -3.96875 C 1.664062 -3.96875 1.492188 -3.910156 1.359375 -3.796875 C 1.222656 -3.691406 1.15625 -3.539062 1.15625 -3.34375 C 1.15625 -3.195312 1.195312 -3.078125 1.28125 -2.984375 C 1.363281 -2.898438 1.46875 -2.832031 1.59375 -2.78125 C 1.726562 -2.726562 1.910156 -2.671875 2.140625 -2.609375 C 2.441406 -2.523438 2.6875 -2.441406 2.875 -2.359375 C 3.0625 -2.273438 3.222656 -2.144531 3.359375 -1.96875 C 3.492188 -1.800781 3.5625 -1.578125 3.5625 -1.296875 C 3.5625 -1.054688 3.5 -0.832031 3.375 -0.625 C 3.25 -0.425781 3.066406 -0.265625 2.828125 -0.140625 C 2.585938 -0.015625 2.304688 0.046875 1.984375 0.046875 Z M 1.984375 0.046875 "/></g></g></g><g fill="#ffffff" fill-opacity="1"><g transform="translate(35.983296, 7.225624)"><g><path d="M 1.984375 0.046875 C 1.679688 0.046875 1.40625 -0.00390625 1.15625 -0.109375 C 0.914062 -0.222656 0.722656 -0.375 0.578125 -0.5625 C 0.441406 -0.757812 0.375 -0.988281 0.375 -1.25 L 1.171875 -1.25 C 1.191406 -1.0625 1.269531 -0.898438 1.40625 -0.765625 C 1.539062 -0.640625 1.734375 -0.578125 1.984375 -0.578125 C 2.242188 -0.578125 2.445312 -0.640625 2.59375 -0.765625 C 2.738281 -0.890625 2.8125 -1.050781 2.8125 -1.25 C 2.8125 -1.40625 2.765625 -1.53125 2.671875 -1.625 C 2.585938 -1.71875 2.476562 -1.789062 2.34375 -1.84375 C 2.207031 -1.894531 2.019531 -1.953125 1.78125 -2.015625 C 1.488281 -2.097656 1.25 -2.175781 1.0625 -2.25 C 0.875 -2.332031 0.710938 -2.457031 0.578125 -2.625 C 0.453125 -2.800781 0.390625 -3.03125 0.390625 -3.3125 C 0.390625 -3.570312 0.453125 -3.800781 0.578125 -4 C 0.710938 -4.195312 0.898438 -4.347656 1.140625 -4.453125 C 1.378906 -4.554688 1.648438 -4.609375 1.953125 -4.609375 C 2.398438 -4.609375 2.765625 -4.5 3.046875 -4.28125 C 3.328125 -4.0625 3.484375 -3.757812 3.515625 -3.375 L 2.6875 -3.375 C 2.675781 -3.539062 2.597656 -3.679688 2.453125 -3.796875 C 2.304688 -3.910156 2.113281 -3.96875 1.875 -3.96875 C 1.664062 -3.96875 1.492188 -3.910156 1.359375 -3.796875 C 1.222656 -3.691406 1.15625 -3.539062 1.15625 -3.34375 C 1.15625 -3.195312 1.195312 -3.078125 1.28125 -2.984375 C 1.363281 -2.898438 1.46875 -2.832031 1.59375 -2.78125 C 1.726562 -2.726562 1.910156 -2.671875 2.140625 -2.609375 C 2.441406 -2.523438 2.6875 -2.441406 2.875 -2.359375 C 3.0625 -2.273438 3.222656 -2.144531 3.359375 -1.96875 C 3.492188 -1.800781 3.5625 -1.578125 3.5625 -1.296875 C 3.5625 -1.054688 3.5 -0.832031 3.375 -0.625 C 3.25 -0.425781 3.066406 -0.265625 2.828125 -0.140625 C 2.585938 -0.015625 2.304688 0.046875 1.984375 0.046875 Z M 1.984375 0.046875 "/></g></g></g><g fill="#ffffff" fill-opacity="1"><g transform="translate(41.158295, 7.225624)"><g><path d="M 2.921875 -2.34375 C 3.171875 -2.289062 3.378906 -2.15625 3.546875 -1.9375 C 3.710938 -1.726562 3.796875 -1.488281 3.796875 -1.21875 C 3.796875 -0.988281 3.734375 -0.78125 3.609375 -0.59375 C 3.492188 -0.414062 3.320312 -0.269531 3.09375 -0.15625 C 2.875 -0.0507812 2.613281 0 2.3125 0 L 0.484375 0 L 0.484375 -4.546875 L 2.21875 -4.546875 C 2.53125 -4.546875 2.796875 -4.492188 3.015625 -4.390625 C 3.242188 -4.285156 3.414062 -4.144531 3.53125 -3.96875 C 3.644531 -3.789062 3.703125 -3.59375 3.703125 -3.375 C 3.703125 -3.113281 3.628906 -2.894531 3.484375 -2.71875 C 3.347656 -2.550781 3.160156 -2.425781 2.921875 -2.34375 Z M 1.234375 -2.640625 L 2.15625 -2.640625 C 2.40625 -2.640625 2.597656 -2.691406 2.734375 -2.796875 C 2.867188 -2.910156 2.9375 -3.070312 2.9375 -3.28125 C 2.9375 -3.488281 2.867188 -3.648438 2.734375 -3.765625 C 2.597656 -3.878906 2.40625 -3.9375 2.15625 -3.9375 L 1.234375 -3.9375 Z M 2.25 -0.609375 C 2.5 -0.609375 2.695312 -0.664062 2.84375 -0.78125 C 2.988281 -0.90625 3.0625 -1.078125 3.0625 -1.296875 C 3.0625 -1.523438 2.984375 -1.703125 2.828125 -1.828125 C 2.671875 -1.960938 2.46875 -2.03125 2.21875 -2.03125 L 1.234375 -2.03125 L 1.234375 -0.609375 Z M 2.25 -0.609375 "/></g></g></g><g fill="#ffffff" fill-opacity="1"><g transform="translate(46.503401, 7.225624)"><g><path d="M 2.859375 0 L 1.8125 -1.8125 L 1.234375 -1.8125 L 1.234375 0 L 0.484375 0 L 0.484375 -4.546875 L 2.0625 -4.546875 C 2.414062 -4.546875 2.710938 -4.484375 2.953125 -4.359375 C 3.191406 -4.242188 3.367188 -4.082031 3.484375 -3.875 C 3.609375 -3.664062 3.671875 -3.4375 3.671875 -3.1875 C 3.671875 -2.894531 3.582031 -2.625 3.40625 -2.375 C 3.238281 -2.132812 2.976562 -1.972656 2.625 -1.890625 L 3.75 0 Z M 1.234375 -2.421875 L 2.0625 -2.421875 C 2.34375 -2.421875 2.550781 -2.488281 2.6875 -2.625 C 2.832031 -2.757812 2.90625 -2.945312 2.90625 -3.1875 C 2.90625 -3.425781 2.832031 -3.609375 2.6875 -3.734375 C 2.550781 -3.867188 2.34375 -3.9375 2.0625 -3.9375 L 1.234375 -3.9375 Z M 1.234375 -2.421875 "/></g></g></g><g fill="#ffffff" fill-opacity="1"><g transform="translate(51.861592, 7.225624)"><g><path d="M 2.5625 0.046875 C 2.144531 0.046875 1.753906 -0.0507812 1.390625 -0.25 C 1.035156 -0.445312 0.753906 -0.722656 0.546875 -1.078125 C 0.347656 -1.429688 0.25 -1.832031 0.25 -2.28125 C 0.25 -2.726562 0.347656 -3.128906 0.546875 -3.484375 C 0.753906 -3.835938 1.035156 -4.113281 1.390625 -4.3125 C 1.753906 -4.507812 2.144531 -4.609375 2.5625 -4.609375 C 2.988281 -4.609375 3.378906 -4.507812 3.734375 -4.3125 C 4.097656 -4.113281 4.378906 -3.835938 4.578125 -3.484375 C 4.785156 -3.128906 4.890625 -2.726562 4.890625 -2.28125 C 4.890625 -1.832031 4.785156 -1.429688 4.578125 -1.078125 C 4.378906 -0.722656 4.097656 -0.445312 3.734375 -0.25 C 3.378906 -0.0507812 2.988281 0.046875 2.5625 0.046875 Z M 2.5625 -0.609375 C 2.863281 -0.609375 3.128906 -0.675781 3.359375 -0.8125 C 3.597656 -0.945312 3.785156 -1.140625 3.921875 -1.390625 C 4.054688 -1.648438 4.125 -1.945312 4.125 -2.28125 C 4.125 -2.613281 4.054688 -2.90625 3.921875 -3.15625 C 3.785156 -3.414062 3.597656 -3.613281 3.359375 -3.75 C 3.128906 -3.882812 2.863281 -3.953125 2.5625 -3.953125 C 2.257812 -3.953125 1.988281 -3.882812 1.75 -3.75 C 1.519531 -3.613281 1.335938 -3.414062 1.203125 -3.15625 C 1.078125 -2.90625 1.015625 -2.613281 1.015625 -2.28125 C 1.015625 -1.945312 1.078125 -1.648438 1.203125 -1.390625 C 1.335938 -1.140625 1.519531 -0.945312 1.75 -0.8125 C 1.988281 -0.675781 2.257812 -0.609375 2.5625 -0.609375 Z M 2.5625 -0.609375 "/></g></g></g><g fill="#ffffff" fill-opacity="1"><g transform="translate(58.21422, 7.225624)"><g><path d="M 3 0 L 1.234375 -2.03125 L 1.234375 0 L 0.484375 0 L 0.484375 -4.546875 L 1.234375 -4.546875 L 1.234375 -2.46875 L 3 -4.546875 L 3.9375 -4.546875 L 1.96875 -2.265625 L 3.96875 0 Z M 3 0 "/></g></g></g><g fill="#ffffff" fill-opacity="1"><g transform="translate(63.57895, 7.225624)"><g><path d="M 1.234375 -3.953125 L 1.234375 -2.609375 L 2.8125 -2.609375 L 2.8125 -2 L 1.234375 -2 L 1.234375 -0.609375 L 3 -0.609375 L 3 0 L 0.484375 0 L 0.484375 -4.5625 L 3 -4.5625 L 3 -3.953125 Z M 1.234375 -3.953125 "/></g></g></g><g fill="#ffffff" fill-opacity="1"><g transform="translate(68.230559, 7.225624)"><g><path d="M 2.859375 0 L 1.8125 -1.8125 L 1.234375 -1.8125 L 1.234375 0 L 0.484375 0 L 0.484375 -4.546875 L 2.0625 -4.546875 C 2.414062 -4.546875 2.710938 -4.484375 2.953125 -4.359375 C 3.191406 -4.242188 3.367188 -4.082031 3.484375 -3.875 C 3.609375 -3.664062 3.671875 -3.4375 3.671875 -3.1875 C 3.671875 -2.894531 3.582031 -2.625 3.40625 -2.375 C 3.238281 -2.132812 2.976562 -1.972656 2.625 -1.890625 L 3.75 0 Z M 1.234375 -2.421875 L 2.0625 -2.421875 C 2.34375 -2.421875 2.550781 -2.488281 2.6875 -2.625 C 2.832031 -2.757812 2.90625 -2.945312 2.90625 -3.1875 C 2.90625 -3.425781 2.832031 -3.609375 2.6875 -3.734375 C 2.550781 -3.867188 2.34375 -3.9375 2.0625 -3.9375 L 1.234375 -3.9375 Z M 1.234375 -2.421875 "/></g></g></g><g fill="#ffffff" fill-opacity="1"><g transform="translate(73.588751, 7.225624)"><g><path d="M 1.984375 0.046875 C 1.679688 0.046875 1.40625 -0.00390625 1.15625 -0.109375 C 0.914062 -0.222656 0.722656 -0.375 0.578125 -0.5625 C 0.441406 -0.757812 0.375 -0.988281 0.375 -1.25 L 1.171875 -1.25 C 1.191406 -1.0625 1.269531 -0.898438 1.40625 -0.765625 C 1.539062 -0.640625 1.734375 -0.578125 1.984375 -0.578125 C 2.242188 -0.578125 2.445312 -0.640625 2.59375 -0.765625 C 2.738281 -0.890625 2.8125 -1.050781 2.8125 -1.25 C 2.8125 -1.40625 2.765625 -1.53125 2.671875 -1.625 C 2.585938 -1.71875 2.476562 -1.789062 2.34375 -1.84375 C 2.207031 -1.894531 2.019531 -1.953125 1.78125 -2.015625 C 1.488281 -2.097656 1.25 -2.175781 1.0625 -2.25 C 0.875 -2.332031 0.710938 -2.457031 0.578125 -2.625 C 0.453125 -2.800781 0.390625 -3.03125 0.390625 -3.3125 C 0.390625 -3.570312 0.453125 -3.800781 0.578125 -4 C 0.710938 -4.195312 0.898438 -4.347656 1.140625 -4.453125 C 1.378906 -4.554688 1.648438 -4.609375 1.953125 -4.609375 C 2.398438 -4.609375 2.765625 -4.5 3.046875 -4.28125 C 3.328125 -4.0625 3.484375 -3.757812 3.515625 -3.375 L 2.6875 -3.375 C 2.675781 -3.539062 2.597656 -3.679688 2.453125 -3.796875 C 2.304688 -3.910156 2.113281 -3.96875 1.875 -3.96875 C 1.664062 -3.96875 1.492188 -3.910156 1.359375 -3.796875 C 1.222656 -3.691406 1.15625 -3.539062 1.15625 -3.34375 C 1.15625 -3.195312 1.195312 -3.078125 1.28125 -2.984375 C 1.363281 -2.898438 1.46875 -2.832031 1.59375 -2.78125 C 1.726562 -2.726562 1.910156 -2.671875 2.140625 -2.609375 C 2.441406 -2.523438 2.6875 -2.441406 2.875 -2.359375 C 3.0625 -2.273438 3.222656 -2.144531 3.359375 -1.96875 C 3.492188 -1.800781 3.5625 -1.578125 3.5625 -1.296875 C 3.5625 -1.054688 3.5 -0.832031 3.375 -0.625 C 3.25 -0.425781 3.066406 -0.265625 2.828125 -0.140625 C 2.585938 -0.015625 2.304688 0.046875 1.984375 0.046875 Z M 1.984375 0.046875 "/></g></g></g></g></g><path stroke-linecap="round" transform="matrix(0, 0.742924, -0.742924, 0, 22.531223, 9.895987)" fill="none" stroke-linejoin="miter" d="M 0.497544 0.499467 L 42.876516 0.499467 " stroke="#ffffff" stroke-width="1" stroke-opacity="1" stroke-miterlimit="4"/><g clip-path="url(#e63b646e7f)"><path fill="#ffffff" d="M 12.199219 36.925781 C 12.378906 36.960938 12.566406 36.988281 12.753906 37.019531 L 12.753906 40.566406 C 12.566406 40.554688 12.382812 40.542969 12.199219 40.523438 C 12.074219 40.511719 11.945312 40.5 11.824219 40.484375 L 11.824219 36.847656 C 11.945312 36.878906 12.070312 36.902344 12.199219 36.925781 Z M 12.199219 36.925781 " fill-opacity="1" fill-rule="nonzero"/></g><path fill="#ffffff" d="M 12.746094 21.058594 L 12.746094 36.324219 C 12.636719 36.300781 12.523438 36.277344 12.417969 36.253906 C 12.34375 36.238281 12.269531 36.21875 12.199219 36.203125 C 12.144531 36.191406 12.097656 36.179688 12.050781 36.167969 C 11.976562 36.148438 11.902344 36.125 11.832031 36.109375 L 11.832031 21.058594 Z M 12.746094 21.058594 " fill-opacity="1" fill-rule="nonzero"/><g clip-path="url(#3a54341bdc)"><path fill="#ffffff" d="M 16.328125 38.832031 C 16.328125 39.128906 16.257812 39.429688 16.113281 39.691406 C 15.882812 40.105469 15.464844 40.417969 14.851562 40.496094 C 14.414062 40.546875 13.972656 40.578125 13.515625 40.582031 C 13.503906 40.582031 13.5 40.582031 13.488281 40.582031 L 13.488281 37.101562 C 13.820312 37.128906 14.152344 37.140625 14.492188 37.140625 C 14.539062 37.140625 14.582031 37.140625 14.636719 37.140625 C 15.746094 37.128906 16.328125 37.980469 16.328125 38.832031 Z M 16.328125 38.832031 " fill-opacity="1" fill-rule="nonzero"/></g><path fill="#ffffff" d="M 16.703125 15.3125 L 16.703125 15.9375 L 16.328125 15.9375 L 16.328125 36.90625 C 16.054688 36.679688 15.6875 36.535156 15.226562 36.539062 C 15.179688 36.539062 15.132812 36.539062 15.078125 36.539062 C 14.742188 36.539062 14.410156 36.527344 14.078125 36.5 C 13.878906 36.480469 13.679688 36.464844 13.480469 36.433594 L 13.480469 20.691406 C 13.480469 20.484375 13.3125 20.316406 13.109375 20.316406 L 12.1875 20.316406 L 12.1875 15.953125 L 11.8125 15.953125 L 11.8125 15.3125 Z M 16.703125 15.3125 " fill-opacity="1" fill-rule="nonzero"/><g clip-path="url(#f445ee062b)"><path fill="#ffffff" d="M 16.703125 14.945312 L 11.824219 14.945312 C 11.621094 14.945312 11.453125 15.113281 11.453125 15.316406 L 11.453125 15.960938 L 12.199219 15.960938 L 12.199219 15.691406 L 16.332031 15.691406 L 16.332031 15.941406 L 17.082031 15.941406 L 17.082031 15.3125 C 17.074219 15.109375 16.90625 14.945312 16.703125 14.945312 Z M 11.453125 21.058594 L 11.453125 35.996094 C 11.574219 36.03125 11.695312 36.074219 11.824219 36.109375 C 11.902344 36.132812 11.96875 36.148438 12.046875 36.167969 C 12.09375 36.179688 12.144531 36.191406 12.191406 36.203125 L 12.191406 21.058594 Z M 11.824219 36.847656 C 11.703125 36.820312 11.574219 36.792969 11.453125 36.761719 L 11.453125 40.429688 C 11.574219 40.449219 11.695312 40.464844 11.824219 40.484375 C 11.945312 40.5 12.070312 40.511719 12.199219 40.523438 L 12.199219 36.925781 C 12.070312 36.902344 11.945312 36.878906 11.824219 36.847656 Z M 11.824219 36.847656 " fill-opacity="1" fill-rule="nonzero"/></g><g clip-path="url(#f98342aba8)"><path fill="#ffffff" d="M 12.199219 36.925781 C 12.378906 36.960938 12.566406 36.988281 12.753906 37.019531 L 12.753906 40.566406 C 12.566406 40.554688 12.382812 40.542969 12.199219 40.523438 C 12.074219 40.511719 11.945312 40.5 11.824219 40.484375 C 11.703125 40.464844 11.574219 40.449219 11.453125 40.429688 C 10.925781 40.347656 10.40625 40.234375 9.90625 40.082031 L 9.90625 36.253906 C 10.40625 36.457031 10.921875 36.628906 11.453125 36.761719 C 11.574219 36.792969 11.695312 36.824219 11.824219 36.847656 C 11.945312 36.878906 12.070312 36.902344 12.199219 36.925781 Z M 12.199219 36.925781 " fill-opacity="1" fill-rule="nonzero"/></g><path fill="#ffffff" d="M 12.746094 21.058594 L 12.746094 36.324219 C 12.636719 36.300781 12.523438 36.277344 12.417969 36.253906 C 12.34375 36.238281 12.269531 36.21875 12.199219 36.203125 C 12.144531 36.191406 12.097656 36.179688 12.050781 36.167969 C 11.976562 36.148438 11.902344 36.125 11.832031 36.109375 C 11.707031 36.074219 11.578125 36.039062 11.457031 35.996094 C 11.136719 35.898438 10.816406 35.78125 10.507812 35.660156 C 10.308594 35.578125 10.109375 35.488281 9.910156 35.402344 L 9.910156 25.515625 C 9.910156 25.3125 9.746094 25.140625 9.539062 25.140625 L 8.617188 25.140625 L 8.617188 21.058594 Z M 12.746094 21.058594 " fill-opacity="1" fill-rule="nonzero"/><path fill="#ffffff" d="M 8.609375 35.640625 C 8.792969 35.742188 8.976562 35.835938 9.164062 35.925781 L 9.164062 39.835938 C 8.976562 39.765625 8.796875 39.695312 8.609375 39.621094 C 8.488281 39.566406 8.359375 39.515625 8.238281 39.457031 L 8.238281 35.433594 C 8.367188 35.5 8.488281 35.570312 8.609375 35.640625 Z M 8.609375 35.640625 " fill-opacity="1" fill-rule="nonzero"/><path fill="#ffffff" d="M 9.164062 25.886719 L 9.164062 35.023438 C 9.054688 34.964844 8.941406 34.902344 8.835938 34.835938 C 8.761719 34.789062 8.6875 34.75 8.617188 34.703125 C 8.5625 34.671875 8.515625 34.636719 8.46875 34.609375 C 8.394531 34.5625 8.320312 34.511719 8.25 34.464844 L 8.25 25.886719 Z M 9.164062 25.886719 " fill-opacity="1" fill-rule="nonzero"/><path fill="#ffffff" d="M 7.871094 25.886719 L 7.871094 34.199219 C 7.992188 34.289062 8.113281 34.375 8.242188 34.464844 C 8.320312 34.515625 8.386719 34.5625 8.464844 34.609375 C 8.511719 34.636719 8.5625 34.671875 8.609375 34.703125 L 8.609375 25.886719 Z M 8.242188 35.433594 C 8.121094 35.355469 7.992188 35.28125 7.871094 35.203125 L 7.871094 39.277344 C 7.992188 39.339844 8.113281 39.398438 8.242188 39.457031 C 8.367188 39.515625 8.488281 39.566406 8.617188 39.621094 L 8.617188 35.640625 C 8.488281 35.570312 8.367188 35.5 8.242188 35.433594 Z M 8.242188 35.433594 " fill-opacity="1" fill-rule="nonzero"/><path fill="#ffffff" d="M 8.609375 35.640625 C 8.792969 35.742188 8.976562 35.835938 9.164062 35.925781 L 9.164062 39.835938 C 8.976562 39.765625 8.796875 39.695312 8.609375 39.621094 C 8.488281 39.566406 8.359375 39.515625 8.238281 39.457031 C 8.113281 39.398438 7.984375 39.339844 7.863281 39.277344 C 6.824219 38.75 5.867188 38.085938 5.023438 37.296875 L 5.023438 32.683594 C 5.832031 33.664062 6.789062 34.515625 7.863281 35.203125 C 7.984375 35.28125 8.109375 35.363281 8.238281 35.433594 C 8.367188 35.5 8.488281 35.570312 8.609375 35.640625 Z M 8.609375 35.640625 " fill-opacity="1" fill-rule="nonzero"/><path fill="#ffffff" d="M 9.164062 25.886719 L 9.164062 35.023438 C 9.054688 34.964844 8.941406 34.902344 8.835938 34.835938 C 8.761719 34.789062 8.6875 34.75 8.617188 34.703125 C 8.5625 34.671875 8.515625 34.636719 8.46875 34.609375 C 8.394531 34.5625 8.320312 34.511719 8.25 34.464844 C 8.121094 34.375 7.996094 34.292969 7.875 34.199219 C 7.042969 33.59375 6.289062 32.882812 5.628906 32.082031 C 5.417969 31.832031 5.222656 31.570312 5.035156 31.300781 L 5.035156 25.886719 Z M 9.164062 25.886719 " fill-opacity="1" fill-rule="nonzero"/><g clip-path="url(#3402754c89)"><path fill="#ffffff" d="M 9.058594 15.964844 L 11.453125 15.953125 L 12.199219 15.953125 L 16.328125 15.9375 L 17.074219 15.9375 L 19.496094 15.929688 L 14.261719 11.414062 Z M 9.058594 15.964844 " fill-opacity="1" fill-rule="nonzero"/></g><g clip-path="url(#92c3442408)"><path fill="#ffffff" d="M 16.328125 38.832031 C 16.328125 39.128906 16.257812 39.429688 16.113281 39.691406 C 15.882812 40.105469 15.464844 40.417969 14.851562 40.496094 C 14.414062 40.546875 13.972656 40.578125 13.515625 40.582031 C 13.503906 40.582031 13.5 40.582031 13.488281 40.582031 C 13.234375 40.582031 12.992188 40.582031 12.746094 40.566406 C 12.558594 40.554688 12.378906 40.542969 12.191406 40.523438 C 12.070312 40.511719 11.941406 40.5 11.820312 40.484375 C 11.695312 40.464844 11.566406 40.449219 11.445312 40.429688 C 10.921875 40.347656 10.402344 40.234375 9.898438 40.082031 C 9.648438 40.003906 9.402344 39.921875 9.160156 39.835938 C 8.972656 39.765625 8.792969 39.695312 8.605469 39.621094 C 8.480469 39.566406 8.355469 39.515625 8.230469 39.457031 C 8.109375 39.398438 7.980469 39.339844 7.859375 39.277344 C 6.820312 38.75 5.863281 38.085938 5.015625 37.296875 C 2.644531 35.074219 1.132812 31.914062 1.109375 28.402344 C 1.097656 26.402344 1.5625 24.511719 2.398438 22.835938 C 2.328125 23.246094 2.28125 23.652344 2.25 24.074219 C 2.234375 24.335938 2.226562 24.605469 2.226562 24.878906 C 2.226562 27.84375 3.277344 30.5625 5.027344 32.679688 C 5.839844 33.660156 6.796875 34.511719 7.871094 35.199219 C 7.992188 35.273438 8.113281 35.355469 8.242188 35.425781 C 8.367188 35.496094 8.488281 35.570312 8.617188 35.636719 C 8.796875 35.734375 8.984375 35.828125 9.171875 35.921875 C 9.414062 36.039062 9.660156 36.148438 9.910156 36.25 C 10.414062 36.453125 10.925781 36.621094 11.457031 36.757812 C 11.578125 36.785156 11.703125 36.820312 11.832031 36.84375 C 11.953125 36.871094 12.074219 36.894531 12.203125 36.917969 C 12.382812 36.953125 12.570312 36.984375 12.757812 37.011719 C 13.003906 37.046875 13.246094 37.078125 13.5 37.09375 C 13.832031 37.125 14.164062 37.136719 14.503906 37.136719 C 14.550781 37.136719 14.59375 37.136719 14.648438 37.136719 C 15.746094 37.128906 16.328125 37.980469 16.328125 38.832031 Z M 16.328125 38.832031 " fill-opacity="1" fill-rule="nonzero"/></g></svg>