<svg xmlns="http://www.w3.org/2000/svg" xmlns:xlink="http://www.w3.org/1999/xlink" width="170" zoomAndPan="magnify" viewBox="0 0 127.5 37.5" height="50" preserveAspectRatio="xMidYMid meet" version="1.0"><defs><clipPath id="3061aeeaee"><path d="M 111 13.097656 L 119.808594 13.097656 L 119.808594 22 L 111 22 Z M 111 13.097656 " clip-rule="nonzero"/></clipPath><clipPath id="820b8d1a76"><path d="M 109.972656 14.945312 L 115.621094 9.726562 L 123.449219 18.195312 L 117.800781 23.414062 Z M 109.972656 14.945312 " clip-rule="nonzero"/></clipPath><clipPath id="818226f045"><path d="M 109.972656 14.945312 L 115.621094 9.726562 L 123.449219 18.195312 L 117.800781 23.414062 Z M 109.972656 14.945312 " clip-rule="nonzero"/></clipPath><clipPath id="40f35bcb01"><path d="M 115 10 L 123.78125 10 L 123.78125 18 L 115 18 Z M 115 10 " clip-rule="nonzero"/></clipPath><clipPath id="5221b8c000"><path d="M 113.988281 11.234375 L 119.632812 6.015625 L 127.460938 14.488281 L 121.8125 19.703125 Z M 113.988281 11.234375 " clip-rule="nonzero"/></clipPath><clipPath id="e777be9529"><path d="M 113.988281 11.234375 L 119.632812 6.015625 L 127.460938 14.488281 L 121.8125 19.703125 Z M 113.988281 11.234375 " clip-rule="nonzero"/></clipPath></defs><g clip-path="url(#3061aeeaee)"><g clip-path="url(#820b8d1a76)"><g clip-path="url(#818226f045)"><path fill="#ffffff" d="M 119.449219 14.023438 L 112.675781 13.71875 C 111.367188 13.660156 111.144531 16.210938 112.695312 16.253906 L 116.914062 16.367188 L 116.589844 20.609375 C 116.488281 21.902344 119.011719 22.035156 119.082031 20.722656 Z M 119.449219 14.023438 " fill-opacity="1" fill-rule="nonzero"/></g></g></g><g clip-path="url(#40f35bcb01)"><g clip-path="url(#5221b8c000)"><g clip-path="url(#e777be9529)"><path fill="#ffffff" d="M 123.464844 10.3125 L 116.6875 10.011719 C 115.378906 9.953125 115.160156 12.5 116.707031 12.542969 L 120.925781 12.660156 L 120.601562 16.902344 C 120.503906 18.195312 123.023438 18.332031 123.09375 17.019531 Z M 123.464844 10.3125 " fill-opacity="1" fill-rule="nonzero"/></g></g></g><path fill="#ffffff" d="M 13.425781 14.988281 C 13.785156 14.988281 14.0625 15.089844 14.25 15.28125 C 14.433594 15.480469 14.527344 15.703125 14.527344 15.949219 C 14.527344 16.179688 14.433594 16.398438 14.25 16.601562 C 14.0625 16.800781 13.785156 16.898438 13.425781 16.898438 L 9.964844 16.898438 L 9.996094 25.839844 C 9.996094 26.171875 9.871094 26.421875 9.621094 26.582031 C 9.382812 26.738281 9.140625 26.816406 8.894531 26.816406 C 8.632812 26.816406 8.390625 26.738281 8.164062 26.582031 C 7.933594 26.421875 7.820312 26.171875 7.820312 25.839844 L 7.820312 16.898438 L 4.375 16.898438 C 4.011719 16.898438 3.75 16.800781 3.585938 16.601562 C 3.421875 16.398438 3.335938 16.179688 3.335938 15.949219 C 3.335938 15.703125 3.421875 15.480469 3.585938 15.28125 C 3.75 15.089844 4.011719 14.988281 4.375 14.988281 Z M 13.425781 14.988281 " fill-opacity="1" fill-rule="nonzero"/><path fill="#ffffff" d="M 20.191406 17.175781 C 21.058594 17.175781 21.792969 17.371094 22.394531 17.75 C 23.003906 18.125 23.46875 18.648438 23.789062 19.320312 C 24.121094 19.984375 24.289062 20.757812 24.289062 21.648438 L 24.289062 25.855469 C 24.289062 26.132812 24.195312 26.367188 24.007812 26.550781 C 23.828125 26.730469 23.566406 26.816406 23.214844 26.816406 C 22.90625 26.816406 22.648438 26.730469 22.457031 26.550781 C 22.257812 26.367188 22.160156 26.132812 22.160156 25.855469 L 22.160156 21.617188 C 22.160156 20.851562 21.976562 20.230469 21.601562 19.753906 C 21.238281 19.269531 20.671875 19.023438 19.894531 19.023438 C 19.652344 19.023438 19.375 19.082031 19.054688 19.195312 C 18.746094 19.300781 18.4375 19.46875 18.140625 19.707031 C 17.847656 19.9375 17.605469 20.234375 17.410156 20.605469 C 17.214844 20.980469 17.117188 21.441406 17.117188 21.988281 L 17.117188 25.855469 C 17.117188 26.132812 17.023438 26.367188 16.835938 26.550781 C 16.65625 26.730469 16.402344 26.816406 16.058594 26.816406 C 15.726562 26.816406 15.460938 26.730469 15.269531 26.550781 C 15.070312 26.367188 14.972656 26.132812 14.972656 25.855469 L 14.972656 15.6875 C 14.972656 15.398438 15.085938 15.183594 15.316406 15.035156 C 15.539062 14.878906 15.785156 14.800781 16.042969 14.800781 C 16.324219 14.800781 16.574219 14.878906 16.789062 15.035156 C 17.007812 15.183594 17.117188 15.398438 17.117188 15.6875 L 17.117188 18.21875 C 17.621094 17.78125 18.144531 17.503906 18.683594 17.378906 C 19.230469 17.246094 19.730469 17.175781 20.191406 17.175781 Z M 20.191406 17.175781 " fill-opacity="1" fill-rule="nonzero"/><path fill="#ffffff" d="M 30.632812 25.15625 C 30.992188 25.15625 31.347656 25.109375 31.6875 25.015625 C 32.039062 24.914062 32.363281 24.75 32.667969 24.519531 C 32.945312 24.25 33.21875 24.128906 33.488281 24.148438 C 33.769531 24.167969 33.992188 24.269531 34.171875 24.457031 C 34.359375 24.636719 34.453125 24.855469 34.453125 25.125 C 34.453125 25.382812 34.320312 25.636719 34.0625 25.886719 C 33.628906 26.3125 33.109375 26.605469 32.511719 26.769531 C 31.921875 26.933594 31.316406 27.011719 30.695312 27.003906 C 29.730469 27.003906 28.878906 26.808594 28.132812 26.414062 C 27.394531 26.007812 26.820312 25.457031 26.410156 24.753906 C 25.996094 24.050781 25.789062 23.230469 25.789062 22.300781 C 25.789062 21.285156 25.984375 20.398438 26.378906 19.628906 C 26.78125 18.863281 27.347656 18.261719 28.070312 17.828125 C 28.792969 17.394531 29.648438 17.175781 30.632812 17.175781 C 31.625 17.175781 32.46875 17.378906 33.164062 17.78125 C 33.855469 18.1875 34.382812 18.753906 34.746094 19.472656 C 35.117188 20.199219 35.304688 21.042969 35.304688 22.003906 C 35.304688 22.316406 35.242188 22.578125 35.117188 22.796875 C 34.996094 23.011719 34.660156 23.121094 34.125 23.121094 L 27.949219 23.121094 C 28.121094 23.722656 28.449219 24.214844 28.925781 24.597656 C 29.410156 24.96875 29.980469 25.15625 30.632812 25.15625 Z M 30.664062 19.007812 C 29.9375 19.007812 29.332031 19.238281 28.847656 19.691406 C 28.371094 20.148438 28.0625 20.738281 27.933594 21.460938 L 33.332031 21.460938 C 33.273438 20.738281 33.027344 20.148438 32.605469 19.691406 C 32.1875 19.238281 31.539062 19.007812 30.664062 19.007812 Z M 30.664062 19.007812 " fill-opacity="1" fill-rule="nonzero"/><path fill="#ffffff" d="M 36.246094 24.007812 C 36.160156 23.65625 36.25 23.378906 36.511719 23.167969 C 36.765625 22.953125 37.058594 22.84375 37.378906 22.84375 C 37.628906 22.84375 37.84375 22.90625 38.03125 23.027344 C 38.226562 23.144531 38.351562 23.324219 38.402344 23.570312 C 38.535156 23.96875 38.792969 24.269531 39.164062 24.488281 C 39.542969 24.707031 39.972656 24.855469 40.4375 24.9375 C 40.910156 25.011719 41.355469 25.046875 41.773438 25.046875 C 42.089844 25.046875 42.445312 25.027344 42.828125 24.984375 C 43.207031 24.933594 43.574219 24.84375 43.914062 24.722656 C 44.265625 24.589844 44.550781 24.402344 44.769531 24.164062 C 44.992188 23.925781 45.109375 23.617188 45.109375 23.246094 C 45.109375 22.855469 44.941406 22.5625 44.613281 22.378906 C 44.292969 22.191406 43.875 22.058594 43.371094 21.972656 C 42.863281 21.890625 42.332031 21.832031 41.773438 21.800781 C 41.140625 21.753906 40.503906 21.679688 39.863281 21.585938 C 39.230469 21.484375 38.652344 21.320312 38.125 21.105469 C 37.597656 20.878906 37.167969 20.554688 36.851562 20.125 C 36.53125 19.691406 36.371094 19.125 36.371094 18.417969 C 36.371094 17.789062 36.53125 17.246094 36.851562 16.789062 C 37.167969 16.324219 37.589844 15.945312 38.109375 15.65625 C 38.625 15.367188 39.1875 15.15625 39.800781 15.019531 C 40.410156 14.875 41.003906 14.800781 41.585938 14.800781 C 42.226562 14.800781 42.898438 14.875 43.605469 15.019531 C 44.316406 15.167969 44.960938 15.429688 45.542969 15.8125 C 46.132812 16.183594 46.574219 16.710938 46.863281 17.394531 C 46.957031 17.746094 46.882812 18.039062 46.648438 18.261719 C 46.40625 18.492188 46.125 18.605469 45.808594 18.605469 C 45.597656 18.605469 45.410156 18.558594 45.234375 18.464844 C 45.054688 18.371094 44.929688 18.242188 44.863281 18.078125 C 44.707031 17.695312 44.441406 17.410156 44.070312 17.222656 C 43.699219 17.039062 43.285156 16.921875 42.84375 16.867188 C 42.398438 16.816406 41.980469 16.789062 41.601562 16.789062 C 41.351562 16.789062 41.058594 16.816406 40.71875 16.867188 C 40.375 16.910156 40.042969 16.992188 39.722656 17.113281 C 39.402344 17.238281 39.132812 17.410156 38.917969 17.628906 C 38.699219 17.84375 38.589844 18.117188 38.589844 18.433594 C 38.589844 18.828125 38.746094 19.128906 39.054688 19.335938 C 39.367188 19.53125 39.773438 19.667969 40.28125 19.738281 C 40.796875 19.8125 41.359375 19.875 41.972656 19.925781 C 42.613281 19.988281 43.253906 20.058594 43.898438 20.140625 C 44.539062 20.214844 45.117188 20.355469 45.636719 20.5625 C 46.152344 20.769531 46.570312 21.082031 46.878906 21.492188 C 47.191406 21.90625 47.34375 22.484375 47.34375 23.230469 C 47.34375 23.976562 47.167969 24.59375 46.816406 25.078125 C 46.464844 25.554688 46.003906 25.941406 45.4375 26.226562 C 44.867188 26.507812 44.257812 26.703125 43.605469 26.816406 C 42.960938 26.941406 42.351562 27.003906 41.773438 27.003906 C 41.285156 27.003906 40.753906 26.957031 40.1875 26.863281 C 39.617188 26.769531 39.0625 26.609375 38.527344 26.382812 C 37.988281 26.15625 37.511719 25.851562 37.101562 25.464844 C 36.695312 25.085938 36.410156 24.597656 36.246094 24.007812 Z M 36.246094 24.007812 " fill-opacity="1" fill-rule="nonzero"/><path fill="#ffffff" d="M 52.730469 25.15625 C 53.09375 25.15625 53.445312 25.109375 53.785156 25.015625 C 54.136719 24.914062 54.460938 24.75 54.765625 24.519531 C 55.042969 24.25 55.316406 24.128906 55.585938 24.148438 C 55.867188 24.167969 56.089844 24.269531 56.269531 24.457031 C 56.457031 24.636719 56.550781 24.855469 56.550781 25.125 C 56.550781 25.382812 56.417969 25.636719 56.160156 25.886719 C 55.726562 26.3125 55.207031 26.605469 54.609375 26.769531 C 54.019531 26.933594 53.414062 27.011719 52.792969 27.003906 C 51.832031 27.003906 50.976562 26.808594 50.230469 26.414062 C 49.496094 26.007812 48.921875 25.457031 48.507812 24.753906 C 48.09375 24.050781 47.886719 23.230469 47.886719 22.300781 C 47.886719 21.285156 48.082031 20.398438 48.476562 19.628906 C 48.882812 18.863281 49.445312 18.261719 50.167969 17.828125 C 50.890625 17.394531 51.746094 17.175781 52.730469 17.175781 C 53.722656 17.175781 54.566406 17.378906 55.261719 17.78125 C 55.953125 18.1875 56.480469 18.753906 56.84375 19.472656 C 57.21875 20.199219 57.402344 21.042969 57.402344 22.003906 C 57.402344 22.316406 57.339844 22.578125 57.21875 22.796875 C 57.09375 23.011719 56.757812 23.121094 56.222656 23.121094 L 50.046875 23.121094 C 50.21875 23.722656 50.546875 24.214844 51.023438 24.597656 C 51.507812 24.96875 52.078125 25.15625 52.730469 25.15625 Z M 52.761719 19.007812 C 52.035156 19.007812 51.429688 19.238281 50.945312 19.691406 C 50.46875 20.148438 50.160156 20.738281 50.03125 21.460938 L 55.433594 21.460938 C 55.371094 20.738281 55.125 20.148438 54.703125 19.691406 C 54.289062 19.238281 53.640625 19.007812 52.761719 19.007812 Z M 52.761719 19.007812 " fill-opacity="1" fill-rule="nonzero"/><path fill="#ffffff" d="M 63.328125 25.046875 C 63.613281 24.890625 63.875 24.839844 64.105469 24.890625 C 64.328125 24.933594 64.515625 25.042969 64.664062 25.21875 C 64.804688 25.382812 64.878906 25.574219 64.878906 25.792969 C 64.878906 25.957031 64.824219 26.125 64.722656 26.289062 C 64.621094 26.445312 64.464844 26.578125 64.257812 26.691406 C 63.988281 26.835938 63.738281 26.925781 63.511719 26.957031 C 63.296875 26.988281 63.035156 27.003906 62.738281 27.003906 C 61.929688 27.003906 61.308594 26.835938 60.875 26.507812 C 60.441406 26.164062 60.136719 25.730469 59.972656 25.203125 C 59.820312 24.667969 59.742188 24.101562 59.742188 23.511719 L 59.742188 19.117188 L 59.042969 19.117188 C 58.691406 19.117188 58.429688 19.03125 58.265625 18.851562 C 58.105469 18.667969 58.019531 18.464844 58.019531 18.246094 C 58.019531 18.03125 58.105469 17.828125 58.265625 17.640625 C 58.441406 17.457031 58.703125 17.363281 59.042969 17.363281 L 59.742188 17.363281 L 59.742188 15.765625 C 59.742188 15.445312 59.84375 15.207031 60.050781 15.050781 C 60.269531 14.886719 60.511719 14.800781 60.78125 14.800781 C 61.039062 14.800781 61.277344 14.886719 61.496094 15.050781 C 61.722656 15.207031 61.835938 15.445312 61.835938 15.765625 L 61.835938 17.363281 L 63.296875 17.363281 C 63.613281 17.363281 63.859375 17.457031 64.027344 17.640625 C 64.199219 17.828125 64.289062 18.03125 64.289062 18.246094 C 64.289062 18.476562 64.199219 18.679688 64.027344 18.851562 C 63.859375 19.03125 63.613281 19.117188 63.296875 19.117188 L 61.835938 19.117188 L 61.835938 23.511719 C 61.835938 23.78125 61.855469 24.046875 61.898438 24.300781 C 61.9375 24.550781 62.023438 24.761719 62.148438 24.9375 C 62.28125 25.105469 62.476562 25.1875 62.738281 25.1875 C 62.832031 25.1875 62.929688 25.171875 63.046875 25.140625 C 63.171875 25.109375 63.265625 25.078125 63.328125 25.046875 Z M 63.328125 25.046875 " fill-opacity="1" fill-rule="nonzero"/><path fill="#ffffff" d="M 73.796875 17.363281 C 74.117188 17.363281 74.375 17.464844 74.574219 17.65625 C 74.765625 17.855469 74.867188 18.105469 74.867188 18.402344 L 74.867188 25.871094 C 74.867188 26.179688 74.75 26.421875 74.527344 26.582031 C 74.296875 26.738281 74.0625 26.816406 73.8125 26.816406 C 73.539062 26.816406 73.300781 26.734375 73.082031 26.566406 C 72.867188 26.40625 72.757812 26.164062 72.757812 25.855469 L 72.757812 25.777344 C 72.25 26.273438 71.722656 26.605469 71.171875 26.769531 C 70.621094 26.925781 70.117188 27.003906 69.652344 27.003906 C 68.355469 27.003906 67.347656 26.597656 66.625 25.792969 C 65.910156 24.976562 65.554688 23.875 65.554688 22.484375 L 65.554688 18.402344 C 65.554688 18.117188 65.648438 17.871094 65.832031 17.671875 C 66.019531 17.46875 66.285156 17.363281 66.625 17.363281 C 66.945312 17.363281 67.199219 17.46875 67.386719 17.671875 C 67.582031 17.871094 67.679688 18.117188 67.679688 18.402344 L 67.679688 22.515625 C 67.679688 23.324219 67.859375 23.96875 68.222656 24.441406 C 68.597656 24.90625 69.175781 25.140625 69.960938 25.140625 C 70.199219 25.140625 70.476562 25.078125 70.785156 24.953125 C 71.105469 24.820312 71.410156 24.625 71.703125 24.363281 C 72 24.109375 72.25 23.773438 72.445312 23.371094 C 72.652344 22.96875 72.757812 22.492188 72.757812 21.941406 L 72.757812 18.402344 C 72.757812 18.105469 72.839844 17.855469 73.003906 17.65625 C 73.179688 17.464844 73.445312 17.363281 73.796875 17.363281 Z M 73.796875 17.363281 " fill-opacity="1" fill-rule="nonzero"/><path fill="#ffffff" d="M 81.578125 17.175781 C 82.496094 17.175781 83.300781 17.378906 83.984375 17.78125 C 84.671875 18.1875 85.207031 18.753906 85.582031 19.472656 C 85.960938 20.199219 86.15625 21.039062 86.15625 21.988281 C 86.15625 22.980469 85.960938 23.859375 85.582031 24.613281 C 85.207031 25.367188 84.683594 25.957031 84.015625 26.382812 C 83.339844 26.796875 82.554688 27.003906 81.652344 27.003906 C 81.226562 27.003906 80.769531 26.929688 80.273438 26.785156 C 79.785156 26.628906 79.332031 26.421875 78.921875 26.148438 L 78.921875 28.988281 C 78.921875 29.300781 78.8125 29.53125 78.597656 29.6875 C 78.378906 29.851562 78.136719 29.9375 77.882812 29.9375 C 77.609375 29.9375 77.371094 29.851562 77.152344 29.6875 C 76.933594 29.53125 76.828125 29.300781 76.828125 28.988281 L 76.828125 18.308594 C 76.828125 18.011719 76.917969 17.777344 77.105469 17.613281 C 77.300781 17.449219 77.5625 17.363281 77.898438 17.363281 C 78.457031 17.363281 78.785156 17.582031 78.890625 18.015625 C 79.324219 17.703125 79.777344 17.488281 80.242188 17.363281 C 80.714844 17.238281 81.160156 17.175781 81.578125 17.175781 Z M 81.59375 25.125 C 82.324219 25.125 82.914062 24.839844 83.363281 24.269531 C 83.804688 23.691406 84.027344 22.9375 84.027344 22.003906 C 84.027344 21.128906 83.789062 20.417969 83.316406 19.878906 C 82.835938 19.332031 82.214844 19.054688 81.4375 19.054688 C 80.941406 19.054688 80.453125 19.1875 79.976562 19.441406 C 79.511719 19.691406 79.160156 20.046875 78.921875 20.515625 L 78.921875 23.601562 C 79.117188 24.09375 79.46875 24.46875 79.976562 24.738281 C 80.480469 24.996094 81.023438 25.125 81.59375 25.125 Z M 81.59375 25.125 " fill-opacity="1" fill-rule="nonzero"/><path fill="#ffffff" d="M 89.925781 23.527344 L 89.925781 25.871094 C 89.925781 26.191406 89.808594 26.429688 89.582031 26.582031 C 89.355469 26.738281 89.109375 26.816406 88.855469 26.816406 C 88.574219 26.816406 88.328125 26.738281 88.109375 26.582031 C 87.890625 26.429688 87.78125 26.195312 87.78125 25.886719 L 87.78125 15.949219 C 87.78125 15.664062 87.882812 15.429688 88.09375 15.253906 C 88.3125 15.078125 88.566406 14.988281 88.871094 14.988281 L 92.65625 14.988281 C 93.683594 14.988281 94.558594 15.171875 95.296875 15.53125 C 96.03125 15.894531 96.589844 16.402344 96.972656 17.050781 C 97.351562 17.703125 97.546875 18.472656 97.546875 19.351562 C 97.546875 20.601562 97.113281 21.613281 96.242188 22.378906 C 95.375 23.144531 94.15625 23.527344 92.59375 23.527344 Z M 89.925781 16.820312 L 89.925781 21.695312 L 92.59375 21.695312 C 93.515625 21.695312 94.214844 21.484375 94.691406 21.058594 C 95.175781 20.621094 95.421875 20.054688 95.421875 19.351562 C 95.421875 18.585938 95.179688 17.976562 94.707031 17.519531 C 94.230469 17.050781 93.550781 16.820312 92.671875 16.820312 Z M 89.925781 16.820312 " fill-opacity="1" fill-rule="nonzero"/><path fill="#ffffff" d="M 102.914062 17.363281 C 103.257812 17.363281 103.523438 17.4375 103.722656 17.582031 C 103.914062 17.714844 104.015625 17.945312 104.015625 18.261719 C 104.015625 18.566406 103.914062 18.804688 103.722656 18.976562 C 103.523438 19.15625 103.257812 19.242188 102.914062 19.242188 C 102.136719 19.242188 101.585938 19.519531 101.269531 20.078125 C 100.957031 20.628906 100.804688 21.382812 100.804688 22.347656 L 100.804688 25.871094 C 100.804688 26.140625 100.699219 26.367188 100.492188 26.550781 C 100.296875 26.730469 100.058594 26.816406 99.777344 26.816406 C 99.457031 26.816406 99.191406 26.730469 98.988281 26.550781 C 98.789062 26.367188 98.691406 26.140625 98.691406 25.871094 L 98.691406 18.308594 C 98.691406 18.011719 98.804688 17.777344 99.035156 17.613281 C 99.269531 17.449219 99.519531 17.363281 99.777344 17.363281 C 100.035156 17.363281 100.269531 17.449219 100.476562 17.613281 C 100.695312 17.765625 100.804688 18 100.804688 18.308594 L 100.804688 18.417969 C 101.070312 18.058594 101.382812 17.792969 101.734375 17.628906 C 102.09375 17.453125 102.488281 17.363281 102.914062 17.363281 Z M 102.914062 17.363281 " fill-opacity="1" fill-rule="nonzero"/><path fill="#ffffff" d="M 108.765625 17.175781 C 109.761719 17.175781 110.628906 17.386719 111.375 17.796875 C 112.121094 18.214844 112.695312 18.792969 113.097656 19.535156 C 113.507812 20.28125 113.71875 21.148438 113.71875 22.128906 C 113.707031 23.101562 113.488281 23.957031 113.066406 24.691406 C 112.652344 25.414062 112.078125 25.984375 111.34375 26.398438 C 110.605469 26.800781 109.75 27.003906 108.765625 27.003906 C 107.804688 27.003906 106.949219 26.800781 106.207031 26.398438 C 105.460938 25.984375 104.878906 25.414062 104.464844 24.691406 C 104.050781 23.957031 103.839844 23.101562 103.832031 22.128906 C 103.832031 21.148438 104.035156 20.28125 104.449219 19.535156 C 104.863281 18.792969 105.445312 18.214844 106.191406 17.796875 C 106.933594 17.386719 107.792969 17.175781 108.765625 17.175781 Z M 108.765625 25.140625 C 109.613281 25.140625 110.289062 24.867188 110.785156 24.316406 C 111.289062 23.757812 111.546875 23.027344 111.546875 22.128906 C 111.546875 21.21875 111.289062 20.476562 110.785156 19.894531 C 110.289062 19.316406 109.613281 19.023438 108.765625 19.023438 C 107.9375 19.023438 107.269531 19.316406 106.765625 19.894531 C 106.253906 20.476562 106.003906 21.21875 106.003906 22.128906 C 106.003906 23.027344 106.253906 23.757812 106.765625 24.316406 C 107.269531 24.867188 107.9375 25.140625 108.765625 25.140625 Z M 108.765625 25.140625 " fill-opacity="1" fill-rule="nonzero"/></svg>