<svg xmlns="http://www.w3.org/2000/svg" xmlns:xlink="http://www.w3.org/1999/xlink" width="170" zoomAndPan="magnify" viewBox="0 0 127.5 37.5" height="50" preserveAspectRatio="xMidYMid meet" version="1.0"><defs><g/><clipPath id="0091da7513"><path d="M 0.59375 8 L 33 8 L 33 27 L 0.59375 27 Z M 0.59375 8 " clip-rule="nonzero"/></clipPath><clipPath id="39c02b356d"><path d="M 15.253906 0.511719 L 27 0.511719 L 27 18.324219 L 15.253906 18.324219 Z M 15.253906 0.511719 " clip-rule="nonzero"/></clipPath><clipPath id="d8b90b83ce"><path d="M 17.808594 18.507812 C 17.453125 18.507812 17.074219 18.429688 16.714844 18.261719 C 15.449219 17.65625 14.902344 16.140625 15.507812 14.855469 L 21.566406 2.046875 C 22.171875 0.777344 23.683594 0.230469 24.96875 0.835938 C 26.234375 1.441406 26.78125 2.953125 26.175781 4.242188 L 20.113281 17.050781 C 19.679688 17.976562 18.753906 18.507812 17.808594 18.507812 Z M 17.808594 18.507812 " clip-rule="nonzero"/></clipPath><clipPath id="42d01c1f31"><path d="M 21 0.511719 L 32.382812 0.511719 L 32.382812 18.324219 L 21 18.324219 Z M 21 0.511719 " clip-rule="nonzero"/></clipPath><clipPath id="fdc2a08850"><path d="M 29.933594 18.507812 C 28.96875 18.507812 28.0625 17.957031 27.628906 17.050781 L 21.566406 4.242188 C 20.964844 2.972656 21.511719 1.441406 22.777344 0.835938 C 24.042969 0.230469 25.570312 0.777344 26.175781 2.046875 L 32.238281 14.855469 C 32.84375 16.121094 32.292969 17.65625 31.027344 18.261719 C 30.671875 18.429688 30.3125 18.507812 29.933594 18.507812 Z M 29.933594 18.507812 " clip-rule="nonzero"/></clipPath><clipPath id="128e5e89f5"><path d="M 6 0.703125 L 17.914062 0.703125 L 17.914062 18.519531 L 6 18.519531 Z M 6 0.703125 " clip-rule="nonzero"/></clipPath><clipPath id="89c0bc88df"><path d="M 15.359375 0.523438 C 15.71875 0.523438 16.09375 0.597656 16.453125 0.769531 C 17.71875 1.375 18.265625 2.886719 17.660156 4.171875 L 11.601562 16.980469 C 10.996094 18.25 9.484375 18.796875 8.199219 18.191406 C 6.9375 17.585938 6.386719 16.074219 6.992188 14.789062 L 13.054688 1.980469 C 13.488281 1.050781 14.414062 0.523438 15.359375 0.523438 Z M 15.359375 0.523438 " clip-rule="nonzero"/></clipPath><clipPath id="8b632a8f3f"><path d="M 0.785156 0.703125 L 12 0.703125 L 12 18.519531 L 0.785156 18.519531 Z M 0.785156 0.703125 " clip-rule="nonzero"/></clipPath><clipPath id="3cdd8f4c46"><path d="M 3.234375 0.523438 C 4.199219 0.523438 5.105469 1.070312 5.539062 1.980469 L 11.601562 14.789062 C 12.203125 16.054688 11.65625 17.585938 10.390625 18.191406 C 9.125 18.796875 7.597656 18.25 6.992188 16.980469 L 0.929688 4.171875 C 0.328125 2.90625 0.875 1.375 2.140625 0.769531 C 2.5 0.597656 2.855469 0.523438 3.234375 0.523438 Z M 3.234375 0.523438 " clip-rule="nonzero"/></clipPath><clipPath id="bb06f59538"><rect x="0" width="33" y="0" height="19"/></clipPath></defs><g clip-path="url(#0091da7513)"><g transform="matrix(1, 0, 0, 1, 0.000000000000000111, 8)"><g clip-path="url(#bb06f59538)"><path stroke-linecap="round" transform="matrix(0.685161, 0, 0, 0.685161, 19.257831, 11.523996)" fill="none" stroke-linejoin="miter" d="M 2.0011 2.000312 L 11.601948 2.000312 " stroke="#ffffff" stroke-width="4" stroke-opacity="1" stroke-miterlimit="4"/><g clip-path="url(#39c02b356d)"><g clip-path="url(#d8b90b83ce)"><path fill="#ffffff" d="M 15.253906 0.511719 L 15.253906 18.324219 L 26.78125 18.324219 L 26.78125 0.511719 Z M 15.253906 0.511719 " fill-opacity="1" fill-rule="nonzero"/></g></g><g clip-path="url(#42d01c1f31)"><g clip-path="url(#fdc2a08850)"><path fill="#ffffff" d="M 20.964844 0.511719 L 20.964844 18.324219 L 32.382812 18.324219 L 32.382812 0.511719 Z M 20.964844 0.511719 " fill-opacity="1" fill-rule="nonzero"/></g></g><g clip-path="url(#128e5e89f5)"><g clip-path="url(#89c0bc88df)"><path fill="#ffffff" d="M 17.914062 18.519531 L 17.914062 0.703125 L 6.386719 0.703125 L 6.386719 18.519531 Z M 17.914062 18.519531 " fill-opacity="1" fill-rule="nonzero"/></g></g><g clip-path="url(#8b632a8f3f)"><g clip-path="url(#3cdd8f4c46)"><path fill="#ffffff" d="M 12.203125 18.519531 L 12.203125 0.703125 L 0.785156 0.703125 L 0.785156 18.519531 Z M 12.203125 18.519531 " fill-opacity="1" fill-rule="nonzero"/></g></g></g></g></g><g fill="#ffffff" fill-opacity="1"><g transform="translate(35.202167, 24.950035)"><g><path d="M 3.8125 0.125 C 3.21875 0.125 2.679688 0.0507812 2.203125 -0.09375 C 1.734375 -0.238281 1.28125 -0.5 0.84375 -0.875 C 0.738281 -0.96875 0.65625 -1.070312 0.59375 -1.1875 C 0.53125 -1.3125 0.5 -1.429688 0.5 -1.546875 C 0.5 -1.742188 0.566406 -1.914062 0.703125 -2.0625 C 0.847656 -2.207031 1.03125 -2.28125 1.25 -2.28125 C 1.40625 -2.28125 1.546875 -2.226562 1.671875 -2.125 C 1.992188 -1.863281 2.3125 -1.664062 2.625 -1.53125 C 2.945312 -1.394531 3.34375 -1.328125 3.8125 -1.328125 C 4.125 -1.328125 4.410156 -1.375 4.671875 -1.46875 C 4.929688 -1.570312 5.140625 -1.707031 5.296875 -1.875 C 5.460938 -2.039062 5.546875 -2.226562 5.546875 -2.4375 C 5.546875 -2.6875 5.46875 -2.898438 5.3125 -3.078125 C 5.164062 -3.253906 4.9375 -3.40625 4.625 -3.53125 C 4.3125 -3.65625 3.910156 -3.75 3.421875 -3.8125 C 2.960938 -3.882812 2.5625 -3.988281 2.21875 -4.125 C 1.875 -4.269531 1.582031 -4.445312 1.34375 -4.65625 C 1.113281 -4.875 0.9375 -5.128906 0.8125 -5.421875 C 0.695312 -5.710938 0.640625 -6.039062 0.640625 -6.40625 C 0.640625 -6.957031 0.78125 -7.425781 1.0625 -7.8125 C 1.351562 -8.207031 1.738281 -8.503906 2.21875 -8.703125 C 2.695312 -8.910156 3.226562 -9.015625 3.8125 -9.015625 C 4.363281 -9.015625 4.875 -8.929688 5.34375 -8.765625 C 5.8125 -8.597656 6.195312 -8.382812 6.5 -8.125 C 6.738281 -7.9375 6.859375 -7.710938 6.859375 -7.453125 C 6.859375 -7.273438 6.785156 -7.109375 6.640625 -6.953125 C 6.503906 -6.796875 6.335938 -6.71875 6.140625 -6.71875 C 6.015625 -6.71875 5.898438 -6.757812 5.796875 -6.84375 C 5.660156 -6.957031 5.476562 -7.066406 5.25 -7.171875 C 5.019531 -7.273438 4.78125 -7.363281 4.53125 -7.4375 C 4.28125 -7.507812 4.039062 -7.546875 3.8125 -7.546875 C 3.445312 -7.546875 3.140625 -7.5 2.890625 -7.40625 C 2.648438 -7.3125 2.460938 -7.179688 2.328125 -7.015625 C 2.203125 -6.859375 2.140625 -6.675781 2.140625 -6.46875 C 2.140625 -6.21875 2.210938 -6.007812 2.359375 -5.84375 C 2.515625 -5.675781 2.726562 -5.539062 3 -5.4375 C 3.28125 -5.34375 3.617188 -5.257812 4.015625 -5.1875 C 4.515625 -5.09375 4.957031 -4.984375 5.34375 -4.859375 C 5.726562 -4.734375 6.046875 -4.570312 6.296875 -4.375 C 6.554688 -4.175781 6.75 -3.925781 6.875 -3.625 C 7 -3.320312 7.0625 -2.957031 7.0625 -2.53125 C 7.0625 -1.976562 6.910156 -1.5 6.609375 -1.09375 C 6.304688 -0.695312 5.90625 -0.394531 5.40625 -0.1875 C 4.914062 0.0195312 4.382812 0.125 3.8125 0.125 Z M 3.8125 0.125 "/></g></g></g><g fill="#ffffff" fill-opacity="1"><g transform="translate(42.870427, 24.950035)"><g><path d="M 3.953125 0 C 3.722656 0 3.53125 -0.0703125 3.375 -0.21875 C 3.21875 -0.363281 3.140625 -0.550781 3.140625 -0.78125 L 3.140625 -8.125 L 4.796875 -8.125 L 4.796875 -0.78125 C 4.796875 -0.550781 4.71875 -0.363281 4.5625 -0.21875 C 4.40625 -0.0703125 4.203125 0 3.953125 0 Z M 1.15625 -7.421875 C 0.9375 -7.421875 0.75 -7.488281 0.59375 -7.625 C 0.445312 -7.757812 0.375 -7.9375 0.375 -8.15625 C 0.375 -8.375 0.445312 -8.546875 0.59375 -8.671875 C 0.75 -8.804688 0.9375 -8.875 1.15625 -8.875 L 6.78125 -8.875 C 7.007812 -8.875 7.195312 -8.804688 7.34375 -8.671875 C 7.488281 -8.535156 7.5625 -8.359375 7.5625 -8.140625 C 7.5625 -7.921875 7.488281 -7.742188 7.34375 -7.609375 C 7.195312 -7.484375 7.007812 -7.421875 6.78125 -7.421875 Z M 1.15625 -7.421875 "/></g></g></g><g fill="#ffffff" fill-opacity="1"><g transform="translate(50.906257, 24.950035)"><g><path d="M 4.21875 -6.890625 L 1.46875 -0.4375 C 1.414062 -0.28125 1.328125 -0.15625 1.203125 -0.0625 C 1.078125 0.0195312 0.941406 0.0625 0.796875 0.0625 C 0.566406 0.0625 0.394531 0 0.28125 -0.125 C 0.175781 -0.25 0.125 -0.40625 0.125 -0.59375 C 0.125 -0.664062 0.140625 -0.75 0.171875 -0.84375 L 3.328125 -8.421875 C 3.390625 -8.585938 3.488281 -8.71875 3.625 -8.8125 C 3.769531 -8.90625 3.921875 -8.945312 4.078125 -8.9375 C 4.234375 -8.9375 4.375 -8.890625 4.5 -8.796875 C 4.632812 -8.710938 4.734375 -8.585938 4.796875 -8.421875 L 7.921875 -0.984375 C 7.960938 -0.878906 7.984375 -0.78125 7.984375 -0.6875 C 7.984375 -0.457031 7.90625 -0.273438 7.75 -0.140625 C 7.601562 -0.00390625 7.441406 0.0625 7.265625 0.0625 C 7.117188 0.0625 6.984375 0.015625 6.859375 -0.078125 C 6.734375 -0.171875 6.640625 -0.296875 6.578125 -0.453125 L 3.84375 -6.8125 Z M 1.859375 -1.984375 L 2.5625 -3.453125 L 5.984375 -3.453125 L 6.234375 -1.984375 Z M 1.859375 -1.984375 "/></g></g></g><g fill="#ffffff" fill-opacity="1"><g transform="translate(59.10686, 24.950035)"><g><path d="M 1.75 0 C 1.507812 0 1.316406 -0.0703125 1.171875 -0.21875 C 1.023438 -0.363281 0.953125 -0.550781 0.953125 -0.78125 L 0.953125 -8.109375 C 0.953125 -8.328125 1.023438 -8.507812 1.171875 -8.65625 C 1.316406 -8.800781 1.5 -8.875 1.71875 -8.875 L 5.84375 -8.875 C 6.0625 -8.875 6.242188 -8.804688 6.390625 -8.671875 C 6.546875 -8.535156 6.625 -8.351562 6.625 -8.125 C 6.625 -7.945312 6.546875 -7.785156 6.390625 -7.640625 C 6.242188 -7.492188 6.0625 -7.421875 5.84375 -7.421875 L 2.421875 -7.421875 L 2.53125 -7.578125 L 2.53125 -5.03125 L 2.453125 -5.1875 L 5.28125 -5.1875 C 5.5 -5.1875 5.679688 -5.113281 5.828125 -4.96875 C 5.972656 -4.832031 6.046875 -4.65625 6.046875 -4.4375 C 6.046875 -4.25 5.972656 -4.082031 5.828125 -3.9375 C 5.679688 -3.800781 5.5 -3.734375 5.28125 -3.734375 L 2.421875 -3.734375 L 2.53125 -3.84375 L 2.53125 -0.78125 C 2.53125 -0.550781 2.453125 -0.363281 2.296875 -0.21875 C 2.140625 -0.0703125 1.957031 0 1.75 0 Z M 1.75 0 "/></g></g></g><g fill="#ffffff" fill-opacity="1"><g transform="translate(66.331511, 24.950035)"><g><path d="M 1.75 0 C 1.507812 0 1.316406 -0.0703125 1.171875 -0.21875 C 1.023438 -0.363281 0.953125 -0.550781 0.953125 -0.78125 L 0.953125 -8.109375 C 0.953125 -8.328125 1.023438 -8.507812 1.171875 -8.65625 C 1.316406 -8.800781 1.5 -8.875 1.71875 -8.875 L 5.84375 -8.875 C 6.0625 -8.875 6.242188 -8.804688 6.390625 -8.671875 C 6.546875 -8.535156 6.625 -8.351562 6.625 -8.125 C 6.625 -7.945312 6.546875 -7.785156 6.390625 -7.640625 C 6.242188 -7.492188 6.0625 -7.421875 5.84375 -7.421875 L 2.421875 -7.421875 L 2.53125 -7.578125 L 2.53125 -5.03125 L 2.453125 -5.1875 L 5.28125 -5.1875 C 5.5 -5.1875 5.679688 -5.113281 5.828125 -4.96875 C 5.972656 -4.832031 6.046875 -4.65625 6.046875 -4.4375 C 6.046875 -4.25 5.972656 -4.082031 5.828125 -3.9375 C 5.679688 -3.800781 5.5 -3.734375 5.28125 -3.734375 L 2.421875 -3.734375 L 2.53125 -3.84375 L 2.53125 -0.78125 C 2.53125 -0.550781 2.453125 -0.363281 2.296875 -0.21875 C 2.140625 -0.0703125 1.957031 0 1.75 0 Z M 1.75 0 "/></g></g></g><g fill="#ffffff" fill-opacity="1"><g transform="translate(73.556162, 24.950035)"><g><path d="M 2.53125 -0.78125 C 2.53125 -0.550781 2.453125 -0.363281 2.296875 -0.21875 C 2.140625 -0.0703125 1.953125 0 1.734375 0 C 1.503906 0 1.316406 -0.0703125 1.171875 -0.21875 C 1.023438 -0.363281 0.953125 -0.550781 0.953125 -0.78125 L 0.953125 -8.109375 C 0.953125 -8.328125 1.023438 -8.507812 1.171875 -8.65625 C 1.328125 -8.800781 1.523438 -8.875 1.765625 -8.875 C 1.960938 -8.875 2.140625 -8.800781 2.296875 -8.65625 C 2.453125 -8.507812 2.53125 -8.328125 2.53125 -8.109375 Z M 2.53125 -0.78125 "/></g></g></g><g fill="#ffffff" fill-opacity="1"><g transform="translate(77.143184, 24.950035)"><g><path d="M 7.6875 -8.875 C 7.894531 -8.875 8.0625 -8.804688 8.1875 -8.671875 C 8.3125 -8.535156 8.375 -8.367188 8.375 -8.171875 L 8.375 -0.78125 C 8.375 -0.550781 8.296875 -0.363281 8.140625 -0.21875 C 7.992188 -0.0703125 7.8125 0 7.59375 0 C 7.488281 0 7.378906 -0.015625 7.265625 -0.046875 C 7.148438 -0.0859375 7.0625 -0.144531 7 -0.21875 L 2.015625 -6.546875 L 2.34375 -6.75 L 2.34375 -0.703125 C 2.34375 -0.503906 2.273438 -0.335938 2.140625 -0.203125 C 2.015625 -0.0664062 1.847656 0 1.640625 0 C 1.429688 0 1.265625 -0.0664062 1.140625 -0.203125 C 1.015625 -0.335938 0.953125 -0.503906 0.953125 -0.703125 L 0.953125 -8.109375 C 0.953125 -8.328125 1.023438 -8.507812 1.171875 -8.65625 C 1.316406 -8.800781 1.5 -8.875 1.71875 -8.875 C 1.84375 -8.875 1.96875 -8.847656 2.09375 -8.796875 C 2.21875 -8.753906 2.3125 -8.691406 2.375 -8.609375 L 7.203125 -2.4375 L 6.984375 -2.28125 L 6.984375 -8.171875 C 6.984375 -8.367188 7.046875 -8.535156 7.171875 -8.671875 C 7.304688 -8.804688 7.476562 -8.875 7.6875 -8.875 Z M 7.6875 -8.875 "/></g></g></g><g fill="#ffffff" fill-opacity="1"><g transform="translate(86.56055, 24.950035)"><g><path d="M 5.140625 0.125 C 4.492188 0.125 3.890625 0.0078125 3.328125 -0.21875 C 2.773438 -0.457031 2.285156 -0.785156 1.859375 -1.203125 C 1.441406 -1.628906 1.109375 -2.113281 0.859375 -2.65625 C 0.617188 -3.207031 0.5 -3.800781 0.5 -4.4375 C 0.5 -5.070312 0.617188 -5.664062 0.859375 -6.21875 C 1.109375 -6.769531 1.441406 -7.253906 1.859375 -7.671875 C 2.285156 -8.085938 2.773438 -8.414062 3.328125 -8.65625 C 3.890625 -8.894531 4.492188 -9.015625 5.140625 -9.015625 C 5.535156 -9.015625 5.914062 -8.96875 6.28125 -8.875 C 6.65625 -8.789062 7.003906 -8.664062 7.328125 -8.5 C 7.453125 -8.4375 7.546875 -8.347656 7.609375 -8.234375 C 7.671875 -8.117188 7.703125 -8 7.703125 -7.875 C 7.703125 -7.675781 7.632812 -7.492188 7.5 -7.328125 C 7.363281 -7.171875 7.191406 -7.09375 6.984375 -7.09375 C 6.910156 -7.09375 6.835938 -7.097656 6.765625 -7.109375 C 6.691406 -7.128906 6.625 -7.15625 6.5625 -7.1875 C 6.351562 -7.28125 6.128906 -7.351562 5.890625 -7.40625 C 5.648438 -7.457031 5.398438 -7.484375 5.140625 -7.484375 C 4.585938 -7.484375 4.082031 -7.34375 3.625 -7.0625 C 3.175781 -6.789062 2.816406 -6.425781 2.546875 -5.96875 C 2.285156 -5.507812 2.15625 -5 2.15625 -4.4375 C 2.15625 -3.882812 2.285156 -3.375 2.546875 -2.90625 C 2.816406 -2.445312 3.175781 -2.078125 3.625 -1.796875 C 4.082031 -1.523438 4.585938 -1.390625 5.140625 -1.390625 C 5.390625 -1.390625 5.664062 -1.414062 5.96875 -1.46875 C 6.28125 -1.519531 6.53125 -1.585938 6.71875 -1.671875 L 6.609375 -1.296875 L 6.609375 -3.46875 L 6.828125 -3.265625 L 5.421875 -3.265625 C 5.203125 -3.265625 5.015625 -3.335938 4.859375 -3.484375 C 4.710938 -3.628906 4.640625 -3.8125 4.640625 -4.03125 C 4.640625 -4.25 4.710938 -4.429688 4.859375 -4.578125 C 5.015625 -4.722656 5.203125 -4.796875 5.421875 -4.796875 L 7.5 -4.796875 C 7.71875 -4.796875 7.898438 -4.722656 8.046875 -4.578125 C 8.191406 -4.429688 8.265625 -4.242188 8.265625 -4.015625 L 8.265625 -1.328125 C 8.265625 -1.160156 8.222656 -1.019531 8.140625 -0.90625 C 8.054688 -0.800781 7.960938 -0.710938 7.859375 -0.640625 C 7.472656 -0.410156 7.050781 -0.222656 6.59375 -0.078125 C 6.132812 0.0546875 5.648438 0.125 5.140625 0.125 Z M 5.140625 0.125 "/></g></g></g><g fill="#ffffff" fill-opacity="1"><g transform="translate(95.483609, 24.950035)"><g/></g></g><g fill="#ffffff" fill-opacity="1"><g transform="translate(99.134, 24.950035)"><g><path d="M 1.765625 -8.875 C 1.960938 -8.875 2.140625 -8.800781 2.296875 -8.65625 C 2.453125 -8.507812 2.53125 -8.328125 2.53125 -8.109375 L 2.53125 -0.78125 C 2.53125 -0.550781 2.453125 -0.363281 2.296875 -0.21875 C 2.140625 -0.0703125 1.953125 0 1.734375 0 C 1.503906 0 1.316406 -0.0703125 1.171875 -0.21875 C 1.023438 -0.363281 0.953125 -0.550781 0.953125 -0.78125 L 0.953125 -8.109375 C 0.953125 -8.328125 1.023438 -8.507812 1.171875 -8.65625 C 1.328125 -8.800781 1.523438 -8.875 1.765625 -8.875 Z M 7.390625 -8.875 C 7.617188 -8.875 7.804688 -8.800781 7.953125 -8.65625 C 8.097656 -8.507812 8.171875 -8.328125 8.171875 -8.109375 L 8.171875 -0.78125 C 8.171875 -0.550781 8.097656 -0.363281 7.953125 -0.21875 C 7.804688 -0.0703125 7.609375 0 7.359375 0 C 7.148438 0 6.96875 -0.0703125 6.8125 -0.21875 C 6.65625 -0.363281 6.578125 -0.550781 6.578125 -0.78125 L 6.578125 -8.109375 C 6.578125 -8.328125 6.65625 -8.507812 6.8125 -8.65625 C 6.976562 -8.800781 7.171875 -8.875 7.390625 -8.875 Z M 1.71875 -5.1875 L 7.390625 -5.1875 L 7.390625 -3.734375 L 1.71875 -3.734375 Z M 1.71875 -5.1875 "/></g></g></g><g fill="#ffffff" fill-opacity="1"><g transform="translate(108.348567, 24.950035)"><g><path d="M 7.25 -8.890625 C 7.476562 -8.890625 7.660156 -8.816406 7.796875 -8.671875 C 7.929688 -8.523438 8 -8.34375 8 -8.125 L 8 -3.53125 C 8 -2.820312 7.847656 -2.195312 7.546875 -1.65625 C 7.242188 -1.113281 6.828125 -0.691406 6.296875 -0.390625 C 5.773438 -0.0859375 5.171875 0.0625 4.484375 0.0625 C 3.785156 0.0625 3.171875 -0.0859375 2.640625 -0.390625 C 2.117188 -0.691406 1.707031 -1.113281 1.40625 -1.65625 C 1.101562 -2.195312 0.953125 -2.820312 0.953125 -3.53125 L 0.953125 -8.125 C 0.953125 -8.34375 1.023438 -8.523438 1.171875 -8.671875 C 1.328125 -8.816406 1.523438 -8.890625 1.765625 -8.890625 C 1.960938 -8.890625 2.140625 -8.816406 2.296875 -8.671875 C 2.453125 -8.523438 2.53125 -8.34375 2.53125 -8.125 L 2.53125 -3.53125 C 2.53125 -3.101562 2.617188 -2.734375 2.796875 -2.421875 C 2.984375 -2.117188 3.222656 -1.878906 3.515625 -1.703125 C 3.816406 -1.535156 4.140625 -1.453125 4.484375 -1.453125 C 4.847656 -1.453125 5.1875 -1.535156 5.5 -1.703125 C 5.8125 -1.878906 6.0625 -2.117188 6.25 -2.421875 C 6.445312 -2.734375 6.546875 -3.101562 6.546875 -3.53125 L 6.546875 -8.125 C 6.546875 -8.34375 6.609375 -8.523438 6.734375 -8.671875 C 6.859375 -8.816406 7.03125 -8.890625 7.25 -8.890625 Z M 7.25 -8.890625 "/></g></g></g><g fill="#ffffff" fill-opacity="1"><g transform="translate(117.385692, 24.950035)"><g><path d="M 4.921875 -8.875 C 5.734375 -8.875 6.335938 -8.679688 6.734375 -8.296875 C 7.128906 -7.921875 7.328125 -7.363281 7.328125 -6.625 C 7.328125 -6.226562 7.226562 -5.878906 7.03125 -5.578125 C 6.84375 -5.273438 6.554688 -5.039062 6.171875 -4.875 C 5.796875 -4.707031 5.328125 -4.625 4.765625 -4.625 L 4.828125 -5.203125 C 5.085938 -5.203125 5.382812 -5.164062 5.71875 -5.09375 C 6.0625 -5.019531 6.390625 -4.890625 6.703125 -4.703125 C 7.023438 -4.523438 7.285156 -4.273438 7.484375 -3.953125 C 7.691406 -3.628906 7.796875 -3.210938 7.796875 -2.703125 C 7.796875 -2.140625 7.703125 -1.679688 7.515625 -1.328125 C 7.335938 -0.972656 7.101562 -0.695312 6.8125 -0.5 C 6.519531 -0.3125 6.203125 -0.179688 5.859375 -0.109375 C 5.523438 -0.0351562 5.203125 0 4.890625 0 L 1.71875 0 C 1.5 0 1.316406 -0.0703125 1.171875 -0.21875 C 1.023438 -0.363281 0.953125 -0.550781 0.953125 -0.78125 L 0.953125 -8.109375 C 0.953125 -8.328125 1.023438 -8.507812 1.171875 -8.65625 C 1.316406 -8.800781 1.5 -8.875 1.71875 -8.875 Z M 4.6875 -7.390625 L 2.4375 -7.390625 L 2.59375 -7.59375 L 2.59375 -5.296875 L 2.453125 -5.40625 L 4.734375 -5.40625 C 4.972656 -5.40625 5.191406 -5.484375 5.390625 -5.640625 C 5.585938 -5.804688 5.6875 -6.039062 5.6875 -6.34375 C 5.6875 -6.707031 5.59375 -6.972656 5.40625 -7.140625 C 5.226562 -7.304688 4.988281 -7.390625 4.6875 -7.390625 Z M 4.796875 -3.90625 L 2.484375 -3.90625 L 2.59375 -4.015625 L 2.59375 -1.328125 L 2.46875 -1.453125 L 4.890625 -1.453125 C 5.273438 -1.453125 5.582031 -1.554688 5.8125 -1.765625 C 6.039062 -1.972656 6.15625 -2.285156 6.15625 -2.703125 C 6.15625 -3.078125 6.078125 -3.347656 5.921875 -3.515625 C 5.773438 -3.691406 5.59375 -3.800781 5.375 -3.84375 C 5.164062 -3.882812 4.972656 -3.90625 4.796875 -3.90625 Z M 4.796875 -3.90625 "/></g></g></g></svg>