<svg xmlns="http://www.w3.org/2000/svg" xmlns:xlink="http://www.w3.org/1999/xlink" width="300" zoomAndPan="magnify" viewBox="0 0 224.87999 225" height="300" preserveAspectRatio="xMidYMid meet" version="1.0"><defs><clipPath id="656babb875"><path d="M 0 0.0585938 L 224.761719 0.0585938 L 224.761719 224.191406 L 0 224.191406 Z M 0 0.0585938 " clip-rule="nonzero"/></clipPath></defs><g clip-path="url(#656babb875)"><path fill="#ffffff" d="M 199.523438 209.050781 L 13.976562 209.050781 L 13.976562 216.707031 C 13.976562 220.917969 17.429688 224.371094 21.628906 224.371094 L 191.871094 224.371094 C 196.082031 224.371094 199.527344 220.917969 199.527344 216.707031 L 199.527344 209.050781 Z M 196.644531 203.957031 L 184.769531 189.691406 L 28.746094 189.691406 L 16.867188 203.957031 Z M 152.183594 83.65625 L 141.523438 87.578125 L 148.699219 107.109375 C 150.417969 111.8125 157.074219 112.1875 159.234375 107.542969 C 159.839844 106.210938 159.957031 104.648438 159.421875 103.175781 Z M 213.503906 24.164062 C 209.796875 22.273438 205.53125 21.5 201.25 22.109375 L 215.121094 59.929688 C 228.535156 51.46875 227.722656 31.429688 213.503906 24.164062 Z M 213.773438 88.128906 C 217.519531 88.492188 218.921875 85.078125 218.140625 82.992188 C 218.113281 82.921875 218.085938 82.835938 218.054688 82.75 L 188.671875 2.652344 C 187.488281 -0.601562 182.898438 -0.847656 181.425781 2.347656 C 180.960938 3.332031 180.933594 4.371094 181.324219 5.445312 L 210.722656 85.597656 C 211.214844 86.953125 212.402344 87.894531 213.773438 88.128906 Z M 157.496094 38.777344 C 156.371094 39.9375 151.1875 43.972656 149.597656 45.144531 L 160.808594 75.726562 C 175.738281 74.714844 190.265625 76.464844 203.867188 81.726562 L 178.5625 12.734375 C 173.175781 22.605469 166.046875 31.238281 157.496094 38.777344 Z M 145.023438 47.484375 L 123.652344 55.324219 L 134.449219 84.738281 L 155.816406 76.898438 Z M 126.894531 78.957031 L 121.640625 64.621094 C 114.957031 67.0625 114.8125 75.949219 120.902344 78.769531 C 122.800781 79.652344 124.828125 79.722656 126.894531 78.957031 Z M 119.519531 51.421875 L 145.359375 41.941406 C 146.449219 41.148438 147.53125 40.351562 148.570312 39.539062 L 104.457031 39.539062 C 100.261719 39.539062 96.816406 42.984375 96.816406 47.179688 L 96.816406 111.835938 C 96.816406 116.03125 100.261719 119.476562 104.457031 119.476562 L 104.457031 119.492188 L 139.484375 119.492188 C 140.890625 119.492188 142.03125 120.636719 142.03125 122.039062 L 142.046875 122.039062 L 142.046875 136.636719 L 163.070312 120.042969 C 163.550781 119.664062 164.097656 119.492188 164.648438 119.492188 L 203.335938 119.492188 L 203.335938 119.476562 C 207.53125 119.476562 210.976562 116.03125 210.976562 111.835938 L 210.976562 92.578125 C 207.5625 91.160156 206.519531 88.453125 206.347656 88.28125 C 199.488281 85.183594 192.238281 83.015625 184.613281 81.785156 C 176.746094 80.511719 168.410156 80.222656 159.640625 80.933594 L 157.039062 81.871094 L 164.199219 101.417969 C 166.253906 107.003906 163.363281 113.238281 157.773438 115.28125 C 152.1875 117.339844 145.953125 114.445312 143.910156 108.855469 L 136.75 89.324219 L 133.816406 90.394531 C 132.5 90.882812 131.023438 90.207031 130.542969 88.875 L 128.660156 83.738281 C 125.277344 84.96875 121.847656 84.8125 118.765625 83.390625 C 108.535156 78.644531 109 63.816406 119.875 59.820312 L 117.992188 54.6875 C 117.519531 53.359375 118.1875 51.902344 119.519531 51.421875 Z M 69.414062 60.828125 L 5.78125 60.828125 C 2.683594 60.828125 0.136719 63.375 0.136719 66.472656 L 0.136719 125.53125 C 0.136719 128.628906 2.683594 131.167969 5.78125 131.167969 L 69.414062 131.167969 C 72.523438 131.167969 75.058594 128.621094 75.058594 125.53125 L 75.058594 66.46875 C 75.058594 63.375 72.527344 60.828125 69.414062 60.828125 Z M 80.164062 86.132812 L 91.707031 86.132812 L 91.707031 77.207031 L 80.164062 77.207031 Z M 43.777344 136.273438 L 43.777344 170.546875 L 169.722656 170.546875 L 169.722656 124.570312 L 165.527344 124.570312 L 141.246094 143.726562 C 139.363281 145.375 136.933594 143.929688 136.933594 141.886719 L 136.933594 124.570312 L 104.453125 124.570312 L 104.453125 124.585938 C 97.433594 124.585938 91.707031 118.855469 91.707031 111.839844 L 91.707031 91.238281 L 80.164062 91.238281 L 80.164062 125.523438 C 80.164062 131.441406 75.328125 136.273438 69.414062 136.273438 Z M 30.117188 136.273438 L 30.117188 184.582031 L 183.390625 184.582031 L 183.390625 124.570312 L 174.824219 124.570312 L 174.824219 173.09375 C 174.824219 174.511719 173.683594 175.65625 172.277344 175.65625 L 41.230469 175.65625 C 39.8125 175.65625 38.667969 174.511719 38.667969 173.09375 L 38.667969 136.273438 Z M 16.941406 75.046875 L 58.363281 75.046875 C 62.777344 75.0625 66.507812 78.738281 66.507812 83.28125 L 66.507812 108.710938 C 66.507812 113.253906 62.804688 116.960938 58.261719 116.960938 L 16.941406 116.960938 C 12.398438 116.960938 8.691406 113.253906 8.691406 108.710938 L 8.691406 83.28125 C 8.691406 78.738281 12.367188 75.078125 16.941406 75.046875 Z M 14.796875 80.992188 L 37.597656 97.546875 L 60.394531 80.992188 C 59.820312 80.457031 59.078125 80.15625 58.25 80.15625 L 16.941406 80.15625 C 16.128906 80.15625 15.378906 80.457031 14.796875 80.992188 Z M 61.402344 86.578125 L 39.089844 102.75 C 38.167969 103.429688 36.9375 103.390625 36.070312 102.71875 L 13.800781 86.578125 L 13.800781 108.710938 C 13.800781 110.433594 15.21875 111.851562 16.941406 111.851562 L 58.261719 111.851562 C 59.980469 111.851562 61.402344 110.433594 61.402344 108.710938 Z M 61.402344 86.578125 " fill-opacity="1" fill-rule="nonzero"/></g></svg>