<svg xmlns="http://www.w3.org/2000/svg" xmlns:xlink="http://www.w3.org/1999/xlink" width="300" zoomAndPan="magnify" viewBox="0 0 224.87999 225" height="300" preserveAspectRatio="xMidYMid meet" version="1.0"><defs><clipPath id="2555ed408c"><path d="M 0 0.0585938 L 224.761719 0.0585938 L 224.761719 224.9375 L 0 224.9375 Z M 0 0.0585938 " clip-rule="nonzero"/></clipPath></defs><g clip-path="url(#2555ed408c)"><path fill="#ffffff" d="M 112.449219 0.0585938 C 50.34375 0.0585938 0 50.402344 0 112.511719 C 0 174.617188 50.34375 224.960938 112.449219 224.960938 C 174.554688 224.960938 224.898438 174.617188 224.898438 112.511719 C 224.898438 50.402344 174.550781 0.0585938 112.449219 0.0585938 Z M 189.777344 72.464844 L 96.074219 174.6875 C 93.785156 177.183594 89.871094 177.257812 87.492188 174.84375 L 35.28125 121.988281 C 33.285156 119.96875 33.304688 116.714844 35.324219 114.714844 L 50.953125 99.28125 C 53.273438 96.992188 57.011719 97.011719 59.308594 99.332031 L 90.976562 131.390625 L 165.628906 49.957031 C 167.410156 48.015625 170.429688 47.878906 172.375 49.667969 L 189.472656 65.335938 C 191.523438 67.222656 191.667969 70.414062 189.78125 72.472656 Z M 189.777344 72.464844 " fill-opacity="1" fill-rule="nonzero"/></g></svg>