<svg xmlns="http://www.w3.org/2000/svg" xmlns:xlink="http://www.w3.org/1999/xlink" width="300" zoomAndPan="magnify" viewBox="0 0 224.87999 225" height="300" preserveAspectRatio="xMidYMid meet" version="1.0"><defs><clipPath id="1f87250a60"><path d="M 13 112 L 212 112 L 212 212.128906 L 13 212.128906 Z M 13 112 " clip-rule="nonzero"/></clipPath><clipPath id="5009970a23"><path d="M 13 12.734375 L 212 12.734375 L 212 113 L 13 113 Z M 13 12.734375 " clip-rule="nonzero"/></clipPath><clipPath id="8366b5e12a"><path d="M 186 101 L 224.761719 101 L 224.761719 128 L 186 128 Z M 186 101 " clip-rule="nonzero"/></clipPath></defs><path fill="#ffffff" d="M 143.058594 174.160156 L 81.8125 174.160156 L 81.8125 146.683594 C 81.8125 141.054688 84.003906 135.761719 87.984375 131.78125 C 91.964844 127.800781 97.257812 125.609375 102.886719 125.609375 L 121.984375 125.609375 C 127.613281 125.609375 132.90625 127.800781 136.886719 131.78125 C 140.867188 135.761719 143.058594 141.054688 143.058594 146.683594 Z M 92.277344 163.695312 L 132.597656 163.695312 L 132.597656 146.683594 C 132.597656 140.832031 127.835938 136.070312 121.984375 136.070312 L 102.886719 136.070312 C 97.035156 136.070312 92.273438 140.832031 92.273438 146.683594 L 92.273438 163.695312 Z M 92.277344 163.695312 " fill-opacity="1" fill-rule="nonzero"/><path fill="#ffffff" d="M 79.039062 149.402344 L 47.164062 149.402344 L 47.164062 118.578125 C 47.164062 113.84375 49.007812 109.390625 52.355469 106.042969 C 55.703125 102.695312 60.152344 100.851562 64.890625 100.851562 L 87.507812 100.851562 L 87.507812 111.3125 L 64.890625 111.3125 C 60.882812 111.3125 57.625 114.574219 57.625 118.578125 L 57.625 138.941406 L 79.039062 138.941406 Z M 79.039062 149.402344 " fill-opacity="1" fill-rule="nonzero"/><path fill="#ffffff" d="M 177.710938 149.402344 L 145.707031 149.402344 L 145.707031 138.9375 L 167.246094 138.9375 L 167.246094 118.578125 C 167.246094 114.574219 163.988281 111.3125 159.984375 111.3125 L 136.929688 111.3125 L 136.929688 100.851562 L 159.984375 100.851562 C 164.71875 100.851562 169.167969 102.695312 172.515625 106.042969 C 175.863281 109.390625 177.707031 113.84375 177.707031 118.578125 L 177.707031 149.398438 Z M 177.710938 149.402344 " fill-opacity="1" fill-rule="nonzero"/><path fill="#ffffff" d="M 76.886719 99.132812 C 71.082031 99.132812 65.625 96.875 61.519531 92.769531 C 57.414062 88.664062 55.152344 83.203125 55.152344 77.398438 C 55.152344 71.59375 57.414062 66.132812 61.519531 62.027344 C 65.625 57.925781 71.082031 55.664062 76.886719 55.664062 C 82.695312 55.664062 88.152344 57.921875 92.257812 62.027344 C 96.363281 66.132812 98.625 71.59375 98.625 77.398438 C 98.625 83.203125 96.363281 88.664062 92.257812 92.769531 C 88.152344 96.875 82.691406 99.132812 76.886719 99.132812 Z M 76.886719 66.125 C 70.671875 66.125 65.613281 71.183594 65.613281 77.398438 C 65.613281 83.613281 70.671875 88.671875 76.886719 88.671875 C 83.105469 88.671875 88.160156 83.613281 88.160156 77.398438 C 88.160156 71.183594 83.105469 66.125 76.886719 66.125 Z M 76.886719 66.125 " fill-opacity="1" fill-rule="nonzero"/><path fill="#ffffff" d="M 147.984375 99.132812 C 142.179688 99.132812 136.71875 96.875 132.613281 92.769531 C 128.507812 88.664062 126.246094 83.203125 126.246094 77.398438 C 126.246094 71.59375 128.507812 66.132812 132.613281 62.027344 C 136.71875 57.925781 142.179688 55.664062 147.984375 55.664062 C 153.789062 55.664062 159.25 57.921875 163.355469 62.027344 C 167.457031 66.132812 169.71875 71.59375 169.71875 77.398438 C 169.71875 83.203125 167.460938 88.664062 163.355469 92.769531 C 159.25 96.875 153.789062 99.132812 147.984375 99.132812 Z M 147.984375 66.125 C 141.769531 66.125 136.710938 71.183594 136.710938 77.398438 C 136.710938 83.613281 141.769531 88.671875 147.984375 88.671875 C 154.199219 88.671875 159.257812 83.613281 159.257812 77.398438 C 159.257812 71.183594 154.199219 66.125 147.984375 66.125 Z M 147.984375 66.125 " fill-opacity="1" fill-rule="nonzero"/><path fill="#ffffff" d="M 112.4375 124.644531 C 106.628906 124.644531 101.171875 122.382812 97.066406 118.277344 C 92.960938 114.171875 90.699219 108.714844 90.699219 102.90625 C 90.699219 97.101562 92.960938 91.644531 97.066406 87.539062 C 101.171875 83.433594 106.628906 81.171875 112.4375 81.171875 C 118.242188 81.171875 123.699219 83.433594 127.804688 87.539062 C 131.910156 91.644531 134.171875 97.101562 134.171875 102.90625 C 134.171875 108.714844 131.910156 114.171875 127.804688 118.277344 C 123.699219 122.382812 118.242188 124.644531 112.4375 124.644531 Z M 112.4375 91.636719 C 106.21875 91.636719 101.164062 96.691406 101.164062 102.910156 C 101.164062 109.125 106.21875 114.183594 112.4375 114.183594 C 118.652344 114.183594 123.710938 109.125 123.710938 102.910156 C 123.710938 96.691406 118.652344 91.636719 112.4375 91.636719 Z M 112.4375 91.636719 " fill-opacity="1" fill-rule="nonzero"/><g clip-path="url(#1f87250a60)"><path fill="#ffffff" d="M 111.4375 212.175781 C 99.660156 212.175781 88.128906 210.140625 77.167969 206.125 C 66.574219 202.246094 56.769531 196.621094 48.03125 189.410156 C 39.367188 182.257812 32.019531 173.773438 26.195312 164.1875 C 20.25 154.40625 16.074219 143.769531 13.785156 132.578125 L 24.035156 130.480469 C 32.480469 171.753906 69.238281 201.710938 111.4375 201.710938 C 160.632812 201.710938 200.65625 161.691406 200.65625 112.496094 L 211.117188 112.496094 C 211.117188 125.953125 208.480469 139.003906 203.28125 151.296875 C 200.78125 157.207031 197.691406 162.902344 194.089844 168.230469 C 190.523438 173.507812 186.429688 178.46875 181.921875 182.980469 C 177.414062 187.488281 172.449219 191.582031 167.171875 195.148438 C 161.84375 198.746094 156.148438 201.839844 150.238281 204.339844 C 137.949219 209.539062 124.894531 212.175781 111.4375 212.175781 Z M 111.4375 212.175781 " fill-opacity="1" fill-rule="nonzero"/></g><g clip-path="url(#5009970a23)"><path fill="#ffffff" d="M 24.144531 112.496094 L 13.679688 112.496094 C 13.679688 99.042969 16.316406 85.988281 21.515625 73.695312 C 24.015625 67.789062 27.105469 62.089844 30.707031 56.761719 C 34.273438 51.484375 38.367188 46.523438 42.875 42.011719 C 47.382812 37.503906 52.347656 33.410156 57.625 29.84375 C 62.953125 26.246094 68.648438 23.152344 74.558594 20.652344 C 86.847656 15.453125 99.902344 12.820312 113.359375 12.820312 C 125.136719 12.820312 136.667969 14.855469 147.628906 18.867188 C 158.222656 22.746094 168.027344 28.371094 176.765625 35.582031 C 185.429688 42.734375 192.777344 51.21875 198.601562 60.804688 C 204.546875 70.585938 208.722656 81.222656 211.011719 92.414062 L 200.761719 94.507812 C 192.316406 53.234375 155.558594 23.28125 113.359375 23.28125 C 64.164062 23.28125 24.144531 63.300781 24.144531 112.496094 Z M 24.144531 112.496094 " fill-opacity="1" fill-rule="nonzero"/></g><path fill="#ffffff" d="M 18.988281 123.734375 L -0.00390625 104.746094 L 7.394531 97.347656 L 18.988281 108.941406 L 30.578125 97.347656 L 37.976562 104.746094 Z M 18.988281 123.734375 " fill-opacity="1" fill-rule="nonzero"/><g clip-path="url(#8366b5e12a)"><path fill="#ffffff" d="M 217.476562 127.683594 L 205.886719 116.089844 L 194.292969 127.683594 L 186.894531 120.285156 L 205.886719 101.292969 L 224.875 120.285156 Z M 217.476562 127.683594 " fill-opacity="1" fill-rule="nonzero"/></g></svg>