<svg xmlns="http://www.w3.org/2000/svg" xmlns:xlink="http://www.w3.org/1999/xlink" width="300" zoomAndPan="magnify" viewBox="0 0 224.87999 225" height="300" preserveAspectRatio="xMidYMid meet" version="1.0"><defs><clipPath id="5a42534e50"><path d="M 0 0.0585938 L 224.761719 0.0585938 L 224.761719 224.9375 L 0 224.9375 Z M 0 0.0585938 " clip-rule="nonzero"/></clipPath></defs><path fill="#ffffff" d="M 156.527344 174.902344 C 156.527344 176.214844 155.496094 177.292969 154.136719 177.292969 L 60.765625 177.292969 C 59.453125 177.292969 58.375 176.261719 58.375 174.902344 L 58.375 64.992188 C 58.375 63.683594 59.40625 62.605469 60.765625 62.605469 L 80.019531 62.605469 L 80.019531 55.390625 L 60.765625 55.390625 C 55.46875 55.390625 51.160156 59.699219 51.160156 64.945312 L 51.160156 174.808594 C 51.160156 180.105469 55.46875 184.367188 60.71875 184.367188 L 154.136719 184.367188 C 159.429688 184.367188 163.695312 180.058594 163.695312 174.808594 L 163.695312 113.296875 L 156.527344 120.089844 Z M 156.527344 174.902344 " fill-opacity="1" fill-rule="nonzero"/><path fill="#ffffff" d="M 156.527344 64.992188 L 156.527344 94.695312 L 162.335938 89.402344 C 162.710938 89.027344 163.132812 88.746094 163.554688 88.464844 C 163.601562 88.417969 163.648438 88.417969 163.695312 88.371094 L 163.742188 88.324219 L 163.742188 64.945312 C 163.742188 59.652344 159.429688 55.390625 154.183594 55.390625 L 134.929688 55.390625 L 134.929688 62.605469 L 154.183594 62.605469 C 155.449219 62.652344 156.527344 63.730469 156.527344 64.992188 Z M 156.527344 64.992188 " fill-opacity="1" fill-rule="nonzero"/><path fill="#ffffff" d="M 80.019531 66.585938 L 62.308594 66.585938 L 62.308594 173.3125 L 152.542969 173.3125 L 152.542969 123.789062 L 139.613281 135.972656 C 139.378906 136.207031 139.050781 136.347656 138.722656 136.441406 L 123.542969 140.140625 C 123.402344 140.1875 123.261719 140.1875 123.074219 140.1875 C 122.511719 140.1875 121.996094 139.953125 121.621094 139.53125 C 121.152344 138.96875 121.011719 138.21875 121.246094 137.566406 L 126.683594 122.105469 C 126.730469 121.917969 126.824219 121.730469 126.917969 121.589844 C 126.964844 121.542969 126.964844 121.496094 127.011719 121.449219 C 127.011719 121.449219 127.011719 121.402344 127.058594 121.402344 C 127.105469 121.355469 127.105469 121.355469 127.105469 121.355469 L 127.152344 121.308594 C 127.199219 121.261719 127.199219 121.261719 127.199219 121.261719 C 127.199219 121.261719 127.199219 121.261719 127.246094 121.261719 C 127.292969 121.214844 127.292969 121.214844 127.339844 121.167969 C 127.386719 121.121094 127.386719 121.121094 127.433594 121.121094 C 127.433594 121.121094 127.433594 121.121094 127.480469 121.074219 L 138.113281 111.46875 L 152.730469 98.164062 L 152.730469 66.585938 L 135.023438 66.585938 L 135.023438 68.039062 C 135.023438 69.117188 134.132812 70.007812 133.054688 70.007812 L 81.988281 70.007812 C 80.910156 70.007812 80.019531 69.117188 80.019531 68.039062 Z M 82.082031 150.542969 C 82.082031 151.621094 81.191406 152.511719 80.113281 152.511719 L 67.933594 152.511719 C 66.855469 152.511719 65.964844 151.621094 65.964844 150.542969 L 65.964844 135.832031 C 65.964844 134.753906 66.855469 133.863281 67.933594 133.863281 L 80.113281 133.863281 C 81.191406 133.863281 82.082031 134.753906 82.082031 135.832031 Z M 82.082031 125.617188 C 82.082031 126.695312 81.191406 127.585938 80.113281 127.585938 L 67.933594 127.585938 C 66.855469 127.585938 65.964844 126.695312 65.964844 125.617188 L 65.964844 110.90625 C 65.964844 109.828125 66.855469 108.9375 67.933594 108.9375 L 80.113281 108.9375 C 81.191406 108.9375 82.082031 109.828125 82.082031 110.90625 Z M 113.050781 149.464844 L 108.222656 149.464844 C 107.144531 149.464844 106.253906 148.574219 106.253906 147.496094 C 106.253906 146.417969 107.144531 145.527344 108.222656 145.527344 L 113.003906 145.527344 C 114.078125 145.527344 114.96875 146.417969 114.96875 147.496094 C 114.96875 148.574219 114.125 149.464844 113.050781 149.464844 Z M 116.984375 139.390625 L 90.28125 139.390625 C 89.203125 139.390625 88.3125 138.5 88.3125 137.425781 C 88.3125 136.347656 89.203125 135.457031 90.28125 135.457031 L 116.984375 135.457031 C 118.0625 135.457031 118.953125 136.347656 118.953125 137.425781 C 118.953125 138.5 118.0625 139.390625 116.984375 139.390625 Z M 116.984375 124.539062 L 111.410156 124.539062 C 110.332031 124.539062 109.441406 123.648438 109.441406 122.574219 C 109.441406 121.496094 110.332031 120.605469 111.410156 120.605469 L 116.984375 120.605469 C 118.0625 120.605469 118.953125 121.496094 118.953125 122.574219 C 118.953125 123.648438 118.0625 124.539062 116.984375 124.539062 Z M 121.527344 114.46875 L 90.515625 114.46875 C 89.4375 114.46875 88.546875 113.578125 88.546875 112.5 C 88.546875 111.421875 89.4375 110.53125 90.515625 110.53125 L 121.574219 110.53125 C 122.652344 110.53125 123.542969 111.421875 123.542969 112.5 C 123.496094 113.578125 122.652344 114.46875 121.527344 114.46875 Z M 129.632812 99.570312 L 121.527344 99.570312 C 120.453125 99.570312 119.5625 98.679688 119.5625 97.601562 C 119.5625 96.523438 120.453125 95.632812 121.527344 95.632812 L 129.632812 95.632812 C 130.710938 95.632812 131.601562 96.523438 131.601562 97.601562 C 131.601562 98.726562 130.710938 99.570312 129.632812 99.570312 Z M 91.171875 85.5625 L 136.285156 85.5625 C 137.363281 85.5625 138.253906 86.453125 138.253906 87.527344 C 138.253906 88.605469 137.363281 89.496094 136.285156 89.496094 L 91.171875 89.496094 C 90.09375 89.496094 89.203125 88.605469 89.203125 87.527344 C 89.15625 86.453125 90.09375 85.5625 91.171875 85.5625 Z M 89.015625 95.773438 L 113.703125 95.773438 C 114.78125 95.773438 115.671875 96.664062 115.671875 97.742188 C 115.671875 98.820312 114.78125 99.710938 113.703125 99.710938 L 89.015625 99.710938 C 87.9375 99.710938 87.046875 98.820312 87.046875 97.742188 C 87.09375 96.664062 87.9375 95.773438 89.015625 95.773438 Z M 89.015625 120.699219 L 106.023438 120.699219 C 107.097656 120.699219 107.988281 121.589844 107.988281 122.667969 C 107.988281 123.742188 107.097656 124.632812 106.023438 124.632812 L 89.015625 124.632812 C 87.9375 124.632812 87.046875 123.742188 87.046875 122.667969 C 87.09375 121.636719 87.9375 120.699219 89.015625 120.699219 Z M 89.015625 145.667969 L 103.632812 145.667969 C 104.710938 145.667969 105.601562 146.558594 105.601562 147.636719 C 105.601562 148.714844 104.710938 149.605469 103.632812 149.605469 L 89.015625 149.605469 C 87.9375 149.605469 87.046875 148.714844 87.046875 147.636719 C 87.09375 146.558594 87.9375 145.667969 89.015625 145.667969 Z M 80.160156 83.96875 C 81.238281 83.96875 82.128906 84.859375 82.128906 85.9375 L 82.128906 100.648438 C 82.128906 101.722656 81.238281 102.613281 80.160156 102.613281 L 67.980469 102.613281 C 66.902344 102.613281 66.011719 101.722656 66.011719 100.648438 L 66.011719 85.9375 C 66.011719 84.859375 66.902344 83.96875 67.980469 83.96875 Z M 80.160156 83.96875 " fill-opacity="1" fill-rule="nonzero"/><path fill="#ffffff" d="M 130.945312 51.171875 L 119.421875 51.171875 C 118.4375 51.171875 117.59375 50.421875 117.453125 49.441406 C 116.84375 44.378906 112.535156 40.585938 107.425781 40.585938 C 102.320312 40.585938 98.011719 44.378906 97.402344 49.441406 C 97.261719 50.421875 96.464844 51.171875 95.433594 51.171875 L 83.910156 51.171875 L 83.910156 66.070312 L 130.945312 66.070312 Z M 130.945312 51.171875 " fill-opacity="1" fill-rule="nonzero"/><path fill="#ffffff" d="M 69.898438 87.902344 L 78.191406 87.902344 L 78.191406 98.679688 L 69.898438 98.679688 Z M 69.898438 87.902344 " fill-opacity="1" fill-rule="nonzero"/><path fill="#ffffff" d="M 69.898438 112.875 L 78.191406 112.875 L 78.191406 123.648438 L 69.898438 123.648438 Z M 69.898438 112.875 " fill-opacity="1" fill-rule="nonzero"/><path fill="#ffffff" d="M 69.898438 137.800781 L 78.191406 137.800781 L 78.191406 148.574219 L 69.898438 148.574219 Z M 69.898438 137.800781 " fill-opacity="1" fill-rule="nonzero"/><path fill="#ffffff" d="M 172.453125 92.777344 C 170.957031 91.089844 168.566406 90.527344 166.503906 91.417969 C 166.503906 91.417969 166.503906 91.417969 166.457031 91.417969 C 166.363281 91.464844 166.269531 91.511719 166.175781 91.558594 C 166.128906 91.605469 166.035156 91.605469 165.988281 91.652344 C 165.613281 91.839844 165.285156 92.121094 164.957031 92.355469 L 160.179688 96.664062 L 166.503906 105.191406 L 172.03125 99.992188 C 173.0625 99.007812 173.671875 97.648438 173.671875 96.195312 C 173.71875 94.929688 173.25 93.714844 172.453125 92.777344 Z M 172.453125 92.777344 " fill-opacity="1" fill-rule="nonzero"/><path fill="#ffffff" d="M 153.199219 117.792969 L 163.648438 107.910156 L 157.277344 99.289062 L 133.335938 121.027344 L 131.460938 122.714844 L 139.660156 130.539062 Z M 153.199219 117.792969 " fill-opacity="1" fill-rule="nonzero"/><path fill="#ffffff" d="M 126.121094 135.503906 L 136.519531 132.925781 L 129.398438 126.226562 Z M 126.121094 135.503906 " fill-opacity="1" fill-rule="nonzero"/><g clip-path="url(#5a42534e50)"><path fill="#ffffff" d="M 112.441406 224.941406 C 97.308594 224.941406 82.597656 221.941406 68.683594 216.085938 C 55.28125 210.417969 43.242188 202.3125 32.9375 192.003906 C 22.582031 181.605469 14.476562 169.609375 8.855469 156.257812 C 3 142.4375 0 127.726562 0 112.5 C 0 97.367188 3 82.65625 8.855469 68.742188 C 14.570312 55.25 22.675781 43.207031 32.9375 32.996094 C 43.335938 22.640625 55.328125 14.535156 68.683594 8.914062 C 82.503906 3.058594 97.214844 0.0585938 112.441406 0.0585938 C 127.574219 0.0585938 142.285156 3.058594 156.199219 8.914062 C 169.597656 14.582031 181.636719 22.6875 191.945312 32.996094 C 202.296875 43.394531 210.402344 55.390625 216.023438 68.742188 C 221.882812 82.65625 224.878906 97.367188 224.878906 112.5 C 224.878906 127.632812 221.882812 142.34375 216.023438 156.257812 C 210.355469 169.65625 202.25 181.699219 191.945312 192.003906 C 181.542969 202.359375 169.550781 210.464844 156.199219 216.085938 C 142.378906 221.941406 127.667969 224.941406 112.441406 224.941406 Z M 112.394531 4.230469 C 52.707031 4.230469 4.121094 52.8125 4.121094 112.5 C 4.121094 172.1875 52.707031 220.769531 112.394531 220.769531 C 172.078125 220.769531 220.664062 172.1875 220.664062 112.5 C 220.664062 52.8125 172.078125 4.230469 112.394531 4.230469 Z M 112.394531 4.230469 " fill-opacity="1" fill-rule="nonzero"/></g></svg>