<svg xmlns="http://www.w3.org/2000/svg" xmlns:xlink="http://www.w3.org/1999/xlink" width="300" zoomAndPan="magnify" viewBox="0 0 224.87999 225" height="300" preserveAspectRatio="xMidYMid meet" version="1.0"><defs><clipPath id="ea61ba603a"><path d="M 99 184 L 126 184 L 126 210.324219 L 99 210.324219 Z M 99 184 " clip-rule="nonzero"/></clipPath><clipPath id="ec8407d60b"><path d="M 0 14.675781 L 224.761719 14.675781 L 224.761719 142 L 0 142 Z M 0 14.675781 " clip-rule="nonzero"/></clipPath></defs><path fill="#ffffff" d="M 112.425781 192.414062 C 112.164062 192.414062 111.90625 192.390625 111.648438 192.339844 C 111.390625 192.289062 111.140625 192.210938 110.898438 192.113281 C 110.65625 192.011719 110.425781 191.886719 110.207031 191.742188 C 109.988281 191.597656 109.785156 191.429688 109.601562 191.246094 C 109.414062 191.058594 109.25 190.859375 109.105469 190.640625 C 108.957031 190.421875 108.835938 190.191406 108.734375 189.949219 C 108.632812 189.707031 108.558594 189.457031 108.507812 189.199219 C 108.457031 188.941406 108.429688 188.679688 108.429688 188.417969 L 108.429688 137.234375 C 108.429688 136.972656 108.457031 136.710938 108.507812 136.453125 C 108.558594 136.195312 108.632812 135.945312 108.734375 135.703125 C 108.835938 135.460938 108.957031 135.230469 109.105469 135.011719 C 109.25 134.796875 109.414062 134.59375 109.601562 134.40625 C 109.785156 134.222656 109.988281 134.054688 110.207031 133.910156 C 110.425781 133.765625 110.65625 133.640625 110.898438 133.539062 C 111.140625 133.441406 111.390625 133.363281 111.648438 133.3125 C 111.90625 133.261719 112.164062 133.238281 112.425781 133.238281 C 112.691406 133.238281 112.949219 133.261719 113.207031 133.3125 C 113.464844 133.363281 113.714844 133.441406 113.957031 133.539062 C 114.199219 133.640625 114.429688 133.765625 114.648438 133.910156 C 114.867188 134.054688 115.070312 134.222656 115.253906 134.40625 C 115.441406 134.59375 115.605469 134.796875 115.75 135.011719 C 115.898438 135.230469 116.019531 135.460938 116.121094 135.703125 C 116.222656 135.945312 116.296875 136.195312 116.347656 136.453125 C 116.398438 136.710938 116.425781 136.972656 116.425781 137.234375 L 116.425781 188.417969 C 116.425781 188.679688 116.398438 188.941406 116.347656 189.199219 C 116.296875 189.457031 116.222656 189.707031 116.121094 189.949219 C 116.019531 190.191406 115.898438 190.421875 115.75 190.640625 C 115.605469 190.859375 115.441406 191.058594 115.253906 191.246094 C 115.070312 191.429688 114.867188 191.597656 114.648438 191.742188 C 114.429688 191.886719 114.199219 192.011719 113.957031 192.113281 C 113.714844 192.210938 113.464844 192.289062 113.207031 192.339844 C 112.949219 192.390625 112.691406 192.414062 112.425781 192.414062 Z M 112.425781 192.414062 " fill-opacity="1" fill-rule="nonzero"/><path fill="#ffffff" d="M 73.640625 177.703125 L 50.605469 177.703125 C 50.34375 177.703125 50.082031 177.675781 49.824219 177.625 C 49.566406 177.574219 49.316406 177.5 49.074219 177.398438 C 48.832031 177.296875 48.601562 177.175781 48.382812 177.027344 C 48.164062 176.882812 47.964844 176.71875 47.777344 176.53125 C 47.59375 176.347656 47.425781 176.144531 47.28125 175.925781 C 47.136719 175.707031 47.011719 175.476562 46.910156 175.234375 C 46.8125 174.992188 46.734375 174.742188 46.683594 174.484375 C 46.632812 174.226562 46.609375 173.96875 46.609375 173.707031 C 46.609375 173.441406 46.632812 173.183594 46.683594 172.925781 C 46.734375 172.667969 46.8125 172.417969 46.910156 172.175781 C 47.011719 171.933594 47.136719 171.703125 47.28125 171.484375 C 47.425781 171.265625 47.59375 171.066406 47.777344 170.878906 C 47.964844 170.691406 48.164062 170.527344 48.382812 170.382812 C 48.601562 170.234375 48.832031 170.113281 49.074219 170.011719 C 49.316406 169.910156 49.566406 169.835938 49.824219 169.785156 C 50.082031 169.734375 50.34375 169.707031 50.605469 169.707031 L 69.644531 169.707031 L 69.644531 137.230469 C 69.644531 136.964844 69.667969 136.707031 69.71875 136.449219 C 69.769531 136.191406 69.847656 135.941406 69.945312 135.699219 C 70.046875 135.457031 70.171875 135.226562 70.316406 135.007812 C 70.460938 134.789062 70.628906 134.589844 70.8125 134.402344 C 71 134.21875 71.199219 134.050781 71.417969 133.90625 C 71.636719 133.757812 71.867188 133.636719 72.109375 133.535156 C 72.351562 133.433594 72.601562 133.359375 72.859375 133.308594 C 73.117188 133.257812 73.378906 133.230469 73.640625 133.230469 C 73.902344 133.230469 74.164062 133.257812 74.417969 133.308594 C 74.675781 133.359375 74.925781 133.433594 75.167969 133.535156 C 75.414062 133.636719 75.644531 133.757812 75.859375 133.90625 C 76.078125 134.050781 76.28125 134.21875 76.464844 134.402344 C 76.652344 134.589844 76.816406 134.789062 76.964844 135.007812 C 77.109375 135.226562 77.234375 135.457031 77.332031 135.699219 C 77.433594 135.941406 77.507812 136.191406 77.5625 136.449219 C 77.613281 136.707031 77.636719 136.964844 77.636719 137.230469 L 77.636719 173.707031 C 77.636719 173.96875 77.613281 174.226562 77.5625 174.484375 C 77.507812 174.742188 77.433594 174.992188 77.332031 175.234375 C 77.234375 175.476562 77.109375 175.707031 76.964844 175.925781 C 76.816406 176.144531 76.652344 176.347656 76.464844 176.53125 C 76.28125 176.71875 76.078125 176.882812 75.859375 177.027344 C 75.644531 177.175781 75.414062 177.296875 75.167969 177.398438 C 74.925781 177.5 74.675781 177.574219 74.417969 177.625 C 74.164062 177.675781 73.902344 177.703125 73.640625 177.703125 Z M 73.640625 177.703125 " fill-opacity="1" fill-rule="nonzero"/><path fill="#ffffff" d="M 174.257812 177.703125 L 151.222656 177.703125 C 150.960938 177.703125 150.699219 177.675781 150.441406 177.625 C 150.183594 177.574219 149.933594 177.5 149.691406 177.398438 C 149.449219 177.296875 149.21875 177.175781 149 177.027344 C 148.785156 176.882812 148.582031 176.71875 148.394531 176.53125 C 148.210938 176.347656 148.042969 176.144531 147.898438 175.925781 C 147.753906 175.707031 147.628906 175.476562 147.53125 175.234375 C 147.429688 174.992188 147.351562 174.742188 147.300781 174.484375 C 147.25 174.226562 147.226562 173.96875 147.226562 173.707031 L 147.226562 137.230469 C 147.226562 136.964844 147.25 136.707031 147.300781 136.449219 C 147.351562 136.191406 147.429688 135.941406 147.53125 135.699219 C 147.628906 135.457031 147.753906 135.226562 147.898438 135.007812 C 148.042969 134.789062 148.210938 134.589844 148.394531 134.402344 C 148.582031 134.21875 148.785156 134.050781 149 133.90625 C 149.21875 133.757812 149.449219 133.636719 149.691406 133.535156 C 149.933594 133.433594 150.183594 133.359375 150.441406 133.308594 C 150.699219 133.257812 150.960938 133.230469 151.222656 133.230469 C 151.484375 133.230469 151.746094 133.257812 152.003906 133.308594 C 152.257812 133.359375 152.507812 133.433594 152.753906 133.535156 C 152.996094 133.636719 153.226562 133.757812 153.441406 133.90625 C 153.660156 134.050781 153.863281 134.21875 154.050781 134.402344 C 154.234375 134.589844 154.398438 134.789062 154.546875 135.007812 C 154.691406 135.226562 154.816406 135.457031 154.914062 135.699219 C 155.015625 135.941406 155.09375 136.191406 155.144531 136.449219 C 155.195312 136.707031 155.21875 136.964844 155.21875 137.230469 L 155.21875 169.707031 L 174.257812 169.707031 C 174.519531 169.707031 174.78125 169.734375 175.039062 169.785156 C 175.292969 169.835938 175.542969 169.910156 175.789062 170.011719 C 176.03125 170.113281 176.261719 170.234375 176.476562 170.382812 C 176.695312 170.527344 176.898438 170.691406 177.085938 170.878906 C 177.269531 171.066406 177.433594 171.265625 177.582031 171.484375 C 177.726562 171.703125 177.851562 171.933594 177.949219 172.175781 C 178.050781 172.417969 178.128906 172.667969 178.179688 172.925781 C 178.230469 173.183594 178.253906 173.441406 178.253906 173.707031 C 178.253906 173.96875 178.230469 174.226562 178.179688 174.484375 C 178.128906 174.742188 178.050781 174.992188 177.949219 175.234375 C 177.851562 175.476562 177.726562 175.707031 177.582031 175.925781 C 177.433594 176.144531 177.269531 176.347656 177.085938 176.53125 C 176.898438 176.71875 176.695312 176.882812 176.476562 177.027344 C 176.261719 177.175781 176.03125 177.296875 175.789062 177.398438 C 175.542969 177.5 175.292969 177.574219 175.039062 177.625 C 174.78125 177.675781 174.519531 177.703125 174.257812 177.703125 Z M 174.257812 177.703125 " fill-opacity="1" fill-rule="nonzero"/><path fill="#ffffff" d="M 41.679688 186.632812 C 40.832031 186.636719 39.988281 186.554688 39.15625 186.386719 C 38.324219 186.222656 37.515625 185.976562 36.730469 185.652344 C 35.945312 185.328125 35.199219 184.929688 34.492188 184.460938 C 33.785156 183.988281 33.132812 183.453125 32.53125 182.851562 C 31.929688 182.253906 31.394531 181.597656 30.921875 180.894531 C 30.449219 180.1875 30.050781 179.441406 29.726562 178.65625 C 29.402344 177.875 29.15625 177.066406 28.988281 176.230469 C 28.824219 175.398438 28.738281 174.558594 28.738281 173.707031 C 28.738281 172.859375 28.820312 172.019531 28.988281 171.183594 C 29.152344 170.351562 29.398438 169.542969 29.722656 168.757812 C 30.046875 167.972656 30.445312 167.226562 30.914062 166.523438 C 31.386719 165.816406 31.921875 165.164062 32.523438 164.5625 C 33.125 163.960938 33.777344 163.425781 34.484375 162.953125 C 35.191406 162.480469 35.933594 162.082031 36.71875 161.757812 C 37.503906 161.429688 38.3125 161.1875 39.144531 161.019531 C 39.980469 160.855469 40.820312 160.769531 41.667969 160.769531 C 42.519531 160.769531 43.359375 160.855469 44.191406 161.019531 C 45.023438 161.183594 45.835938 161.429688 46.617188 161.753906 C 47.402344 162.082031 48.148438 162.480469 48.855469 162.949219 C 49.5625 163.421875 50.214844 163.957031 50.816406 164.558594 C 51.414062 165.160156 51.953125 165.8125 52.421875 166.519531 C 52.894531 167.226562 53.292969 167.972656 53.617188 168.753906 C 53.945312 169.539062 54.1875 170.347656 54.355469 171.183594 C 54.519531 172.015625 54.601562 172.855469 54.601562 173.707031 C 54.601562 174.554688 54.519531 175.394531 54.351562 176.226562 C 54.1875 177.058594 53.941406 177.867188 53.617188 178.648438 C 53.289062 179.433594 52.890625 180.179688 52.421875 180.882812 C 51.949219 181.589844 51.414062 182.242188 50.8125 182.839844 C 50.214844 183.441406 49.5625 183.976562 48.855469 184.449219 C 48.152344 184.921875 47.40625 185.320312 46.625 185.644531 C 45.839844 185.96875 45.03125 186.214844 44.199219 186.382812 C 43.371094 186.550781 42.527344 186.632812 41.679688 186.632812 Z M 41.679688 168.769531 C 41.355469 168.769531 41.035156 168.800781 40.71875 168.863281 C 40.398438 168.925781 40.089844 169.015625 39.789062 169.140625 C 39.488281 169.265625 39.207031 169.417969 38.933594 169.597656 C 38.664062 169.777344 38.414062 169.980469 38.1875 170.207031 C 37.957031 170.4375 37.75 170.6875 37.570312 170.957031 C 37.390625 171.226562 37.238281 171.511719 37.113281 171.808594 C 36.988281 172.109375 36.894531 172.417969 36.828125 172.734375 C 36.765625 173.054688 36.734375 173.375 36.734375 173.699219 C 36.734375 174.023438 36.765625 174.34375 36.828125 174.664062 C 36.890625 174.980469 36.984375 175.289062 37.105469 175.589844 C 37.230469 175.890625 37.382812 176.175781 37.5625 176.445312 C 37.742188 176.714844 37.945312 176.964844 38.175781 177.191406 C 38.40625 177.421875 38.65625 177.628906 38.925781 177.808594 C 39.195312 177.988281 39.476562 178.140625 39.777344 178.265625 C 40.078125 178.390625 40.386719 178.484375 40.703125 178.546875 C 41.023438 178.609375 41.34375 178.640625 41.667969 178.640625 C 41.992188 178.640625 42.3125 178.609375 42.632812 178.546875 C 42.949219 178.484375 43.257812 178.390625 43.558594 178.265625 C 43.855469 178.144531 44.140625 177.992188 44.410156 177.8125 C 44.679688 177.632812 44.929688 177.425781 45.160156 177.199219 C 45.390625 176.96875 45.59375 176.71875 45.773438 176.449219 C 45.953125 176.179688 46.105469 175.894531 46.230469 175.59375 C 46.355469 175.296875 46.449219 174.988281 46.511719 174.667969 C 46.574219 174.351562 46.609375 174.03125 46.609375 173.707031 C 46.609375 173.382812 46.574219 173.0625 46.511719 172.742188 C 46.449219 172.425781 46.355469 172.117188 46.234375 171.820312 C 46.109375 171.519531 45.957031 171.234375 45.777344 170.964844 C 45.597656 170.695312 45.394531 170.449219 45.164062 170.21875 C 44.9375 169.988281 44.6875 169.785156 44.417969 169.605469 C 44.148438 169.425781 43.867188 169.273438 43.566406 169.148438 C 43.269531 169.023438 42.960938 168.929688 42.640625 168.867188 C 42.324219 168.800781 42.003906 168.769531 41.679688 168.769531 Z M 41.679688 168.769531 " fill-opacity="1" fill-rule="nonzero"/><path fill="#ffffff" d="M 183.183594 186.632812 C 182.332031 186.636719 181.492188 186.554688 180.660156 186.386719 C 179.824219 186.222656 179.015625 185.976562 178.230469 185.652344 C 177.445312 185.328125 176.699219 184.929688 175.996094 184.460938 C 175.289062 183.988281 174.632812 183.453125 174.035156 182.851562 C 173.433594 182.253906 172.894531 181.597656 172.421875 180.894531 C 171.953125 180.1875 171.550781 179.441406 171.226562 178.65625 C 170.902344 177.875 170.65625 177.066406 170.488281 176.230469 C 170.324219 175.398438 170.242188 174.558594 170.238281 173.707031 C 170.238281 172.859375 170.324219 172.019531 170.488281 171.183594 C 170.652344 170.351562 170.898438 169.542969 171.222656 168.757812 C 171.546875 167.972656 171.945312 167.226562 172.417969 166.523438 C 172.890625 165.816406 173.425781 165.164062 174.023438 164.5625 C 174.625 163.960938 175.277344 163.425781 175.984375 162.953125 C 176.691406 162.480469 177.4375 162.082031 178.21875 161.757812 C 179.003906 161.429688 179.8125 161.1875 180.648438 161.019531 C 181.480469 160.855469 182.320312 160.769531 183.171875 160.769531 C 184.019531 160.769531 184.859375 160.855469 185.695312 161.019531 C 186.527344 161.183594 187.335938 161.429688 188.121094 161.753906 C 188.90625 162.082031 189.648438 162.480469 190.355469 162.949219 C 191.0625 163.421875 191.714844 163.957031 192.316406 164.558594 C 192.917969 165.160156 193.453125 165.8125 193.925781 166.519531 C 194.394531 167.226562 194.792969 167.972656 195.121094 168.753906 C 195.445312 169.539062 195.691406 170.347656 195.855469 171.183594 C 196.019531 172.015625 196.105469 172.855469 196.105469 173.707031 C 196.101562 174.554688 196.019531 175.394531 195.855469 176.226562 C 195.6875 177.058594 195.441406 177.867188 195.117188 178.648438 C 194.792969 179.433594 194.394531 180.179688 193.921875 180.882812 C 193.453125 181.589844 192.917969 182.242188 192.316406 182.84375 C 191.714844 183.441406 191.0625 183.976562 190.359375 184.449219 C 189.652344 184.921875 188.910156 185.320312 188.125 185.644531 C 187.34375 185.972656 186.535156 186.21875 185.703125 186.382812 C 184.871094 186.550781 184.03125 186.632812 183.183594 186.632812 Z M 183.183594 168.769531 C 182.859375 168.769531 182.535156 168.800781 182.21875 168.863281 C 181.898438 168.925781 181.589844 169.015625 181.292969 169.140625 C 180.992188 169.265625 180.707031 169.417969 180.4375 169.597656 C 180.167969 169.777344 179.917969 169.980469 179.6875 170.207031 C 179.457031 170.4375 179.253906 170.6875 179.070312 170.957031 C 178.890625 171.226562 178.738281 171.511719 178.613281 171.808594 C 178.488281 172.109375 178.394531 172.417969 178.332031 172.734375 C 178.265625 173.054688 178.234375 173.375 178.234375 173.699219 C 178.234375 174.023438 178.265625 174.34375 178.328125 174.664062 C 178.390625 174.980469 178.484375 175.289062 178.609375 175.589844 C 178.730469 175.890625 178.882812 176.175781 179.0625 176.445312 C 179.242188 176.714844 179.449219 176.964844 179.675781 177.191406 C 179.90625 177.421875 180.15625 177.628906 180.425781 177.808594 C 180.695312 177.988281 180.980469 178.140625 181.277344 178.265625 C 181.578125 178.390625 181.886719 178.484375 182.203125 178.546875 C 182.523438 178.609375 182.84375 178.640625 183.167969 178.640625 C 183.492188 178.640625 183.8125 178.609375 184.132812 178.546875 C 184.449219 178.484375 184.757812 178.390625 185.058594 178.265625 C 185.359375 178.144531 185.644531 177.992188 185.914062 177.8125 C 186.183594 177.632812 186.433594 177.425781 186.660156 177.199219 C 186.890625 176.96875 187.097656 176.71875 187.277344 176.449219 C 187.457031 176.179688 187.609375 175.894531 187.734375 175.59375 C 187.855469 175.296875 187.949219 174.988281 188.015625 174.667969 C 188.078125 174.351562 188.109375 174.03125 188.109375 173.707031 C 188.109375 173.382812 188.078125 173.0625 188.015625 172.742188 C 187.949219 172.425781 187.859375 172.117188 187.734375 171.820312 C 187.609375 171.519531 187.457031 171.234375 187.277344 170.964844 C 187.097656 170.695312 186.894531 170.449219 186.667969 170.21875 C 186.4375 169.988281 186.1875 169.785156 185.917969 169.605469 C 185.652344 169.425781 185.367188 169.273438 185.066406 169.148438 C 184.769531 169.023438 184.460938 168.929688 184.144531 168.867188 C 183.828125 168.800781 183.503906 168.769531 183.183594 168.769531 Z M 183.183594 168.769531 " fill-opacity="1" fill-rule="nonzero"/><g clip-path="url(#ea61ba603a)"><path fill="#ffffff" d="M 112.425781 210.28125 C 111.578125 210.28125 110.738281 210.199219 109.902344 210.035156 C 109.070312 209.871094 108.261719 209.625 107.476562 209.300781 C 106.691406 208.976562 105.945312 208.578125 105.238281 208.105469 C 104.535156 207.636719 103.878906 207.101562 103.277344 206.5 C 102.679688 205.898438 102.140625 205.246094 101.667969 204.539062 C 101.195312 203.835938 100.796875 203.089844 100.472656 202.304688 C 100.148438 201.519531 99.902344 200.710938 99.734375 199.878906 C 99.570312 199.046875 99.484375 198.207031 99.484375 197.355469 C 99.484375 196.507812 99.566406 195.664062 99.734375 194.832031 C 99.898438 194 100.144531 193.191406 100.46875 192.40625 C 100.792969 191.621094 101.191406 190.875 101.664062 190.167969 C 102.132812 189.464844 102.671875 188.808594 103.269531 188.207031 C 103.871094 187.609375 104.523438 187.070312 105.230469 186.601562 C 105.9375 186.128906 106.683594 185.730469 107.464844 185.402344 C 108.25 185.078125 109.058594 184.832031 109.890625 184.667969 C 110.726562 184.5 111.566406 184.417969 112.414062 184.417969 C 113.265625 184.417969 114.105469 184.5 114.9375 184.667969 C 115.773438 184.832031 116.582031 185.078125 117.367188 185.402344 C 118.148438 185.726562 118.894531 186.125 119.601562 186.597656 C 120.308594 187.070312 120.960938 187.605469 121.5625 188.207031 C 122.164062 188.808594 122.699219 189.460938 123.171875 190.167969 C 123.640625 190.871094 124.039062 191.617188 124.367188 192.402344 C 124.691406 193.1875 124.933594 193.996094 125.101562 194.828125 C 125.265625 195.664062 125.347656 196.503906 125.347656 197.351562 C 125.347656 198.203125 125.265625 199.042969 125.097656 199.875 C 124.933594 200.707031 124.6875 201.511719 124.363281 202.296875 C 124.039062 203.082031 123.640625 203.824219 123.167969 204.53125 C 122.695312 205.234375 122.160156 205.890625 121.5625 206.488281 C 120.960938 207.089844 120.308594 207.625 119.605469 208.097656 C 118.898438 208.566406 118.15625 208.96875 117.371094 209.292969 C 116.585938 209.617188 115.78125 209.863281 114.949219 210.03125 C 114.117188 210.195312 113.277344 210.28125 112.425781 210.28125 Z M 112.425781 192.414062 C 112.101562 192.414062 111.78125 192.445312 111.464844 192.507812 C 111.144531 192.570312 110.835938 192.664062 110.535156 192.789062 C 110.238281 192.910156 109.953125 193.0625 109.683594 193.242188 C 109.410156 193.421875 109.164062 193.628906 108.933594 193.855469 C 108.703125 194.085938 108.496094 194.335938 108.316406 194.601562 C 108.136719 194.871094 107.984375 195.15625 107.859375 195.457031 C 107.734375 195.757812 107.640625 196.066406 107.578125 196.382812 C 107.511719 196.699219 107.480469 197.023438 107.480469 197.347656 C 107.480469 197.671875 107.511719 197.992188 107.574219 198.308594 C 107.636719 198.628906 107.730469 198.9375 107.855469 199.238281 C 107.976562 199.535156 108.128906 199.820312 108.308594 200.089844 C 108.488281 200.359375 108.695312 200.609375 108.921875 200.839844 C 109.152344 201.070312 109.402344 201.273438 109.671875 201.453125 C 109.941406 201.636719 110.226562 201.789062 110.523438 201.914062 C 110.824219 202.035156 111.132812 202.128906 111.449219 202.195312 C 111.769531 202.257812 112.089844 202.289062 112.414062 202.289062 C 112.738281 202.289062 113.058594 202.257812 113.378906 202.195312 C 113.695312 202.132812 114.003906 202.039062 114.304688 201.914062 C 114.605469 201.789062 114.890625 201.640625 115.160156 201.457031 C 115.429688 201.277344 115.679688 201.074219 115.90625 200.84375 C 116.136719 200.617188 116.339844 200.367188 116.523438 200.097656 C 116.703125 199.828125 116.855469 199.542969 116.976562 199.242188 C 117.101562 198.941406 117.195312 198.632812 117.257812 198.316406 C 117.324219 198 117.355469 197.675781 117.355469 197.351562 C 117.355469 197.027344 117.324219 196.707031 117.257812 196.390625 C 117.195312 196.074219 117.101562 195.765625 116.980469 195.464844 C 116.855469 195.167969 116.703125 194.882812 116.523438 194.613281 C 116.34375 194.34375 116.140625 194.09375 115.910156 193.867188 C 115.683594 193.636719 115.433594 193.429688 115.164062 193.25 C 114.898438 193.070312 114.613281 192.917969 114.3125 192.792969 C 114.015625 192.671875 113.707031 192.578125 113.390625 192.511719 C 113.070312 192.449219 112.75 192.417969 112.425781 192.414062 Z M 112.425781 192.414062 " fill-opacity="1" fill-rule="nonzero"/></g><g clip-path="url(#ec8407d60b)"><path fill="#ffffff" d="M 189.1875 141.230469 L 27.308594 141.230469 C 12.363281 141.230469 0.117188 129.039062 0 114.050781 L 0 113.75 C 0 111.410156 0.203125 109.089844 0.613281 106.785156 C 1.023438 104.480469 1.636719 102.230469 2.445312 100.035156 C 3.253906 97.839844 4.253906 95.734375 5.4375 93.714844 C 6.621094 91.695312 7.972656 89.796875 9.492188 88.019531 C 12.074219 85 15.042969 82.4375 18.40625 80.320312 C 21.765625 78.207031 25.363281 76.640625 29.199219 75.625 C 29.023438 73.769531 28.953125 71.914062 28.980469 70.050781 C 29.183594 57.046875 34.34375 44.910156 43.515625 35.878906 C 45.753906 33.667969 48.183594 31.699219 50.808594 29.964844 C 53.429688 28.230469 56.199219 26.769531 59.109375 25.582031 C 62.019531 24.390625 65.019531 23.496094 68.105469 22.894531 C 71.191406 22.296875 74.304688 22 77.449219 22.011719 L 77.800781 22.011719 C 82.582031 22.050781 87.257812 22.785156 91.824219 24.210938 C 96.390625 25.636719 100.652344 27.695312 104.609375 30.386719 C 107.792969 26.15625 111.671875 22.703125 116.246094 20.035156 C 119.253906 18.289062 122.4375 16.96875 125.796875 16.074219 C 129.15625 15.179688 132.574219 14.746094 136.050781 14.769531 C 157.535156 14.902344 174.980469 32.625 174.929688 54.265625 C 174.929688 54.726562 174.929688 55.183594 174.902344 55.640625 L 175.523438 55.640625 C 202.730469 55.640625 224.863281 77.933594 224.863281 105.335938 C 224.863281 105.671875 224.863281 106.007812 224.863281 106.335938 C 224.839844 107.488281 224.757812 108.636719 224.621094 109.78125 C 224.484375 110.925781 224.292969 112.058594 224.046875 113.1875 C 223.800781 114.3125 223.5 115.421875 223.148438 116.519531 C 222.792969 117.617188 222.386719 118.691406 221.929688 119.75 C 221.46875 120.808594 220.960938 121.839844 220.402344 122.847656 C 219.84375 123.855469 219.238281 124.832031 218.585938 125.78125 C 217.929688 126.730469 217.234375 127.648438 216.492188 128.527344 C 215.75 129.410156 214.964844 130.253906 214.144531 131.058594 C 213.320312 131.867188 212.457031 132.628906 211.558594 133.351562 C 210.664062 134.074219 209.730469 134.75 208.769531 135.382812 C 207.804688 136.015625 206.8125 136.601562 205.792969 137.136719 C 204.773438 137.671875 203.730469 138.15625 202.664062 138.59375 C 201.59375 139.027344 200.511719 139.410156 199.40625 139.738281 C 198.300781 140.070312 197.183594 140.34375 196.054688 140.566406 C 194.921875 140.789062 193.785156 140.953125 192.636719 141.066406 C 191.488281 141.175781 190.339844 141.230469 189.1875 141.230469 Z M 77.449219 30.003906 C 55.082031 30.003906 37.332031 47.597656 36.976562 70.183594 C 36.933594 72.835938 37.144531 75.464844 37.601562 78.078125 C 37.648438 78.339844 37.667969 78.601562 37.664062 78.867188 C 37.65625 79.132812 37.625 79.394531 37.566406 79.65625 C 37.507812 79.914062 37.421875 80.164062 37.316406 80.40625 C 37.207031 80.648438 37.074219 80.878906 36.921875 81.09375 C 36.765625 81.3125 36.59375 81.511719 36.398438 81.691406 C 36.203125 81.875 35.992188 82.035156 35.769531 82.171875 C 35.542969 82.3125 35.304688 82.429688 35.054688 82.519531 C 34.804688 82.613281 34.550781 82.679688 34.289062 82.722656 C 19.054688 85.121094 7.996094 98.167969 7.996094 113.75 L 7.996094 114 C 8.074219 124.613281 16.738281 133.238281 27.300781 133.238281 L 189.1875 133.238281 C 204.148438 133.238281 216.558594 121.101562 216.855469 106.183594 C 216.855469 105.902344 216.855469 105.617188 216.855469 105.335938 C 216.855469 82.347656 198.308594 63.632812 175.507812 63.632812 C 173.96875 63.628906 172.429688 63.710938 170.898438 63.882812 C 170.589844 63.914062 170.285156 63.914062 169.980469 63.878906 C 169.671875 63.839844 169.375 63.769531 169.085938 63.664062 C 168.796875 63.558594 168.523438 63.421875 168.261719 63.253906 C 168.003906 63.082031 167.769531 62.886719 167.558594 62.664062 C 167.34375 62.441406 167.160156 62.195312 167.003906 61.929688 C 166.847656 61.664062 166.726562 61.382812 166.632812 61.089844 C 166.542969 60.796875 166.488281 60.496094 166.464844 60.1875 C 166.445312 59.878906 166.457031 59.574219 166.507812 59.269531 C 166.777344 57.605469 166.914062 55.929688 166.917969 54.242188 C 166.960938 36.988281 153.082031 22.863281 135.984375 22.761719 L 135.792969 22.761719 C 134.445312 22.769531 133.101562 22.859375 131.765625 23.039062 C 130.429688 23.21875 129.113281 23.484375 127.8125 23.832031 C 126.507812 24.183594 125.234375 24.617188 123.988281 25.132812 C 122.746094 25.644531 121.539062 26.238281 120.367188 26.910156 C 119.199219 27.582031 118.078125 28.324219 117.007812 29.140625 C 115.933594 29.957031 114.917969 30.839844 113.960938 31.785156 C 113.003906 32.734375 112.109375 33.738281 111.28125 34.804688 C 110.453125 35.867188 109.695312 36.980469 109.011719 38.140625 C 108.867188 38.390625 108.695312 38.621094 108.496094 38.832031 C 108.300781 39.046875 108.082031 39.234375 107.84375 39.398438 C 107.605469 39.566406 107.355469 39.703125 107.085938 39.8125 C 106.820312 39.921875 106.542969 40.003906 106.257812 40.054688 C 105.972656 40.101562 105.683594 40.121094 105.394531 40.109375 C 105.105469 40.097656 104.824219 40.054688 104.542969 39.980469 C 104.261719 39.90625 103.992188 39.804688 103.738281 39.671875 C 103.480469 39.539062 103.238281 39.378906 103.015625 39.195312 C 101.25 37.730469 99.375 36.425781 97.386719 35.285156 C 95.394531 34.144531 93.324219 33.179688 91.167969 32.398438 C 89.011719 31.613281 86.804688 31.023438 84.546875 30.621094 C 82.285156 30.21875 80.011719 30.015625 77.71875 30.003906 Z M 77.449219 30.003906 " fill-opacity="1" fill-rule="nonzero"/></g><path fill="#ffffff" d="M 157.613281 119.5 L 144.242188 119.5 C 143.980469 119.5 143.71875 119.476562 143.460938 119.421875 C 143.203125 119.371094 142.953125 119.296875 142.710938 119.195312 C 142.46875 119.097656 142.238281 118.972656 142.019531 118.828125 C 141.804688 118.679688 141.601562 118.515625 141.414062 118.328125 C 141.230469 118.144531 141.0625 117.941406 140.917969 117.722656 C 140.773438 117.503906 140.648438 117.273438 140.550781 117.03125 C 140.449219 116.789062 140.371094 116.539062 140.320312 116.28125 C 140.269531 116.027344 140.246094 115.765625 140.246094 115.503906 C 140.246094 115.242188 140.269531 114.980469 140.320312 114.722656 C 140.371094 114.464844 140.449219 114.214844 140.550781 113.972656 C 140.648438 113.730469 140.773438 113.5 140.917969 113.28125 C 141.0625 113.0625 141.230469 112.863281 141.414062 112.675781 C 141.601562 112.492188 141.804688 112.324219 142.019531 112.179688 C 142.238281 112.035156 142.46875 111.910156 142.710938 111.808594 C 142.953125 111.710938 143.203125 111.632812 143.460938 111.582031 C 143.71875 111.53125 143.980469 111.503906 144.242188 111.503906 L 157.613281 111.503906 C 157.933594 111.511719 158.253906 111.488281 158.570312 111.433594 C 158.886719 111.375 159.195312 111.289062 159.492188 111.171875 C 159.792969 111.050781 160.078125 110.90625 160.347656 110.730469 C 160.617188 110.554688 160.867188 110.355469 161.097656 110.132812 C 161.328125 109.90625 161.53125 109.660156 161.714844 109.394531 C 161.894531 109.128906 162.046875 108.847656 162.171875 108.550781 C 162.296875 108.257812 162.390625 107.949219 162.453125 107.636719 C 162.519531 107.320312 162.550781 107 162.550781 106.679688 C 162.550781 106.359375 162.519531 106.039062 162.453125 105.726562 C 162.390625 105.410156 162.296875 105.105469 162.171875 104.808594 C 162.046875 104.511719 161.894531 104.230469 161.714844 103.964844 C 161.53125 103.699219 161.328125 103.453125 161.097656 103.226562 C 160.867188 103.003906 160.617188 102.804688 160.347656 102.628906 C 160.078125 102.453125 159.792969 102.308594 159.492188 102.191406 C 159.195312 102.070312 158.886719 101.984375 158.570312 101.929688 C 158.253906 101.871094 157.933594 101.847656 157.613281 101.855469 L 152.886719 101.855469 C 152.0625 101.84375 151.25 101.75 150.445312 101.582031 C 149.640625 101.410156 148.859375 101.164062 148.101562 100.839844 C 147.34375 100.519531 146.628906 100.125 145.945312 99.664062 C 145.265625 99.199219 144.636719 98.675781 144.0625 98.089844 C 143.484375 97.503906 142.96875 96.867188 142.515625 96.179688 C 142.058594 95.492188 141.675781 94.769531 141.367188 94.007812 C 141.054688 93.246094 140.816406 92.464844 140.660156 91.65625 C 140.5 90.847656 140.417969 90.035156 140.417969 89.210938 C 140.417969 88.386719 140.5 87.574219 140.660156 86.765625 C 140.816406 85.960938 141.054688 85.175781 141.367188 84.414062 C 141.675781 83.652344 142.058594 82.929688 142.515625 82.242188 C 142.96875 81.554688 143.484375 80.917969 144.058594 80.332031 C 144.636719 79.746094 145.265625 79.222656 145.945312 78.761719 C 146.628906 78.296875 147.34375 77.902344 148.101562 77.582031 C 148.859375 77.257812 149.640625 77.011719 150.445312 76.839844 C 151.25 76.671875 152.0625 76.578125 152.886719 76.566406 L 166.4375 76.566406 C 166.699219 76.566406 166.960938 76.59375 167.21875 76.644531 C 167.476562 76.695312 167.726562 76.773438 167.96875 76.871094 C 168.210938 76.972656 168.441406 77.097656 168.660156 77.242188 C 168.875 77.386719 169.078125 77.554688 169.265625 77.738281 C 169.449219 77.925781 169.617188 78.125 169.761719 78.34375 C 169.90625 78.5625 170.03125 78.792969 170.128906 79.035156 C 170.230469 79.277344 170.308594 79.527344 170.359375 79.785156 C 170.410156 80.042969 170.433594 80.304688 170.433594 80.566406 C 170.433594 80.828125 170.410156 81.089844 170.359375 81.34375 C 170.308594 81.601562 170.230469 81.851562 170.128906 82.09375 C 170.03125 82.335938 169.90625 82.566406 169.761719 82.785156 C 169.617188 83.003906 169.449219 83.207031 169.265625 83.390625 C 169.078125 83.578125 168.875 83.742188 168.660156 83.890625 C 168.441406 84.035156 168.210938 84.160156 167.96875 84.257812 C 167.726562 84.359375 167.476562 84.433594 167.21875 84.484375 C 166.960938 84.539062 166.699219 84.5625 166.4375 84.5625 L 152.886719 84.5625 C 152.585938 84.570312 152.289062 84.605469 151.996094 84.671875 C 151.699219 84.734375 151.417969 84.828125 151.140625 84.949219 C 150.863281 85.066406 150.601562 85.210938 150.355469 85.382812 C 150.109375 85.554688 149.878906 85.746094 149.667969 85.960938 C 149.457031 86.175781 149.269531 86.410156 149.105469 86.660156 C 148.941406 86.914062 148.800781 87.179688 148.6875 87.457031 C 148.574219 87.734375 148.488281 88.023438 148.429688 88.316406 C 148.375 88.613281 148.34375 88.910156 148.34375 89.210938 C 148.34375 89.511719 148.375 89.808594 148.429688 90.105469 C 148.488281 90.398438 148.574219 90.6875 148.6875 90.964844 C 148.800781 91.246094 148.941406 91.507812 149.105469 91.761719 C 149.269531 92.011719 149.457031 92.246094 149.667969 92.460938 C 149.878906 92.675781 150.109375 92.867188 150.355469 93.039062 C 150.601562 93.210938 150.863281 93.355469 151.140625 93.476562 C 151.417969 93.59375 151.699219 93.6875 151.996094 93.753906 C 152.289062 93.816406 152.585938 93.851562 152.886719 93.859375 L 157.613281 93.859375 C 158.460938 93.847656 159.304688 93.917969 160.140625 94.074219 C 160.976562 94.230469 161.785156 94.464844 162.574219 94.785156 C 163.363281 95.101562 164.113281 95.492188 164.824219 95.957031 C 165.53125 96.421875 166.191406 96.953125 166.796875 97.550781 C 167.398438 98.148438 167.941406 98.796875 168.414062 99.5 C 168.890625 100.203125 169.292969 100.949219 169.621094 101.730469 C 169.949219 102.515625 170.195312 103.324219 170.363281 104.15625 C 170.53125 104.988281 170.613281 105.832031 170.613281 106.679688 C 170.613281 107.53125 170.53125 108.371094 170.363281 109.203125 C 170.195312 110.035156 169.949219 110.84375 169.621094 111.628906 C 169.292969 112.410156 168.890625 113.15625 168.414062 113.859375 C 167.941406 114.5625 167.398438 115.214844 166.796875 115.808594 C 166.191406 116.40625 165.53125 116.9375 164.824219 117.402344 C 164.113281 117.867188 163.363281 118.257812 162.574219 118.578125 C 161.785156 118.894531 160.976562 119.128906 160.140625 119.285156 C 159.304688 119.441406 158.460938 119.511719 157.613281 119.5 Z M 157.613281 119.5 " fill-opacity="1" fill-rule="nonzero"/><path fill="#ffffff" d="M 67.167969 119.5 L 58.425781 119.5 C 58.164062 119.5 57.902344 119.476562 57.644531 119.421875 C 57.386719 119.371094 57.136719 119.296875 56.894531 119.195312 C 56.652344 119.097656 56.421875 118.972656 56.203125 118.828125 C 55.984375 118.679688 55.785156 118.515625 55.597656 118.328125 C 55.414062 118.144531 55.246094 117.941406 55.101562 117.722656 C 54.957031 117.503906 54.832031 117.273438 54.730469 117.03125 C 54.632812 116.789062 54.554688 116.539062 54.503906 116.28125 C 54.453125 116.027344 54.425781 115.765625 54.425781 115.503906 L 54.425781 80.566406 C 54.425781 80.304688 54.453125 80.042969 54.503906 79.785156 C 54.554688 79.527344 54.632812 79.277344 54.730469 79.035156 C 54.832031 78.792969 54.957031 78.5625 55.101562 78.34375 C 55.246094 78.125 55.414062 77.925781 55.597656 77.738281 C 55.785156 77.554688 55.984375 77.386719 56.203125 77.242188 C 56.421875 77.097656 56.652344 76.972656 56.894531 76.871094 C 57.136719 76.773438 57.386719 76.695312 57.644531 76.644531 C 57.902344 76.59375 58.164062 76.566406 58.425781 76.566406 L 67.167969 76.566406 C 67.871094 76.566406 68.574219 76.601562 69.273438 76.671875 C 69.972656 76.742188 70.667969 76.84375 71.355469 76.980469 C 72.046875 77.117188 72.726562 77.289062 73.402344 77.492188 C 74.074219 77.695312 74.734375 77.933594 75.382812 78.203125 C 76.035156 78.472656 76.667969 78.769531 77.289062 79.101562 C 77.910156 79.433594 78.511719 79.796875 79.09375 80.1875 C 79.679688 80.578125 80.242188 80.996094 80.789062 81.441406 C 81.332031 81.886719 81.851562 82.359375 82.347656 82.855469 C 82.84375 83.351562 83.316406 83.871094 83.761719 84.417969 C 84.207031 84.960938 84.628906 85.523438 85.019531 86.109375 C 85.410156 86.691406 85.769531 87.296875 86.101562 87.914062 C 86.433594 88.535156 86.730469 89.171875 87 89.820312 C 87.269531 90.46875 87.507812 91.128906 87.710938 91.804688 C 87.914062 92.476562 88.085938 93.15625 88.222656 93.847656 C 88.359375 94.535156 88.464844 95.230469 88.53125 95.929688 C 88.601562 96.628906 88.636719 97.332031 88.636719 98.035156 C 88.636719 98.738281 88.601562 99.4375 88.53125 100.136719 C 88.464844 100.839844 88.359375 101.53125 88.222656 102.222656 C 88.085938 102.910156 87.914062 103.59375 87.710938 104.265625 C 87.507812 104.9375 87.269531 105.597656 87 106.25 C 86.730469 106.898438 86.433594 107.535156 86.101562 108.152344 C 85.769531 108.773438 85.410156 109.375 85.019531 109.960938 C 84.628906 110.542969 84.207031 111.109375 83.761719 111.652344 C 83.316406 112.195312 82.84375 112.714844 82.347656 113.214844 C 81.851562 113.710938 81.332031 114.183594 80.789062 114.628906 C 80.242188 115.074219 79.679688 115.492188 79.09375 115.882812 C 78.511719 116.273438 77.910156 116.632812 77.289062 116.964844 C 76.667969 117.296875 76.035156 117.597656 75.382812 117.867188 C 74.734375 118.136719 74.074219 118.371094 73.402344 118.574219 C 72.726562 118.78125 72.046875 118.949219 71.355469 119.089844 C 70.667969 119.226562 69.972656 119.328125 69.273438 119.398438 C 68.574219 119.464844 67.871094 119.5 67.167969 119.5 Z M 62.421875 111.503906 L 67.167969 111.503906 C 68.054688 111.503906 68.929688 111.417969 69.796875 111.246094 C 70.664062 111.074219 71.507812 110.820312 72.324219 110.480469 C 73.140625 110.140625 73.917969 109.726562 74.652344 109.234375 C 75.390625 108.742188 76.070312 108.183594 76.695312 107.558594 C 77.320312 106.933594 77.878906 106.253906 78.371094 105.519531 C 78.863281 104.78125 79.277344 104.007812 79.613281 103.191406 C 79.953125 102.371094 80.210938 101.53125 80.382812 100.664062 C 80.554688 99.792969 80.640625 98.917969 80.640625 98.035156 C 80.640625 97.148438 80.554688 96.273438 80.382812 95.40625 C 80.210938 94.539062 79.953125 93.695312 79.613281 92.878906 C 79.277344 92.0625 78.863281 91.285156 78.371094 90.550781 C 77.878906 89.816406 77.320312 89.132812 76.695312 88.507812 C 76.070312 87.882812 75.390625 87.324219 74.652344 86.832031 C 73.917969 86.34375 73.140625 85.925781 72.324219 85.589844 C 71.507812 85.25 70.664062 84.996094 69.796875 84.820312 C 68.929688 84.648438 68.054688 84.5625 67.167969 84.5625 L 62.421875 84.5625 Z M 62.421875 111.503906 " fill-opacity="1" fill-rule="nonzero"/><path fill="#ffffff" d="M 126.417969 119.5 C 125.757812 119.5 125.136719 119.34375 124.554688 119.035156 C 123.96875 118.726562 123.492188 118.296875 123.121094 117.75 L 106.472656 93.460938 L 106.472656 115.492188 C 106.472656 115.753906 106.449219 116.015625 106.398438 116.273438 C 106.347656 116.53125 106.269531 116.78125 106.167969 117.023438 C 106.070312 117.265625 105.945312 117.496094 105.800781 117.714844 C 105.65625 117.933594 105.488281 118.132812 105.304688 118.320312 C 105.117188 118.503906 104.914062 118.671875 104.695312 118.816406 C 104.480469 118.960938 104.25 119.085938 104.007812 119.1875 C 103.761719 119.285156 103.515625 119.363281 103.257812 119.414062 C 103 119.464844 102.738281 119.492188 102.476562 119.492188 C 102.214844 119.492188 101.953125 119.464844 101.695312 119.414062 C 101.4375 119.363281 101.1875 119.285156 100.945312 119.1875 C 100.703125 119.085938 100.472656 118.960938 100.253906 118.816406 C 100.039062 118.671875 99.835938 118.503906 99.648438 118.320312 C 99.464844 118.132812 99.296875 117.933594 99.152344 117.714844 C 99.007812 117.496094 98.882812 117.265625 98.785156 117.023438 C 98.683594 116.78125 98.605469 116.53125 98.554688 116.273438 C 98.503906 116.015625 98.480469 115.753906 98.480469 115.492188 L 98.480469 80.566406 C 98.480469 80.140625 98.546875 79.722656 98.683594 79.320312 C 98.816406 78.914062 99.011719 78.539062 99.261719 78.199219 C 99.515625 77.855469 99.816406 77.558594 100.164062 77.3125 C 100.515625 77.066406 100.890625 76.882812 101.300781 76.757812 C 101.707031 76.628906 102.125 76.570312 102.550781 76.578125 C 102.976562 76.585938 103.390625 76.660156 103.792969 76.800781 C 104.195312 76.941406 104.566406 77.140625 104.90625 77.402344 C 105.242188 77.660156 105.535156 77.964844 105.773438 78.316406 L 122.421875 102.597656 L 122.421875 80.566406 C 122.421875 80.304688 122.445312 80.042969 122.496094 79.785156 C 122.550781 79.527344 122.625 79.277344 122.726562 79.035156 C 122.824219 78.792969 122.949219 78.5625 123.09375 78.34375 C 123.242188 78.125 123.40625 77.925781 123.59375 77.738281 C 123.777344 77.554688 123.980469 77.386719 124.199219 77.242188 C 124.414062 77.097656 124.644531 76.972656 124.890625 76.871094 C 125.132812 76.773438 125.382812 76.695312 125.636719 76.644531 C 125.894531 76.59375 126.15625 76.566406 126.417969 76.566406 C 126.679688 76.566406 126.941406 76.59375 127.199219 76.644531 C 127.457031 76.695312 127.707031 76.773438 127.949219 76.871094 C 128.191406 76.972656 128.421875 77.097656 128.640625 77.242188 C 128.859375 77.386719 129.058594 77.554688 129.246094 77.738281 C 129.429688 77.925781 129.597656 78.125 129.742188 78.34375 C 129.886719 78.5625 130.011719 78.792969 130.113281 79.035156 C 130.210938 79.277344 130.289062 79.527344 130.339844 79.785156 C 130.390625 80.042969 130.414062 80.304688 130.414062 80.566406 L 130.414062 115.503906 C 130.414062 115.765625 130.390625 116.027344 130.339844 116.28125 C 130.289062 116.539062 130.210938 116.789062 130.113281 117.03125 C 130.011719 117.273438 129.886719 117.503906 129.742188 117.722656 C 129.597656 117.941406 129.429688 118.144531 129.246094 118.328125 C 129.058594 118.515625 128.859375 118.679688 128.640625 118.828125 C 128.421875 118.972656 128.191406 119.097656 127.949219 119.195312 C 127.707031 119.296875 127.457031 119.371094 127.199219 119.421875 C 126.941406 119.476562 126.679688 119.5 126.417969 119.5 Z M 126.417969 119.5 " fill-opacity="1" fill-rule="nonzero"/></svg>