<svg xmlns="http://www.w3.org/2000/svg" xmlns:xlink="http://www.w3.org/1999/xlink" width="300" zoomAndPan="magnify" viewBox="0 0 224.87999 225" height="300" preserveAspectRatio="xMidYMid meet" version="1.0"><defs><clipPath id="22643a454c"><path d="M 0 6 L 224.761719 6 L 224.761719 58 L 0 58 Z M 0 6 " clip-rule="nonzero"/></clipPath></defs><path fill="#ffffff" d="M 112.375 218.9375 C 73.859375 218.9375 42.46875 187.679688 42.46875 149.167969 C 42.46875 130.4375 49.722656 112.894531 63.046875 99.707031 C 76.234375 86.515625 93.644531 79.261719 112.375 79.261719 C 131.101562 79.261719 148.644531 86.515625 161.703125 99.707031 C 174.890625 112.894531 182.144531 130.4375 182.144531 149.167969 C 182.144531 167.765625 174.890625 185.304688 161.703125 198.496094 C 148.644531 211.683594 130.972656 218.9375 112.375 218.9375 Z M 112.375 83.746094 C 76.234375 83.746094 46.953125 113.027344 46.953125 149.167969 C 46.953125 185.175781 76.234375 214.585938 112.375 214.585938 C 148.382812 214.585938 177.792969 185.175781 177.792969 149.167969 C 177.792969 113.027344 148.382812 83.746094 112.375 83.746094 Z M 112.375 83.746094 " fill-opacity="1" fill-rule="evenodd"/><path fill="#ffffff" d="M 112.375 218.9375 C 105.25 218.9375 98.789062 211.421875 94.171875 197.570312 C 89.820312 184.644531 87.445312 167.367188 87.445312 149.167969 C 87.445312 130.832031 89.820312 113.554688 94.171875 100.628906 C 98.789062 86.914062 105.25 79.261719 112.375 79.261719 C 119.496094 79.261719 125.960938 86.914062 130.574219 100.628906 C 134.929688 113.554688 137.300781 130.832031 137.300781 149.167969 C 137.300781 167.367188 134.929688 184.644531 130.574219 197.703125 C 125.960938 211.421875 119.496094 218.9375 112.375 218.9375 Z M 112.375 83.746094 C 107.492188 83.746094 102.21875 90.472656 98.394531 101.949219 C 94.171875 114.476562 91.929688 131.230469 91.929688 149.167969 C 91.929688 166.972656 94.171875 183.722656 98.394531 196.253906 C 102.21875 207.726562 107.492188 214.585938 112.375 214.585938 C 117.386719 214.585938 122.53125 207.859375 126.355469 196.253906 C 130.574219 183.722656 132.949219 166.972656 132.949219 149.167969 C 132.949219 131.230469 130.574219 114.476562 126.355469 101.949219 C 122.53125 90.339844 117.386719 83.746094 112.375 83.746094 Z M 112.375 83.746094 " fill-opacity="1" fill-rule="evenodd"/><path fill="#ffffff" d="M 65.023438 199.550781 C 64.496094 199.550781 63.835938 199.417969 63.441406 198.890625 C 62.648438 198.097656 62.648438 196.648438 63.441406 195.855469 C 76.628906 182.929688 94.039062 175.808594 112.375 175.808594 C 130.839844 175.808594 148.117188 182.929688 161.175781 195.855469 C 162.097656 196.648438 162.097656 198.097656 161.308594 198.890625 C 160.382812 199.8125 159.066406 199.8125 158.140625 198.890625 C 145.875 186.886719 129.652344 180.160156 112.375 180.160156 C 95.226562 180.160156 78.871094 186.886719 66.605469 198.890625 C 66.078125 199.417969 65.550781 199.550781 65.023438 199.550781 Z M 65.023438 199.550781 " fill-opacity="1" fill-rule="evenodd"/><path fill="#ffffff" d="M 112.375 122.261719 C 94.039062 122.261719 76.628906 115.269531 63.441406 102.34375 C 62.648438 101.421875 62.648438 100.101562 63.441406 99.179688 C 64.234375 98.386719 65.683594 98.386719 66.605469 99.179688 C 78.871094 111.3125 95.226562 117.90625 112.375 117.90625 C 129.652344 117.90625 145.875 111.3125 158.140625 99.179688 C 159.066406 98.386719 160.382812 98.386719 161.308594 99.179688 C 162.097656 100.101562 162.097656 101.421875 161.175781 102.34375 C 148.117188 115.269531 130.839844 122.261719 112.375 122.261719 Z M 112.375 122.261719 " fill-opacity="1" fill-rule="evenodd"/><path fill="#ffffff" d="M 180.035156 151.277344 L 44.710938 151.277344 C 43.523438 151.277344 42.46875 150.355469 42.46875 149.167969 C 42.46875 147.980469 43.523438 146.925781 44.710938 146.925781 L 180.035156 146.925781 C 181.222656 146.925781 182.144531 147.980469 182.144531 149.167969 C 182.144531 150.355469 181.222656 151.277344 180.035156 151.277344 Z M 180.035156 151.277344 " fill-opacity="1" fill-rule="evenodd"/><path fill="#ffffff" d="M 56.847656 83.746094 L 30.996094 83.746094 C 29.808594 83.746094 28.753906 82.691406 28.753906 81.503906 C 28.753906 80.316406 29.808594 79.261719 30.996094 79.261719 L 56.847656 79.261719 C 58.035156 79.261719 59.089844 80.316406 59.089844 81.503906 C 59.089844 82.691406 58.035156 83.746094 56.847656 83.746094 Z M 56.847656 83.746094 " fill-opacity="1" fill-rule="evenodd"/><path fill="#ffffff" d="M 48.539062 72.933594 L 30.996094 72.933594 C 29.808594 72.933594 28.753906 71.875 28.753906 70.691406 C 28.753906 69.503906 29.808594 68.449219 30.996094 68.449219 L 48.539062 68.449219 C 49.722656 68.449219 50.78125 69.503906 50.78125 70.691406 C 50.78125 71.875 49.722656 72.933594 48.539062 72.933594 Z M 48.539062 72.933594 " fill-opacity="1" fill-rule="evenodd"/><path fill="#ffffff" d="M 193.753906 83.746094 L 168.035156 83.746094 C 166.714844 83.746094 165.792969 82.691406 165.792969 81.503906 C 165.792969 80.316406 166.714844 79.261719 168.035156 79.261719 L 193.753906 79.261719 C 194.941406 79.261719 195.863281 80.316406 195.863281 81.503906 C 195.863281 82.691406 194.941406 83.746094 193.753906 83.746094 Z M 193.753906 83.746094 " fill-opacity="1" fill-rule="evenodd"/><path fill="#ffffff" d="M 193.753906 72.933594 L 176.210938 72.933594 C 174.890625 72.933594 173.96875 71.875 173.96875 70.691406 C 173.96875 69.503906 174.890625 68.449219 176.210938 68.449219 L 193.753906 68.449219 C 194.941406 68.449219 195.863281 69.503906 195.863281 70.691406 C 195.863281 71.875 194.941406 72.933594 193.753906 72.933594 Z M 193.753906 72.933594 " fill-opacity="1" fill-rule="evenodd"/><path fill="#ffffff" d="M 191.773438 165.785156 C 190.457031 165.785156 189.53125 164.863281 189.53125 163.675781 L 189.53125 155.496094 C 189.53125 154.308594 190.457031 153.253906 191.773438 153.253906 C 192.960938 153.253906 193.886719 154.308594 193.886719 155.496094 L 193.886719 163.675781 C 193.886719 164.863281 192.960938 165.785156 191.773438 165.785156 Z M 191.773438 165.785156 " fill-opacity="1" fill-rule="evenodd"/><path fill="#ffffff" d="M 191.773438 144.15625 C 190.457031 144.15625 189.53125 143.230469 189.53125 142.042969 L 189.53125 102.210938 C 189.53125 101.023438 190.457031 99.96875 191.773438 99.96875 C 192.960938 99.96875 193.886719 101.023438 193.886719 102.210938 L 193.886719 142.042969 C 193.886719 143.230469 192.960938 144.15625 191.773438 144.15625 Z M 191.773438 144.15625 " fill-opacity="1" fill-rule="evenodd"/><path fill="#ffffff" d="M 33.105469 165.785156 C 31.917969 165.785156 30.863281 164.863281 30.863281 163.675781 L 30.863281 155.496094 C 30.863281 154.308594 31.917969 153.253906 33.105469 153.253906 C 34.292969 153.253906 35.347656 154.308594 35.347656 155.496094 L 35.347656 163.675781 C 35.347656 164.863281 34.292969 165.785156 33.105469 165.785156 Z M 33.105469 165.785156 " fill-opacity="1" fill-rule="evenodd"/><path fill="#ffffff" d="M 33.105469 144.15625 C 31.917969 144.15625 30.863281 143.230469 30.863281 142.042969 L 30.863281 102.210938 C 30.863281 101.023438 31.917969 99.96875 33.105469 99.96875 C 34.292969 99.96875 35.347656 101.023438 35.347656 102.210938 L 35.347656 142.042969 C 35.347656 143.230469 34.292969 144.15625 33.105469 144.15625 Z M 33.105469 144.15625 " fill-opacity="1" fill-rule="evenodd"/><path fill="#ffffff" d="M 189.929688 200.472656 L 158.800781 200.472656 C 157.480469 200.472656 156.558594 199.550781 156.558594 198.363281 C 156.558594 197.042969 157.480469 196.121094 158.800781 196.121094 L 189.929688 196.121094 C 197.183594 196.121094 203.25 190.054688 203.25 182.800781 L 203.25 54.992188 C 203.25 53.808594 204.171875 52.75 205.492188 52.75 C 206.679688 52.75 207.601562 53.808594 207.601562 54.992188 L 207.601562 182.800781 C 207.601562 192.558594 199.6875 200.472656 189.929688 200.472656 Z M 66.078125 200.472656 L 34.953125 200.472656 C 25.058594 200.472656 17.015625 192.558594 17.015625 182.800781 L 17.015625 54.992188 C 17.015625 53.808594 18.070312 52.75 19.257812 52.75 C 20.445312 52.75 21.5 53.808594 21.5 54.992188 L 21.5 182.800781 C 21.5 190.054688 27.566406 196.121094 34.953125 196.121094 L 66.078125 196.121094 C 67.265625 196.121094 68.320312 197.042969 68.320312 198.363281 C 68.320312 199.550781 67.265625 200.472656 66.078125 200.472656 Z M 66.078125 200.472656 " fill-opacity="1" fill-rule="evenodd"/><g clip-path="url(#22643a454c)"><path fill="#ffffff" d="M 205.492188 57.234375 L 19.257812 57.234375 C 8.574219 57.234375 0 48.398438 0 37.714844 L 0 25.582031 C 0 14.898438 8.574219 6.0625 19.257812 6.0625 L 205.492188 6.0625 C 216.175781 6.0625 224.878906 14.898438 224.878906 25.582031 L 224.878906 37.714844 C 224.878906 48.398438 216.175781 57.234375 205.492188 57.234375 Z M 19.257812 10.546875 C 11.078125 10.546875 4.351562 17.273438 4.351562 25.582031 L 4.351562 37.714844 C 4.351562 46.023438 11.078125 52.75 19.257812 52.75 L 205.492188 52.75 C 213.800781 52.75 220.527344 46.023438 220.527344 37.714844 L 220.527344 25.582031 C 220.527344 17.273438 213.800781 10.546875 205.492188 10.546875 Z M 19.257812 10.546875 " fill-opacity="1" fill-rule="evenodd"/></g><path fill="#ffffff" d="M 27.960938 43.386719 C 21.628906 43.386719 16.355469 38.113281 16.355469 31.648438 C 16.355469 25.1875 21.628906 19.910156 27.960938 19.910156 C 34.425781 19.910156 39.699219 25.1875 39.699219 31.648438 C 39.699219 38.113281 34.425781 43.386719 27.960938 43.386719 Z M 27.960938 24.394531 C 24.003906 24.394531 20.839844 27.691406 20.839844 31.648438 C 20.839844 35.738281 24.003906 38.902344 27.960938 38.902344 C 32.050781 38.902344 35.214844 35.738281 35.214844 31.648438 C 35.214844 27.558594 32.050781 24.394531 27.960938 24.394531 Z M 27.960938 24.394531 " fill-opacity="1" fill-rule="evenodd"/><path fill="#ffffff" d="M 56.976562 43.386719 C 50.515625 43.386719 45.238281 38.113281 45.238281 31.648438 C 45.238281 25.1875 50.515625 19.910156 56.976562 19.910156 C 63.441406 19.910156 68.71875 25.1875 68.71875 31.648438 C 68.71875 38.113281 63.441406 43.386719 56.976562 43.386719 Z M 56.976562 24.394531 C 52.890625 24.394531 49.722656 27.558594 49.722656 31.648438 C 49.722656 35.738281 52.890625 38.902344 56.976562 38.902344 C 60.933594 38.902344 64.234375 35.738281 64.234375 31.648438 C 64.234375 27.691406 60.933594 24.394531 56.976562 24.394531 Z M 56.976562 24.394531 " fill-opacity="1" fill-rule="evenodd"/><path fill="#ffffff" d="M 85.863281 43.386719 C 79.402344 43.386719 74.125 38.113281 74.125 31.648438 C 74.125 25.1875 79.402344 19.910156 85.863281 19.910156 C 92.324219 19.910156 97.601562 25.1875 97.601562 31.648438 C 97.601562 38.113281 92.324219 43.386719 85.863281 43.386719 Z M 85.863281 24.394531 C 81.773438 24.394531 78.609375 27.558594 78.609375 31.648438 C 78.609375 35.738281 81.773438 38.902344 85.863281 38.902344 C 89.953125 38.902344 93.117188 35.738281 93.117188 31.648438 C 93.117188 27.558594 89.953125 24.394531 85.863281 24.394531 Z M 85.863281 24.394531 " fill-opacity="1" fill-rule="evenodd"/><path fill="#ffffff" d="M 108.550781 57.234375 C 108.285156 57.234375 108.152344 57.105469 108.023438 57.105469 C 106.835938 56.839844 106.042969 55.652344 106.4375 54.464844 L 118.835938 7.777344 C 119.101562 6.589844 120.289062 5.929688 121.476562 6.191406 C 122.660156 6.457031 123.320312 7.777344 123.058594 8.832031 L 110.660156 55.523438 C 110.394531 56.578125 109.472656 57.234375 108.550781 57.234375 Z M 108.550781 57.234375 " fill-opacity="1" fill-rule="evenodd"/><path fill="#ffffff" d="M 199.6875 40.484375 L 144.554688 40.484375 C 139.542969 40.484375 135.71875 36.527344 135.71875 31.648438 C 135.71875 26.769531 139.675781 22.679688 144.554688 22.679688 L 199.6875 22.679688 C 204.4375 22.679688 208.394531 26.769531 208.394531 31.648438 C 208.394531 36.527344 204.566406 40.484375 199.6875 40.484375 Z M 144.554688 27.164062 C 142.050781 27.164062 140.070312 29.144531 140.070312 31.648438 C 140.070312 34.15625 142.050781 36 144.554688 36 L 199.6875 36 C 202.0625 36 204.039062 34.15625 204.039062 31.648438 C 204.039062 29.144531 202.0625 27.164062 199.6875 27.164062 Z M 144.554688 27.164062 " fill-opacity="1" fill-rule="evenodd"/></svg>