<svg xmlns="http://www.w3.org/2000/svg" xmlns:xlink="http://www.w3.org/1999/xlink" width="300" zoomAndPan="magnify" viewBox="0 0 224.87999 225" height="300" preserveAspectRatio="xMidYMid meet" version="1.0"><defs><clipPath id="d31427f49a"><path d="M 55 174 L 170 174 L 170 212.570312 L 55 212.570312 Z M 55 174 " clip-rule="nonzero"/></clipPath><clipPath id="525154a007"><path d="M 190 27 L 224.761719 27 L 224.761719 142 L 190 142 Z M 190 27 " clip-rule="nonzero"/></clipPath><clipPath id="2951a12b33"><path d="M 0 148 L 224.761719 148 L 224.761719 168 L 0 168 Z M 0 148 " clip-rule="nonzero"/></clipPath><clipPath id="d6ebe294e5"><path d="M 39 12.429688 L 184 12.429688 L 184 142 L 39 142 Z M 39 12.429688 " clip-rule="nonzero"/></clipPath></defs><g clip-path="url(#d31427f49a)"><path fill="#ffffff" d="M 169.832031 210.636719 C 169.832031 209.601562 168.949219 208.722656 167.902344 208.722656 L 141.640625 208.722656 C 140.171875 208.722656 138.878906 207.78125 138.425781 206.390625 L 128.027344 174.390625 L 96.851562 174.390625 L 86.453125 206.390625 C 86 207.78125 84.703125 208.722656 83.242188 208.722656 L 56.976562 208.722656 C 55.929688 208.722656 55.046875 209.601562 55.046875 210.636719 C 55.046875 211.679688 55.929688 212.566406 56.976562 212.566406 L 167.902344 212.566406 C 168.949219 212.566406 169.832031 211.679688 169.832031 210.636719 Z M 169.832031 210.636719 " fill-opacity="1" fill-rule="nonzero"/></g><g clip-path="url(#525154a007)"><path fill="#ffffff" d="M 216.117188 27.816406 L 190.03125 27.816406 L 190.03125 141.722656 L 224.828125 141.722656 L 224.828125 36.519531 C 224.828125 31.722656 220.921875 27.816406 216.117188 27.816406 Z M 216.117188 27.816406 " fill-opacity="1" fill-rule="nonzero"/></g><g clip-path="url(#2951a12b33)"><path fill="#ffffff" d="M 0.0507812 158.925781 C 0.0507812 163.730469 3.964844 167.636719 8.773438 167.636719 L 216.117188 167.636719 C 220.921875 167.636719 224.828125 163.730469 224.828125 158.925781 L 224.828125 148.480469 L 0.0507812 148.480469 Z M 0.0507812 158.925781 " fill-opacity="1" fill-rule="nonzero"/></g><path fill="#ffffff" d="M 108.015625 52.816406 L 108.015625 31.945312 C 102.644531 37.292969 98.328125 43.480469 95.203125 50.226562 C 99.296875 51.648438 103.597656 52.519531 108.015625 52.816406 Z M 108.015625 52.816406 " fill-opacity="1" fill-rule="nonzero"/><path fill="#ffffff" d="M 144.234375 40.390625 C 137.816406 34.628906 129.875 30.535156 121.105469 28.777344 C 126.371094 34.363281 130.640625 40.710938 133.796875 47.582031 C 137.539062 45.667969 141.042969 43.265625 144.234375 40.390625 Z M 144.234375 40.390625 " fill-opacity="1" fill-rule="nonzero"/><path fill="#ffffff" d="M 114.773438 31.953125 L 114.773438 52.816406 C 119.191406 52.519531 123.488281 51.648438 127.578125 50.230469 C 124.449219 43.488281 120.136719 37.300781 114.773438 31.953125 Z M 114.773438 31.953125 " fill-opacity="1" fill-rule="nonzero"/><path fill="#ffffff" d="M 130.085938 56.511719 C 125.207031 58.230469 120.0625 59.273438 114.773438 59.578125 L 114.773438 73.703125 L 133.375 73.703125 C 133.066406 67.773438 131.949219 62 130.085938 56.511719 Z M 130.085938 56.511719 " fill-opacity="1" fill-rule="nonzero"/><path fill="#ffffff" d="M 82.636719 80.453125 L 62.242188 80.453125 C 62.976562 91.265625 67.214844 101.128906 73.835938 108.917969 C 77.675781 105.4375 81.914062 102.542969 86.449219 100.289062 C 84.253906 93.96875 82.957031 87.304688 82.636719 80.453125 Z M 82.636719 80.453125 " fill-opacity="1" fill-rule="nonzero"/><path fill="#ffffff" d="M 78.550781 113.765625 C 84.972656 119.527344 92.910156 123.621094 101.679688 125.375 C 96.410156 119.789062 92.136719 113.441406 88.980469 106.574219 C 85.246094 108.488281 81.746094 110.890625 78.550781 113.765625 Z M 78.550781 113.765625 " fill-opacity="1" fill-rule="nonzero"/><path fill="#ffffff" d="M 92.683594 97.640625 C 97.570312 95.910156 102.722656 94.867188 108.015625 94.5625 L 108.015625 80.453125 L 89.398438 80.453125 C 89.707031 86.382812 90.828125 92.15625 92.683594 97.640625 Z M 92.683594 97.640625 " fill-opacity="1" fill-rule="nonzero"/><path fill="#ffffff" d="M 108.015625 122.210938 L 108.015625 101.324219 C 103.597656 101.621094 99.292969 102.5 95.199219 103.925781 C 98.328125 110.675781 102.644531 116.863281 108.015625 122.210938 Z M 108.015625 122.210938 " fill-opacity="1" fill-rule="nonzero"/><path fill="#ffffff" d="M 89.398438 73.703125 L 108.015625 73.703125 L 108.015625 59.578125 C 102.722656 59.273438 97.574219 58.230469 92.691406 56.511719 C 90.828125 62 89.707031 67.773438 89.398438 73.703125 Z M 89.398438 73.703125 " fill-opacity="1" fill-rule="nonzero"/><path fill="#ffffff" d="M 32.746094 27.816406 L 8.773438 27.816406 C 3.964844 27.816406 0.0507812 31.722656 0.0507812 36.519531 L 0.0507812 141.722656 L 32.746094 141.722656 Z M 32.746094 27.816406 " fill-opacity="1" fill-rule="nonzero"/><g clip-path="url(#d6ebe294e5)"><path fill="#ffffff" d="M 183.273438 24.4375 C 183.273438 17.816406 177.894531 12.433594 171.28125 12.433594 L 51.507812 12.433594 C 44.882812 12.433594 39.5 17.816406 39.5 24.4375 L 39.5 141.722656 L 183.273438 141.722656 Z M 151.738281 115.902344 C 151.613281 116.039062 151.484375 116.171875 151.34375 116.308594 C 141.21875 126.621094 127.136719 133.046875 111.578125 133.09375 C 111.519531 133.097656 111.46875 133.097656 111.410156 133.097656 L 111.375 133.097656 C 111.320312 133.097656 111.261719 133.097656 111.207031 133.09375 C 95.710938 133.050781 81.667969 126.667969 71.554688 116.417969 C 71.546875 116.414062 71.539062 116.410156 71.535156 116.398438 C 71.335938 116.207031 71.148438 116.015625 70.96875 115.820312 C 61.3125 105.75 55.375 92.09375 55.375 77.078125 C 55.375 62.058594 61.3125 48.40625 70.964844 38.335938 C 71.167969 38.128906 71.363281 37.925781 71.566406 37.722656 C 81.691406 27.480469 95.71875 21.109375 111.210938 21.066406 C 111.265625 21.0625 111.3125 21.0625 111.367188 21.0625 L 111.425781 21.0625 C 111.476562 21.0625 111.53125 21.0625 111.578125 21.066406 C 127.121094 21.113281 141.195312 27.523438 151.324219 37.828125 C 151.464844 37.96875 151.605469 38.113281 151.738281 38.257812 C 161.441406 48.335938 167.410156 62.019531 167.410156 77.078125 C 167.410156 92.136719 161.441406 105.820312 151.738281 115.902344 Z M 151.738281 115.902344 " fill-opacity="1" fill-rule="nonzero"/></g><path fill="#ffffff" d="M 136.324219 100.285156 C 140.863281 102.542969 145.109375 105.4375 148.949219 108.921875 C 155.570312 101.132812 159.808594 91.269531 160.542969 80.453125 L 140.132812 80.453125 C 139.816406 87.300781 138.519531 93.964844 136.324219 100.285156 Z M 136.324219 100.285156 " fill-opacity="1" fill-rule="nonzero"/><path fill="#ffffff" d="M 114.773438 101.324219 L 114.773438 122.203125 C 120.136719 116.851562 124.453125 110.664062 127.578125 103.921875 C 123.488281 102.5 119.191406 101.621094 114.773438 101.324219 Z M 114.773438 101.324219 " fill-opacity="1" fill-rule="nonzero"/><path fill="#ffffff" d="M 121.105469 125.375 C 129.875 123.621094 137.808594 119.527344 144.230469 113.769531 C 141.035156 110.894531 137.535156 108.488281 133.796875 106.574219 C 130.640625 113.441406 126.371094 119.789062 121.105469 125.375 Z M 121.105469 125.375 " fill-opacity="1" fill-rule="nonzero"/><path fill="#ffffff" d="M 133.375 80.453125 L 114.773438 80.453125 L 114.773438 94.5625 C 120.0625 94.867188 125.210938 95.910156 130.09375 97.640625 C 131.949219 92.152344 133.066406 86.382812 133.375 80.453125 Z M 133.375 80.453125 " fill-opacity="1" fill-rule="nonzero"/><path fill="#ffffff" d="M 136.324219 53.867188 C 138.519531 60.1875 139.816406 66.851562 140.132812 73.703125 L 160.542969 73.703125 C 159.808594 62.886719 155.570312 53.019531 148.949219 45.226562 C 145.109375 48.714844 140.867188 51.609375 136.324219 53.867188 Z M 136.324219 53.867188 " fill-opacity="1" fill-rule="nonzero"/><path fill="#ffffff" d="M 101.679688 28.777344 C 92.910156 30.535156 84.972656 34.628906 78.550781 40.390625 C 81.746094 43.257812 85.246094 45.660156 88.984375 47.570312 C 92.140625 40.707031 96.410156 34.363281 101.679688 28.777344 Z M 101.679688 28.777344 " fill-opacity="1" fill-rule="nonzero"/><path fill="#ffffff" d="M 86.449219 53.863281 C 81.910156 51.605469 77.667969 48.714844 73.835938 45.238281 C 67.214844 53.027344 62.976562 62.890625 62.242188 73.703125 L 82.636719 73.703125 C 82.957031 66.851562 84.253906 60.179688 86.449219 53.863281 Z M 86.449219 53.863281 " fill-opacity="1" fill-rule="nonzero"/></svg>