<svg xmlns="http://www.w3.org/2000/svg" xmlns:xlink="http://www.w3.org/1999/xlink" width="300" zoomAndPan="magnify" viewBox="0 0 224.87999 225" height="300" preserveAspectRatio="xMidYMid meet" version="1.0"><defs><clipPath id="7b3dcd80d9"><path d="M 0 42 L 224.761719 42 L 224.761719 224.9375 L 0 224.9375 Z M 0 42 " clip-rule="nonzero"/></clipPath><clipPath id="5f129647f1"><path d="M 0 0.0585938 L 224.761719 0.0585938 L 224.761719 35 L 0 35 Z M 0 0.0585938 " clip-rule="nonzero"/></clipPath></defs><g clip-path="url(#7b3dcd80d9)"><path fill="#ffffff" d="M 0.0234375 42.347656 L 0.0234375 218.003906 C 0.0234375 221.832031 3.132812 224.941406 6.960938 224.941406 L 217.917969 224.941406 C 221.746094 224.941406 224.855469 221.832031 224.855469 218.003906 L 224.855469 42.347656 Z M 7.390625 52.871094 C 7.390625 50.816406 9.066406 49.140625 11.121094 49.140625 L 35.039062 49.140625 C 37.097656 49.140625 38.773438 50.816406 38.773438 52.871094 C 38.773438 54.929688 37.097656 56.601562 35.039062 56.601562 L 14.851562 56.601562 L 14.851562 100.898438 C 14.851562 102.957031 13.179688 104.632812 11.121094 104.632812 C 9.066406 104.632812 7.390625 102.957031 7.390625 100.898438 Z M 41.832031 162.800781 C 41.640625 162.847656 41.449219 162.847656 41.210938 162.847656 C 40.109375 162.847656 39.011719 162.371094 38.292969 161.460938 L 7.390625 123.621094 C 6.53125 122.570312 6.289062 121.183594 6.769531 119.9375 C 7.246094 118.695312 8.347656 117.785156 9.6875 117.546875 L 33.941406 113.578125 C 38.914062 86.214844 59.820312 63.875 89.046875 54.878906 C 119.183594 45.601562 149.945312 53.0625 169.316406 74.351562 C 170.703125 75.882812 170.609375 78.273438 169.078125 79.660156 C 167.546875 81.046875 165.15625 80.953125 163.769531 79.421875 C 146.402344 60.285156 118.609375 53.636719 91.25 62.054688 C 65.65625 69.949219 47.144531 88.941406 41.832031 112.285156 L 57.859375 109.652344 C 59.199219 109.414062 60.539062 109.941406 61.351562 110.992188 C 62.210938 112.046875 62.449219 113.433594 61.972656 114.675781 L 44.65625 160.359375 C 44.273438 161.652344 43.171875 162.5625 41.832031 162.800781 Z M 161.375 130.703125 L 161.375 130.941406 C 160.898438 145.867188 155.398438 158.398438 145.445312 167.25 C 143.675781 168.78125 141.859375 170.214844 139.898438 171.457031 C 132.003906 176.910156 122.199219 179.640625 112.441406 179.640625 C 102.632812 179.640625 92.828125 176.910156 84.980469 171.457031 C 83.019531 170.214844 81.15625 168.78125 79.433594 167.25 C 69.484375 158.445312 63.980469 145.867188 63.503906 130.941406 L 63.503906 130.703125 C 63.980469 115.777344 69.484375 103.242188 79.433594 94.394531 C 81.15625 92.863281 82.972656 91.476562 84.886719 90.230469 C 100.625 79.277344 124.160156 79.230469 139.945312 90.136719 C 141.90625 91.378906 143.773438 92.816406 145.496094 94.347656 C 155.398438 103.242188 160.945312 115.824219 161.375 130.703125 Z M 217.105469 214.414062 C 217.105469 216.472656 215.433594 218.148438 213.375 218.148438 L 189.457031 218.148438 C 187.398438 218.148438 185.726562 216.472656 185.726562 214.414062 C 185.726562 212.359375 187.398438 210.683594 189.457031 210.683594 L 209.644531 210.683594 L 209.644531 166.386719 C 209.644531 164.332031 211.316406 162.65625 213.375 162.65625 C 215.433594 162.65625 217.105469 164.332031 217.105469 166.386719 Z M 218.207031 129.171875 C 217.871094 130.460938 216.867188 131.46875 215.574219 131.851562 L 192.328125 138.308594 C 191.515625 153.425781 185.964844 167.582031 176.253906 179.542969 C 166.734375 191.214844 153.769531 200.207031 138.796875 205.566406 C 129.230469 208.960938 119.425781 210.683594 109.761719 210.683594 C 104.261719 210.683594 98.804688 210.109375 93.496094 209.011719 C 77.566406 205.660156 63.648438 197.386719 53.265625 184.996094 C 51.925781 183.417969 52.117188 181.027344 53.746094 179.734375 C 55.324219 178.394531 57.714844 178.632812 59.007812 180.210938 C 80.820312 206.1875 113.253906 206.714844 136.308594 198.535156 C 163.671875 188.824219 182.136719 166.386719 184.671875 140.507812 L 168.550781 145.003906 C 168.21875 145.101562 167.882812 145.148438 167.546875 145.148438 C 166.589844 145.148438 165.632812 144.765625 164.917969 144.097656 C 163.960938 143.140625 163.578125 141.800781 163.914062 140.507812 L 176.109375 93.199219 C 176.445312 91.90625 177.449219 90.902344 178.742188 90.519531 C 180.03125 90.183594 181.421875 90.519531 182.378906 91.476562 L 217.25 125.679688 C 218.160156 126.492188 218.542969 127.878906 218.207031 129.171875 Z M 218.207031 129.171875 " fill-opacity="1" fill-rule="nonzero"/></g><g clip-path="url(#5f129647f1)"><path fill="#ffffff" d="M 217.917969 0.0585938 L 6.960938 0.0585938 C 3.132812 0.0585938 0.0234375 3.167969 0.0234375 6.996094 L 0.0234375 34.835938 L 224.855469 34.835938 L 224.855469 6.996094 C 224.855469 3.167969 221.746094 0.0585938 217.917969 0.0585938 Z M 35.804688 17.757812 C 35.664062 26.179688 29.15625 30.578125 22.792969 30.578125 C 16.433594 30.578125 9.925781 26.179688 9.78125 17.757812 L 9.78125 17.617188 C 9.878906 9.246094 16.433594 4.84375 22.746094 4.84375 C 25.902344 4.84375 29.15625 5.945312 31.597656 8.097656 C 34.035156 10.25 35.710938 13.453125 35.757812 17.664062 L 35.757812 17.757812 Z M 66.039062 17.757812 C 65.894531 26.179688 59.390625 30.578125 53.027344 30.578125 C 46.664062 30.578125 40.160156 26.179688 40.015625 17.757812 L 40.015625 17.617188 C 40.160156 9.195312 46.664062 4.796875 53.027344 4.796875 C 56.183594 4.796875 59.4375 5.894531 61.875 8.046875 C 64.316406 10.203125 65.992188 13.40625 66.039062 17.617188 Z M 96.320312 17.757812 C 96.175781 26.179688 89.667969 30.578125 83.308594 30.578125 C 76.945312 30.578125 70.4375 26.179688 70.296875 17.757812 C 70.296875 17.710938 70.296875 17.664062 70.296875 17.617188 C 70.4375 9.195312 76.945312 4.796875 83.308594 4.796875 C 86.464844 4.796875 89.71875 5.894531 92.15625 8.046875 C 94.597656 10.203125 96.269531 13.40625 96.320312 17.617188 Z M 160.996094 21.441406 L 150.996094 21.441406 C 148.9375 21.441406 147.265625 19.769531 147.265625 17.710938 C 147.265625 15.65625 148.9375 13.980469 150.996094 13.980469 L 160.996094 13.980469 C 163.050781 13.980469 164.726562 15.65625 164.726562 17.710938 C 164.726562 19.769531 163.050781 21.441406 160.996094 21.441406 Z M 186.15625 21.441406 L 176.160156 21.441406 C 174.101562 21.441406 172.425781 19.769531 172.425781 17.710938 C 172.425781 15.65625 174.101562 13.980469 176.160156 13.980469 L 186.15625 13.980469 C 188.214844 13.980469 189.886719 15.65625 189.886719 17.710938 C 189.933594 19.769531 188.261719 21.441406 186.15625 21.441406 Z M 211.367188 21.441406 L 201.367188 21.441406 C 199.3125 21.441406 197.636719 19.769531 197.636719 17.710938 C 197.636719 15.65625 199.3125 13.980469 201.367188 13.980469 L 211.367188 13.980469 C 213.421875 13.980469 215.097656 15.65625 215.097656 17.710938 C 215.144531 19.769531 213.472656 21.441406 211.367188 21.441406 Z M 211.367188 21.441406 " fill-opacity="1" fill-rule="nonzero"/></g><path fill="#ffffff" d="M 28.296875 17.710938 C 28.246094 19.722656 27.480469 21.058594 26.429688 21.921875 C 25.378906 22.78125 24.039062 23.117188 22.792969 23.117188 C 20.308594 23.117188 17.386719 21.683594 17.246094 17.710938 C 17.292969 15.703125 18.058594 14.363281 19.109375 13.503906 C 20.164062 12.640625 21.503906 12.304688 22.746094 12.304688 C 25.28125 12.304688 28.199219 13.742188 28.296875 17.710938 Z M 28.296875 17.710938 " fill-opacity="1" fill-rule="nonzero"/><path fill="#ffffff" d="M 58.574219 17.710938 C 58.527344 19.722656 57.761719 21.058594 56.710938 21.921875 C 55.65625 22.78125 54.320312 23.117188 53.074219 23.117188 C 50.585938 23.117188 47.667969 21.683594 47.574219 17.710938 C 47.621094 15.703125 48.386719 14.363281 49.4375 13.503906 C 50.492188 12.640625 51.832031 12.304688 53.074219 12.304688 C 55.515625 12.304688 58.480469 13.742188 58.574219 17.710938 Z M 58.574219 17.710938 " fill-opacity="1" fill-rule="nonzero"/><path fill="#ffffff" d="M 88.808594 17.710938 C 88.714844 21.683594 85.796875 23.117188 83.308594 23.117188 C 80.820312 23.117188 77.902344 21.683594 77.804688 17.710938 C 77.855469 15.703125 78.621094 14.363281 79.671875 13.503906 C 80.722656 12.640625 82.0625 12.304688 83.308594 12.304688 C 85.796875 12.304688 88.714844 13.742188 88.808594 17.710938 Z M 88.808594 17.710938 " fill-opacity="1" fill-rule="nonzero"/><path fill="#ffffff" d="M 151.140625 145.769531 C 148.84375 152.132812 145.207031 157.300781 140.808594 161.269531 C 138.03125 160.359375 135.164062 159.59375 132.246094 158.972656 C 132.914062 156.964844 133.488281 154.761719 134.015625 152.371094 C 141.238281 150.839844 146.882812 148.542969 151.140625 145.769531 Z M 151.140625 145.769531 " fill-opacity="1" fill-rule="nonzero"/><path fill="#ffffff" d="M 92.636719 102.667969 C 91.964844 104.679688 91.390625 106.878906 90.867188 109.269531 C 83.640625 110.851562 77.996094 113.144531 73.738281 115.921875 C 76.035156 109.558594 79.671875 104.390625 84.074219 100.421875 C 86.800781 101.332031 89.667969 102.046875 92.636719 102.667969 Z M 92.636719 102.667969 " fill-opacity="1" fill-rule="nonzero"/><path fill="#ffffff" d="M 151.140625 115.921875 C 146.882812 113.144531 141.238281 110.851562 134.015625 109.269531 C 133.488281 106.925781 132.914062 104.726562 132.246094 102.667969 C 135.210938 102.046875 138.082031 101.28125 140.808594 100.375 C 145.207031 104.390625 148.84375 109.558594 151.140625 115.921875 Z M 151.140625 115.921875 " fill-opacity="1" fill-rule="nonzero"/><path fill="#ffffff" d="M 132.914062 94.871094 C 131.71875 95.160156 130.570312 95.398438 129.328125 95.636719 C 129.085938 95.113281 128.800781 94.632812 128.511719 94.15625 C 128.179688 93.582031 127.84375 93.007812 127.507812 92.480469 C 129.375 93.101562 131.191406 93.914062 132.914062 94.871094 Z M 132.914062 94.871094 " fill-opacity="1" fill-rule="nonzero"/><path fill="#ffffff" d="M 97.324219 169.210938 C 95.503906 168.539062 93.6875 167.726562 91.917969 166.820312 C 93.113281 166.53125 94.308594 166.292969 95.503906 166.054688 C 96.078125 167.203125 96.703125 168.253906 97.324219 169.210938 Z M 97.324219 169.210938 " fill-opacity="1" fill-rule="nonzero"/><path fill="#ffffff" d="M 92.636719 159.019531 C 89.667969 159.644531 86.800781 160.410156 84.074219 161.269531 C 79.671875 157.300781 76.085938 152.132812 73.738281 145.769531 C 77.996094 148.542969 83.640625 150.839844 90.867188 152.417969 C 91.390625 154.761719 91.964844 156.964844 92.636719 159.019531 Z M 92.636719 159.019531 " fill-opacity="1" fill-rule="nonzero"/><path fill="#ffffff" d="M 125.929688 153.757812 C 125.546875 155.195312 125.164062 156.484375 124.734375 157.730469 C 116.648438 156.726562 108.230469 156.726562 100.144531 157.730469 C 99.714844 156.484375 99.285156 155.144531 98.949219 153.757812 C 103.0625 154.238281 107.5625 154.523438 112.441406 154.574219 L 112.488281 154.574219 C 117.367188 154.523438 121.863281 154.285156 125.929688 153.757812 Z M 125.929688 153.757812 " fill-opacity="1" fill-rule="nonzero"/><path fill="#ffffff" d="M 153.292969 130.84375 C 153.292969 135.917969 147.121094 141.226562 135.355469 144.335938 C 135.832031 140.222656 136.167969 135.726562 136.167969 130.84375 L 136.167969 130.796875 C 136.117188 125.917969 135.832031 121.421875 135.355469 117.308594 C 147.121094 120.464844 153.292969 125.773438 153.292969 130.84375 Z M 153.292969 130.84375 " fill-opacity="1" fill-rule="nonzero"/><path fill="#ffffff" d="M 128.703125 130.84375 C 128.65625 136.441406 128.273438 141.464844 127.554688 145.960938 C 123.058594 146.632812 118.035156 147.0625 112.441406 147.109375 C 106.84375 147.0625 101.820312 146.679688 97.324219 145.960938 C 96.652344 141.464844 96.222656 136.441406 96.175781 130.84375 C 96.222656 125.25 96.605469 120.226562 97.324219 115.730469 C 101.820312 115.058594 106.84375 114.628906 112.441406 114.582031 C 118.035156 114.628906 123.058594 115.011719 127.554688 115.730469 C 128.226562 120.226562 128.65625 125.25 128.703125 130.84375 Z M 128.703125 130.84375 " fill-opacity="1" fill-rule="nonzero"/><path fill="#ffffff" d="M 88.714844 130.894531 C 88.761719 135.773438 89.046875 140.269531 89.527344 144.382812 C 77.757812 141.273438 71.585938 135.917969 71.585938 130.84375 C 71.585938 125.773438 77.757812 120.464844 89.527344 117.355469 C 89.046875 121.46875 88.714844 125.964844 88.714844 130.84375 Z M 88.714844 130.894531 " fill-opacity="1" fill-rule="nonzero"/><path fill="#ffffff" d="M 125.976562 107.929688 C 121.863281 107.453125 117.367188 107.167969 112.488281 107.117188 L 112.441406 107.117188 C 107.5625 107.167969 103.0625 107.453125 98.949219 107.929688 C 99.332031 106.542969 99.714844 105.203125 100.144531 103.960938 C 104.210938 104.441406 108.324219 104.726562 112.441406 104.726562 C 116.554688 104.726562 120.667969 104.488281 124.734375 103.960938 C 125.164062 105.203125 125.59375 106.496094 125.976562 107.929688 Z M 125.976562 107.929688 " fill-opacity="1" fill-rule="nonzero"/><path fill="#ffffff" d="M 121.433594 96.785156 C 115.453125 97.359375 109.378906 97.359375 103.398438 96.785156 C 106.125 92.289062 109.332031 89.992188 112.390625 89.992188 C 115.453125 89.992188 118.753906 92.289062 121.433594 96.785156 Z M 121.433594 96.785156 " fill-opacity="1" fill-rule="nonzero"/><path fill="#ffffff" d="M 97.324219 92.480469 C 96.703125 93.4375 96.078125 94.539062 95.503906 95.636719 C 94.308594 95.398438 93.113281 95.160156 91.964844 94.871094 C 93.6875 93.914062 95.503906 93.148438 97.324219 92.480469 Z M 97.324219 92.480469 " fill-opacity="1" fill-rule="nonzero"/><path fill="#ffffff" d="M 132.914062 166.820312 C 131.191406 167.773438 129.375 168.539062 127.507812 169.210938 C 128.128906 168.207031 128.753906 167.152344 129.328125 166.054688 C 130.570312 166.292969 131.765625 166.53125 132.914062 166.820312 Z M 132.914062 166.820312 " fill-opacity="1" fill-rule="nonzero"/><path fill="#ffffff" d="M 121.433594 164.90625 C 118.707031 169.402344 115.5 171.699219 112.441406 171.699219 C 109.378906 171.699219 106.125 169.402344 103.445312 164.90625 C 109.378906 164.332031 115.5 164.332031 121.433594 164.90625 Z M 121.433594 164.90625 " fill-opacity="1" fill-rule="nonzero"/><path fill="#ffffff" d="M 52.691406 118.167969 L 40.015625 151.703125 L 17.339844 123.910156 L 37.910156 120.558594 Z M 52.691406 118.167969 " fill-opacity="1" fill-rule="nonzero"/><path fill="#ffffff" d="M 207.300781 126.347656 L 172.761719 135.964844 L 181.707031 101.234375 Z M 207.300781 126.347656 " fill-opacity="1" fill-rule="nonzero"/></svg>