<svg xmlns="http://www.w3.org/2000/svg" xmlns:xlink="http://www.w3.org/1999/xlink" width="300" zoomAndPan="magnify" viewBox="0 0 224.87999 225" height="300" preserveAspectRatio="xMidYMid meet" version="1.0"><defs><clipPath id="e74d5c10c1"><path d="M 0 22.828125 L 224.761719 22.828125 L 224.761719 201.984375 L 0 201.984375 Z M 0 22.828125 " clip-rule="nonzero"/></clipPath></defs><g clip-path="url(#e74d5c10c1)"><path fill="#ffffff" d="M 31.507812 65.886719 C 30.546875 67.316406 29.988281 69.035156 29.988281 70.878906 L 29.988281 116.058594 C 29.988281 117.816406 28.5625 119.242188 26.804688 119.242188 C 25.046875 119.242188 23.617188 117.816406 23.617188 116.058594 L 23.617188 70.878906 C 23.617188 63.640625 28.675781 57.539062 35.4375 55.925781 L 35.4375 51.089844 C 35.4375 43.699219 41.273438 37.617188 48.570312 37.222656 L 48.570312 35.074219 C 48.570312 28.332031 54.074219 22.828125 60.816406 22.828125 L 187.613281 22.828125 C 194.355469 22.828125 199.863281 28.332031 199.863281 35.074219 L 199.863281 37.222656 C 207.160156 37.617188 212.992188 43.699219 212.992188 51.089844 L 212.992188 55.925781 C 219.753906 57.539062 224.8125 63.640625 224.8125 70.878906 L 224.8125 173.46875 C 224.8125 177.550781 223.207031 181.273438 220.589844 184.03125 C 220.523438 184.105469 220.453125 184.179688 220.378906 184.246094 C 217.589844 187.078125 213.714844 188.839844 209.445312 188.839844 L 82.117188 188.839844 C 80.359375 188.839844 78.933594 187.410156 78.933594 185.652344 C 78.933594 183.894531 80.359375 182.46875 82.117188 182.46875 L 209.445312 182.46875 C 210.734375 182.46875 211.964844 182.195312 213.074219 181.699219 L 148.785156 126.011719 L 126.523438 145.199219 C 125.324219 146.234375 123.546875 146.226562 122.351562 145.1875 L 100.738281 126.332031 L 86.179688 139.085938 C 84.859375 140.246094 82.84375 140.113281 81.6875 138.789062 C 80.527344 137.46875 80.660156 135.453125 81.980469 134.296875 L 95.898438 122.105469 Z M 41.808594 55.511719 L 52.257812 55.511719 L 42.84375 47.289062 C 42.183594 48.40625 41.808594 49.707031 41.808594 51.089844 Z M 61.941406 55.511719 L 187.710938 55.511719 L 201.214844 43.871094 C 200.542969 43.675781 199.835938 43.570312 199.101562 43.570312 L 49.328125 43.570312 C 48.992188 43.570312 48.664062 43.59375 48.339844 43.636719 Z M 197.464844 55.511719 L 206.625 55.511719 L 206.625 51.089844 C 206.625 50.046875 206.410156 49.046875 206.019531 48.140625 Z M 217.625 177.214844 C 218.148438 176.074219 218.445312 174.804688 218.445312 173.46875 L 218.445312 70.878906 C 218.445312 69.417969 218.089844 68.035156 217.464844 66.8125 L 153.660156 121.808594 Z M 212.714844 62.5 C 211.699219 62.097656 210.597656 61.878906 209.445312 61.878906 L 38.988281 61.878906 C 38.265625 61.878906 37.5625 61.964844 36.890625 62.128906 L 124.457031 138.570312 Z M 54.9375 37.199219 L 60.703125 37.199219 L 55.472656 32.632812 C 55.128906 33.378906 54.9375 34.203125 54.9375 35.074219 Z M 70.386719 37.199219 L 179.097656 37.199219 L 188.332031 29.238281 C 188.097656 29.210938 187.859375 29.195312 187.613281 29.195312 L 61.21875 29.195312 Z M 188.851562 37.199219 L 193.492188 37.199219 L 193.492188 35.074219 C 193.492188 34.496094 193.410156 33.9375 193.25 33.410156 Z M 41.660156 118.992188 C 64.613281 118.992188 83.25 137.628906 83.25 160.582031 C 83.25 183.535156 64.613281 202.171875 41.660156 202.171875 C 18.703125 202.171875 0.0664062 183.535156 0.0664062 160.582031 C 0.0664062 137.628906 18.703125 118.992188 41.660156 118.992188 Z M 41.660156 125.359375 C 22.21875 125.359375 6.4375 141.140625 6.4375 160.582031 C 6.4375 180.019531 22.21875 195.804688 41.660156 195.804688 C 61.097656 195.804688 76.878906 180.019531 76.878906 160.582031 C 76.878906 141.140625 61.097656 125.359375 41.660156 125.359375 Z M 32.449219 176.863281 C 30.4375 176.722656 28.476562 176.5 26.800781 176.15625 C 24.304688 175.640625 22.34375 174.765625 21.25 173.742188 C 20.234375 172.796875 19.699219 171.402344 20.140625 169.554688 C 20.421875 168.382812 21.355469 166.714844 22.289062 165.035156 C 22.773438 164.167969 23.375 163.34375 23.375 162.648438 L 23.375 153.34375 C 23.375 143.308594 31.527344 135.15625 41.566406 135.15625 C 51.601562 135.15625 59.753906 143.308594 59.753906 153.34375 L 59.753906 162.648438 C 59.753906 163.371094 60.394531 164.246094 60.914062 165.175781 C 61.882812 166.914062 62.863281 168.648438 63.164062 169.855469 C 63.636719 171.765625 63.066406 173.191406 62.027344 174.132812 C 60.921875 175.132812 58.910156 175.972656 56.335938 176.425781 C 54.707031 176.710938 52.8125 176.878906 50.867188 176.980469 C 50.769531 181.980469 46.683594 186.007812 41.65625 186.007812 C 36.59375 186.007812 32.484375 181.917969 32.449219 176.863281 Z M 44.484375 177.117188 C 43.398438 177.121094 42.386719 177.117188 41.5 177.117188 C 40.691406 177.117188 39.792969 177.113281 38.832031 177.101562 C 38.984375 178.527344 40.191406 179.636719 41.65625 179.636719 C 43.117188 179.636719 44.320312 178.535156 44.484375 177.117188 Z M 27.058594 169.671875 C 27.859375 169.894531 28.78125 170.066406 29.773438 170.203125 C 33.59375 170.730469 38.324219 170.746094 41.5 170.746094 C 44.675781 170.746094 49.550781 170.832031 53.496094 170.394531 C 54.488281 170.285156 55.414062 170.144531 56.21875 169.953125 C 55.777344 169.117188 55.234375 168.085938 54.835938 167.328125 C 53.953125 165.644531 53.382812 163.960938 53.382812 162.648438 L 53.382812 153.34375 C 53.382812 146.824219 48.085938 141.527344 41.566406 141.527344 C 35.042969 141.527344 29.746094 146.824219 29.746094 153.34375 L 29.746094 162.648438 C 29.746094 163.953125 29.195312 165.585938 28.351562 167.214844 C 27.980469 167.925781 27.472656 168.890625 27.058594 169.671875 Z M 27.058594 169.671875 " fill-opacity="1" fill-rule="evenodd"/></g></svg>