<svg xmlns="http://www.w3.org/2000/svg" xmlns:xlink="http://www.w3.org/1999/xlink" width="300" zoomAndPan="magnify" viewBox="0 0 224.87999 225" height="300" preserveAspectRatio="xMidYMid meet" version="1.0"><defs><clipPath id="887cfc07ab"><path d="M 3.300781 100 L 74 100 L 74 177.515625 L 3.300781 177.515625 Z M 3.300781 100 " clip-rule="nonzero"/></clipPath><clipPath id="f9b7b4bae4"><path d="M 21 47.835938 L 67 47.835938 L 67 94 L 21 94 Z M 21 47.835938 " clip-rule="nonzero"/></clipPath><clipPath id="aeabe8e437"><path d="M 72 100 L 154 100 L 154 177.515625 L 72 177.515625 Z M 72 100 " clip-rule="nonzero"/></clipPath><clipPath id="6bf1daeae6"><path d="M 151 100 L 221.433594 100 L 221.433594 177.515625 L 151 177.515625 Z M 151 100 " clip-rule="nonzero"/></clipPath><clipPath id="7fddb9b518"><path d="M 157 47.835938 L 204 47.835938 L 204 94 L 157 94 Z M 157 47.835938 " clip-rule="nonzero"/></clipPath><clipPath id="69d60b41a4"><path d="M 89 47.835938 L 136 47.835938 L 136 94 L 89 94 Z M 89 47.835938 " clip-rule="nonzero"/></clipPath></defs><g clip-path="url(#887cfc07ab)"><path fill="#ffffff" d="M 73.710938 113.144531 C 68.0625 121.023438 64.734375 130.667969 64.734375 141.074219 L 64.734375 177.164062 L 3.328125 177.164062 L 3.328125 141.074219 C 3.328125 118.578125 21.566406 100.34375 44.054688 100.34375 C 55.75 100.34375 66.277344 105.261719 73.710938 113.144531 Z M 73.710938 113.144531 " fill-opacity="1" fill-rule="nonzero"/></g><g clip-path="url(#f9b7b4bae4)"><path fill="#ffffff" d="M 66.949219 70.71875 C 66.949219 71.46875 66.910156 72.214844 66.835938 72.960938 C 66.765625 73.707031 66.652344 74.449219 66.507812 75.183594 C 66.363281 75.917969 66.179688 76.644531 65.960938 77.359375 C 65.746094 78.078125 65.492188 78.785156 65.207031 79.476562 C 64.917969 80.167969 64.597656 80.84375 64.246094 81.507812 C 63.890625 82.167969 63.507812 82.808594 63.089844 83.433594 C 62.675781 84.054688 62.226562 84.65625 61.753906 85.234375 C 61.277344 85.816406 60.773438 86.371094 60.246094 86.898438 C 59.714844 87.429688 59.160156 87.933594 58.582031 88.410156 C 58 88.882812 57.398438 89.328125 56.777344 89.746094 C 56.152344 90.164062 55.511719 90.546875 54.851562 90.902344 C 54.1875 91.253906 53.511719 91.574219 52.820312 91.859375 C 52.128906 92.148438 51.421875 92.398438 50.707031 92.617188 C 49.988281 92.835938 49.261719 93.015625 48.527344 93.164062 C 47.792969 93.308594 47.050781 93.417969 46.304688 93.492188 C 45.558594 93.566406 44.8125 93.601562 44.0625 93.601562 C 43.3125 93.601562 42.566406 93.566406 41.820312 93.492188 C 41.074219 93.417969 40.332031 93.308594 39.597656 93.164062 C 38.863281 93.015625 38.136719 92.835938 37.417969 92.617188 C 36.703125 92.398438 35.996094 92.148438 35.304688 91.859375 C 34.613281 91.574219 33.933594 91.253906 33.273438 90.902344 C 32.613281 90.546875 31.972656 90.164062 31.347656 89.746094 C 30.722656 89.328125 30.125 88.882812 29.542969 88.410156 C 28.964844 87.933594 28.410156 87.429688 27.878906 86.898438 C 27.351562 86.371094 26.847656 85.816406 26.371094 85.234375 C 25.894531 84.65625 25.449219 84.054688 25.035156 83.433594 C 24.617188 82.808594 24.230469 82.167969 23.878906 81.507812 C 23.527344 80.84375 23.207031 80.167969 22.917969 79.476562 C 22.632812 78.785156 22.378906 78.078125 22.164062 77.359375 C 21.945312 76.644531 21.761719 75.917969 21.617188 75.183594 C 21.46875 74.449219 21.359375 73.707031 21.285156 72.960938 C 21.214844 72.214844 21.175781 71.46875 21.175781 70.71875 C 21.175781 69.96875 21.214844 69.222656 21.285156 68.476562 C 21.359375 67.730469 21.46875 66.988281 21.617188 66.253906 C 21.761719 65.519531 21.945312 64.792969 22.164062 64.074219 C 22.378906 63.359375 22.632812 62.652344 22.917969 61.960938 C 23.207031 61.269531 23.527344 60.589844 23.878906 59.929688 C 24.230469 59.269531 24.617188 58.625 25.035156 58.003906 C 25.449219 57.378906 25.894531 56.777344 26.371094 56.199219 C 26.847656 55.621094 27.351562 55.066406 27.878906 54.535156 C 28.410156 54.003906 28.964844 53.503906 29.542969 53.027344 C 30.125 52.550781 30.722656 52.105469 31.347656 51.691406 C 31.972656 51.273438 32.613281 50.886719 33.273438 50.535156 C 33.933594 50.183594 34.613281 49.863281 35.304688 49.574219 C 35.996094 49.289062 36.703125 49.035156 37.417969 48.816406 C 38.136719 48.601562 38.863281 48.417969 39.597656 48.273438 C 40.332031 48.125 41.074219 48.015625 41.820312 47.941406 C 42.566406 47.871094 43.3125 47.832031 44.0625 47.832031 C 44.8125 47.832031 45.558594 47.871094 46.304688 47.941406 C 47.050781 48.015625 47.792969 48.125 48.527344 48.273438 C 49.261719 48.417969 49.988281 48.601562 50.707031 48.816406 C 51.421875 49.035156 52.128906 49.289062 52.820312 49.574219 C 53.511719 49.863281 54.1875 50.183594 54.851562 50.535156 C 55.511719 50.886719 56.152344 51.273438 56.777344 51.691406 C 57.398438 52.105469 58 52.550781 58.582031 53.027344 C 59.160156 53.503906 59.714844 54.003906 60.246094 54.535156 C 60.773438 55.066406 61.277344 55.621094 61.753906 56.199219 C 62.226562 56.777344 62.675781 57.378906 63.089844 58.003906 C 63.507812 58.625 63.890625 59.269531 64.246094 59.929688 C 64.597656 60.589844 64.917969 61.269531 65.207031 61.960938 C 65.492188 62.652344 65.746094 63.359375 65.960938 64.074219 C 66.179688 64.792969 66.363281 65.519531 66.507812 66.253906 C 66.652344 66.988281 66.765625 67.730469 66.835938 68.476562 C 66.910156 69.222656 66.949219 69.96875 66.949219 70.71875 Z M 66.949219 70.71875 " fill-opacity="1" fill-rule="nonzero"/></g><g clip-path="url(#aeabe8e437)"><path fill="#ffffff" d="M 112.78125 100.339844 C 90.28125 100.339844 72.050781 118.578125 72.050781 141.066406 L 72.050781 177.160156 L 153.515625 177.160156 L 153.515625 141.066406 C 153.515625 118.578125 135.277344 100.339844 112.78125 100.339844 Z M 112.78125 100.339844 " fill-opacity="1" fill-rule="nonzero"/></g><g clip-path="url(#6bf1daeae6)"><path fill="#ffffff" d="M 221.601562 141.074219 L 221.601562 177.164062 L 160.828125 177.164062 L 160.828125 141.074219 C 160.828125 130.5 157.398438 120.714844 151.585938 112.769531 C 158.988281 105.105469 169.371094 100.34375 180.867188 100.34375 C 203.359375 100.34375 221.601562 118.578125 221.601562 141.074219 Z M 221.601562 141.074219 " fill-opacity="1" fill-rule="nonzero"/></g><g clip-path="url(#7fddb9b518)"><path fill="#ffffff" d="M 203.753906 70.71875 C 203.753906 71.46875 203.714844 72.214844 203.644531 72.960938 C 203.570312 73.707031 203.460938 74.449219 203.3125 75.183594 C 203.167969 75.917969 202.984375 76.644531 202.765625 77.359375 C 202.550781 78.078125 202.296875 78.785156 202.011719 79.476562 C 201.722656 80.167969 201.402344 80.84375 201.050781 81.507812 C 200.695312 82.167969 200.3125 82.808594 199.894531 83.433594 C 199.480469 84.054688 199.035156 84.65625 198.558594 85.234375 C 198.082031 85.816406 197.578125 86.371094 197.050781 86.898438 C 196.519531 87.429688 195.964844 87.933594 195.386719 88.410156 C 194.804688 88.882812 194.203125 89.328125 193.582031 89.746094 C 192.957031 90.164062 192.316406 90.546875 191.65625 90.902344 C 190.996094 91.253906 190.316406 91.574219 189.625 91.859375 C 188.933594 92.148438 188.226562 92.398438 187.511719 92.617188 C 186.792969 92.835938 186.066406 93.015625 185.332031 93.164062 C 184.597656 93.308594 183.855469 93.417969 183.109375 93.492188 C 182.363281 93.566406 181.617188 93.601562 180.867188 93.601562 C 180.117188 93.601562 179.371094 93.566406 178.625 93.492188 C 177.878906 93.417969 177.136719 93.308594 176.402344 93.164062 C 175.667969 93.015625 174.941406 92.835938 174.222656 92.617188 C 173.507812 92.398438 172.800781 92.148438 172.109375 91.859375 C 171.417969 91.574219 170.742188 91.253906 170.078125 90.902344 C 169.417969 90.546875 168.777344 90.164062 168.152344 89.746094 C 167.53125 89.328125 166.929688 88.882812 166.347656 88.410156 C 165.769531 87.933594 165.214844 87.429688 164.683594 86.898438 C 164.15625 86.371094 163.652344 85.816406 163.175781 85.234375 C 162.703125 84.65625 162.253906 84.054688 161.839844 83.433594 C 161.421875 82.808594 161.039062 82.167969 160.683594 81.507812 C 160.332031 80.84375 160.011719 80.167969 159.722656 79.476562 C 159.4375 78.785156 159.183594 78.078125 158.96875 77.359375 C 158.75 76.644531 158.566406 75.917969 158.421875 75.183594 C 158.277344 74.449219 158.164062 73.707031 158.09375 72.960938 C 158.019531 72.214844 157.980469 71.46875 157.980469 70.71875 C 157.980469 69.96875 158.019531 69.222656 158.09375 68.476562 C 158.164062 67.730469 158.277344 66.988281 158.421875 66.253906 C 158.566406 65.519531 158.75 64.792969 158.96875 64.074219 C 159.183594 63.359375 159.4375 62.652344 159.722656 61.960938 C 160.011719 61.269531 160.332031 60.589844 160.683594 59.929688 C 161.039062 59.269531 161.421875 58.625 161.839844 58.003906 C 162.253906 57.378906 162.703125 56.777344 163.175781 56.199219 C 163.652344 55.621094 164.15625 55.066406 164.683594 54.535156 C 165.214844 54.003906 165.769531 53.503906 166.347656 53.027344 C 166.929688 52.550781 167.53125 52.105469 168.152344 51.691406 C 168.777344 51.273438 169.417969 50.886719 170.078125 50.535156 C 170.742188 50.183594 171.417969 49.863281 172.109375 49.574219 C 172.800781 49.289062 173.507812 49.035156 174.222656 48.816406 C 174.941406 48.601562 175.667969 48.417969 176.402344 48.273438 C 177.136719 48.125 177.878906 48.015625 178.625 47.941406 C 179.371094 47.871094 180.117188 47.832031 180.867188 47.832031 C 181.617188 47.832031 182.363281 47.871094 183.109375 47.941406 C 183.855469 48.015625 184.597656 48.125 185.332031 48.273438 C 186.066406 48.417969 186.792969 48.601562 187.511719 48.816406 C 188.226562 49.035156 188.933594 49.289062 189.625 49.574219 C 190.316406 49.863281 190.996094 50.183594 191.65625 50.535156 C 192.316406 50.886719 192.957031 51.273438 193.582031 51.691406 C 194.203125 52.105469 194.804688 52.550781 195.386719 53.027344 C 195.964844 53.503906 196.519531 54.003906 197.050781 54.535156 C 197.578125 55.066406 198.082031 55.621094 198.558594 56.199219 C 199.035156 56.777344 199.480469 57.378906 199.894531 58.003906 C 200.3125 58.625 200.695312 59.269531 201.050781 59.929688 C 201.402344 60.589844 201.722656 61.269531 202.011719 61.960938 C 202.296875 62.652344 202.550781 63.359375 202.765625 64.074219 C 202.984375 64.792969 203.167969 65.519531 203.3125 66.253906 C 203.460938 66.988281 203.570312 67.730469 203.644531 68.476562 C 203.714844 69.222656 203.753906 69.96875 203.753906 70.71875 Z M 203.753906 70.71875 " fill-opacity="1" fill-rule="nonzero"/></g><g clip-path="url(#69d60b41a4)"><path fill="#ffffff" d="M 135.664062 70.71875 C 135.664062 71.46875 135.628906 72.214844 135.554688 72.960938 C 135.480469 73.707031 135.371094 74.449219 135.226562 75.183594 C 135.078125 75.917969 134.898438 76.644531 134.679688 77.359375 C 134.460938 78.078125 134.210938 78.785156 133.921875 79.476562 C 133.636719 80.167969 133.316406 80.84375 132.964844 81.507812 C 132.609375 82.167969 132.226562 82.808594 131.808594 83.433594 C 131.390625 84.054688 130.945312 84.65625 130.46875 85.234375 C 129.996094 85.816406 129.492188 86.371094 128.960938 86.898438 C 128.433594 87.429688 127.878906 87.933594 127.296875 88.410156 C 126.71875 88.882812 126.117188 89.328125 125.496094 89.746094 C 124.871094 90.164062 124.230469 90.546875 123.566406 90.902344 C 122.90625 91.253906 122.230469 91.574219 121.539062 91.859375 C 120.84375 92.148438 120.140625 92.398438 119.421875 92.617188 C 118.707031 92.835938 117.980469 93.015625 117.246094 93.164062 C 116.507812 93.308594 115.769531 93.417969 115.023438 93.492188 C 114.277344 93.566406 113.53125 93.601562 112.78125 93.601562 C 112.03125 93.601562 111.28125 93.566406 110.535156 93.492188 C 109.789062 93.417969 109.050781 93.308594 108.316406 93.164062 C 107.582031 93.015625 106.855469 92.835938 106.136719 92.617188 C 105.417969 92.398438 104.714844 92.148438 104.023438 91.859375 C 103.328125 91.574219 102.652344 91.253906 101.992188 90.902344 C 101.332031 90.546875 100.6875 90.164062 100.066406 89.746094 C 99.441406 89.328125 98.839844 88.882812 98.261719 88.410156 C 97.683594 87.933594 97.128906 87.429688 96.597656 86.898438 C 96.066406 86.371094 95.566406 85.816406 95.089844 85.234375 C 94.613281 84.65625 94.167969 84.054688 93.75 83.433594 C 93.335938 82.808594 92.949219 82.167969 92.597656 81.507812 C 92.242188 80.84375 91.921875 80.167969 91.636719 79.476562 C 91.351562 78.785156 91.097656 78.078125 90.878906 77.359375 C 90.664062 76.644531 90.480469 75.917969 90.335938 75.183594 C 90.1875 74.449219 90.078125 73.707031 90.003906 72.960938 C 89.929688 72.214844 89.894531 71.46875 89.894531 70.71875 C 89.894531 69.96875 89.929688 69.222656 90.003906 68.476562 C 90.078125 67.730469 90.1875 66.988281 90.335938 66.253906 C 90.480469 65.519531 90.664062 64.792969 90.878906 64.074219 C 91.097656 63.359375 91.351562 62.652344 91.636719 61.960938 C 91.921875 61.269531 92.242188 60.589844 92.597656 59.929688 C 92.949219 59.269531 93.335938 58.625 93.75 58.003906 C 94.167969 57.378906 94.613281 56.777344 95.089844 56.199219 C 95.566406 55.621094 96.066406 55.066406 96.597656 54.535156 C 97.128906 54.003906 97.683594 53.503906 98.261719 53.027344 C 98.839844 52.550781 99.441406 52.105469 100.066406 51.691406 C 100.6875 51.273438 101.332031 50.886719 101.992188 50.535156 C 102.652344 50.183594 103.328125 49.863281 104.023438 49.574219 C 104.714844 49.289062 105.417969 49.035156 106.136719 48.816406 C 106.855469 48.601562 107.582031 48.417969 108.316406 48.273438 C 109.050781 48.125 109.789062 48.015625 110.535156 47.941406 C 111.28125 47.871094 112.03125 47.832031 112.78125 47.832031 C 113.53125 47.832031 114.277344 47.871094 115.023438 47.941406 C 115.769531 48.015625 116.507812 48.125 117.246094 48.273438 C 117.980469 48.417969 118.707031 48.601562 119.421875 48.816406 C 120.140625 49.035156 120.84375 49.289062 121.539062 49.574219 C 122.230469 49.863281 122.90625 50.183594 123.566406 50.535156 C 124.230469 50.886719 124.871094 51.273438 125.496094 51.691406 C 126.117188 52.105469 126.71875 52.550781 127.296875 53.027344 C 127.878906 53.503906 128.433594 54.003906 128.960938 54.535156 C 129.492188 55.066406 129.996094 55.621094 130.46875 56.199219 C 130.945312 56.777344 131.390625 57.378906 131.808594 58.003906 C 132.226562 58.625 132.609375 59.269531 132.964844 59.929688 C 133.316406 60.589844 133.636719 61.269531 133.921875 61.960938 C 134.210938 62.652344 134.460938 63.359375 134.679688 64.074219 C 134.898438 64.792969 135.078125 65.519531 135.226562 66.253906 C 135.371094 66.988281 135.480469 67.730469 135.554688 68.476562 C 135.628906 69.222656 135.664062 69.96875 135.664062 70.71875 Z M 135.664062 70.71875 " fill-opacity="1" fill-rule="nonzero"/></g></svg>