<svg xmlns="http://www.w3.org/2000/svg" xmlns:xlink="http://www.w3.org/1999/xlink" width="300" zoomAndPan="magnify" viewBox="0 0 224.87999 225" height="300" preserveAspectRatio="xMidYMid meet" version="1.0"><defs><clipPath id="253bc53df3"><path d="M 9.699219 0.167969 L 179.839844 0.167969 L 179.839844 224.835938 L 9.699219 224.835938 Z M 9.699219 0.167969 " clip-rule="nonzero"/></clipPath><clipPath id="edf84b54b1"><path d="M 49.265625 19.160156 L 215.089844 19.160156 L 215.089844 153.691406 L 49.265625 153.691406 Z M 49.265625 19.160156 " clip-rule="nonzero"/></clipPath></defs><g clip-path="url(#253bc53df3)"><path fill="#ffffff" d="M 179.679688 30.941406 C 176.515625 29.28125 173.332031 27.695312 170.101562 26.28125 L 167.660156 25.191406 C 166.84375 24.839844 166.03125 24.527344 165.21875 24.195312 C 164.40625 23.867188 163.617188 23.519531 162.792969 23.210938 L 160.328125 22.289062 L 159.101562 21.832031 C 158.6875 21.679688 158.269531 21.550781 157.855469 21.410156 L 155.378906 20.5625 C 154.5625 20.269531 153.714844 20.039062 152.886719 19.777344 L 150.390625 19.015625 C 148.710938 18.570312 147.042969 18.097656 145.363281 17.675781 C 143.675781 17.285156 142.011719 16.832031 140.3125 16.511719 L 137.777344 15.992188 C 136.933594 15.828125 136.082031 15.699219 135.234375 15.550781 C 134.382812 15.414062 133.546875 15.234375 132.695312 15.117188 L 130.148438 14.75 L 128.878906 14.566406 L 127.601562 14.425781 L 125.050781 14.144531 C 123.347656 13.984375 121.644531 13.875 119.945312 13.742188 C 116.542969 13.558594 113.148438 13.441406 109.757812 13.5 L 107.21875 13.539062 L 104.683594 13.65625 C 102.996094 13.703125 101.3125 13.867188 99.632812 13.988281 C 98.792969 14.039062 97.953125 14.144531 97.117188 14.234375 L 94.609375 14.503906 L 92.109375 14.847656 C 91.28125 14.972656 90.445312 15.0625 89.621094 15.21875 C 87.96875 15.523438 86.3125 15.753906 84.675781 16.117188 L 82.214844 16.617188 C 81.398438 16.792969 80.589844 17 79.777344 17.191406 C 76.523438 17.941406 73.316406 18.867188 70.140625 19.859375 C 68.5625 20.375 66.984375 20.910156 65.417969 21.453125 L 63.089844 22.332031 C 62.3125 22.621094 61.535156 22.910156 60.777344 23.238281 C 59.246094 23.882812 57.703125 24.476562 56.207031 25.183594 L 53.945312 26.203125 L 51.71875 27.296875 C 48.75 28.742188 45.859375 30.335938 43.015625 31.996094 C 42.300781 32.402344 41.613281 32.859375 40.910156 33.285156 L 38.832031 34.570312 C 38.042969 35.070312 37.457031 35.460938 36.746094 35.933594 C 36.0625 36.390625 35.386719 36.851562 34.714844 37.324219 C 32.035156 39.203125 29.441406 41.164062 26.964844 43.222656 L 30.839844 35.21875 C 30.949219 39.632812 31.042969 44.042969 31.121094 48.457031 C 31.214844 52.867188 31.28125 57.28125 31.347656 61.691406 C 31.417969 66.105469 31.472656 70.519531 31.515625 74.929688 L 31.550781 78.238281 L 31.570312 79.894531 L 31.609375 81.363281 L 31.6875 84.667969 L 31.699219 85.082031 L 31.722656 85.453125 L 31.769531 86.1875 L 31.855469 87.664062 C 31.9375 89.597656 32.160156 91.667969 32.34375 93.703125 C 32.421875 94.726562 32.578125 95.738281 32.691406 96.757812 C 32.820312 97.769531 32.921875 98.792969 33.074219 99.800781 L 33.550781 102.835938 C 33.632812 103.339844 33.699219 103.851562 33.796875 104.351562 L 34.085938 105.859375 L 34.660156 108.875 L 35.324219 111.875 L 35.652344 113.375 C 35.773438 113.871094 35.90625 114.363281 36.03125 114.859375 L 36.796875 117.835938 C 37.0625 118.824219 37.367188 119.800781 37.652344 120.785156 C 37.941406 121.765625 38.203125 122.757812 38.539062 123.726562 L 39.484375 126.648438 C 39.792969 127.621094 40.171875 128.578125 40.511719 129.542969 L 41.03125 130.984375 L 41.292969 131.710938 L 41.578125 132.421875 L 42.714844 135.277344 C 43.074219 136.238281 43.511719 137.164062 43.910156 138.109375 C 44.324219 139.046875 44.707031 139.996094 45.148438 140.921875 C 46.035156 142.769531 46.871094 144.644531 47.835938 146.453125 C 48.304688 147.363281 48.757812 148.285156 49.238281 149.191406 L 50.726562 151.886719 C 50.976562 152.332031 51.214844 152.785156 51.472656 153.230469 L 52.261719 154.550781 L 53.839844 157.199219 L 55.492188 159.796875 L 56.316406 161.097656 L 57.1875 162.371094 L 58.925781 164.914062 L 60.746094 167.40625 C 61.925781 169.089844 63.238281 170.675781 64.492188 172.3125 C 65.128906 173.121094 65.804688 173.894531 66.460938 174.6875 C 67.128906 175.472656 67.765625 176.285156 68.460938 177.042969 L 70.515625 179.359375 C 70.851562 179.75 71.203125 180.125 71.5625 180.496094 L 72.628906 181.617188 L 73.691406 182.742188 C 74.042969 183.117188 74.402344 183.492188 74.773438 183.847656 L 76.976562 186.03125 C 77.695312 186.769531 78.46875 187.457031 79.222656 188.160156 C 79.984375 188.859375 80.730469 189.578125 81.507812 190.261719 L 83.851562 192.296875 C 84.242188 192.636719 84.628906 192.984375 85.027344 193.316406 L 86.230469 194.296875 L 88.644531 196.257812 L 91.125 198.140625 L 92.363281 199.089844 C 92.773438 199.40625 93.207031 199.691406 93.625 199.996094 L 96.167969 201.808594 C 97.015625 202.410156 97.898438 202.957031 98.765625 203.539062 C 99.640625 204.101562 100.484375 204.71875 101.382812 205.246094 L 104.046875 206.890625 L 104.710938 207.300781 L 104.878906 207.40625 L 104.921875 207.429688 C 104.945312 207.445312 104.871094 207.40625 104.921875 207.433594 L 105.011719 207.488281 L 105.371094 207.695312 L 106.800781 208.527344 L 99.324219 208.507812 L 100.796875 207.824219 L 101.164062 207.652344 L 101.210938 207.632812 C 101.148438 207.667969 101.382812 207.539062 101.074219 207.707031 L 101.191406 207.648438 L 101.382812 207.554688 L 102.140625 207.179688 L 105.171875 205.667969 C 107.285156 204.664062 108.980469 203.652344 110.84375 202.65625 C 112.683594 201.710938 114.515625 200.527344 116.359375 199.425781 C 118.230469 198.355469 119.988281 197.113281 121.796875 195.933594 L 123.144531 195.039062 C 123.601562 194.746094 124.027344 194.410156 124.464844 194.101562 L 127.097656 192.199219 L 128.414062 191.25 C 128.851562 190.929688 129.265625 190.582031 129.695312 190.25 L 132.253906 188.238281 L 133.535156 187.230469 C 133.953125 186.882812 134.359375 186.523438 134.773438 186.171875 L 137.257812 184.050781 L 138.503906 182.992188 L 139.703125 181.878906 L 142.109375 179.648438 C 142.503906 179.273438 142.917969 178.910156 143.304688 178.527344 L 144.457031 177.359375 L 146.773438 175.023438 C 147.15625 174.632812 147.566406 174.257812 147.929688 173.847656 L 149.046875 172.636719 L 151.28125 170.207031 C 152.046875 169.40625 152.734375 168.546875 153.449219 167.707031 C 154.160156 166.863281 154.871094 166.019531 155.597656 165.179688 L 156.140625 164.546875 C 156.316406 164.335938 156.480469 164.113281 156.652344 163.898438 L 157.675781 162.589844 L 159.730469 159.96875 C 160.082031 159.535156 160.410156 159.085938 160.726562 158.628906 L 161.707031 157.28125 L 163.675781 154.570312 C 164.332031 153.667969 164.921875 152.71875 165.546875 151.792969 L 167.421875 149 C 168.625 147.105469 169.769531 145.171875 170.980469 143.261719 C 172.097656 141.304688 173.207031 139.335938 174.359375 137.371094 C 173.730469 139.546875 173.085938 141.730469 172.40625 143.910156 C 171.652344 146.054688 170.886719 148.210938 170.085938 150.355469 C 169.21875 152.46875 168.355469 154.59375 167.421875 156.695312 L 165.957031 159.8125 L 165.214844 161.371094 C 164.96875 161.894531 164.714844 162.414062 164.4375 162.914062 L 162.808594 165.964844 L 161.992188 167.492188 C 161.851562 167.746094 161.71875 168.003906 161.578125 168.253906 L 161.136719 169 C 160.550781 169.996094 159.957031 170.988281 159.355469 171.980469 C 158.753906 172.96875 158.175781 173.976562 157.519531 174.933594 L 155.597656 177.832031 L 154.628906 179.289062 C 154.316406 179.777344 153.953125 180.230469 153.617188 180.707031 L 151.546875 183.519531 L 150.503906 184.921875 C 150.152344 185.386719 149.777344 185.832031 149.410156 186.289062 L 147.207031 189.007812 L 146.101562 190.375 L 144.9375 191.6875 L 142.601562 194.3125 C 142.210938 194.746094 141.824219 195.1875 141.421875 195.617188 L 140.195312 196.875 L 137.726562 199.390625 C 137.3125 199.804688 136.910156 200.238281 136.480469 200.636719 L 135.1875 201.835938 L 132.597656 204.238281 C 132.160156 204.632812 131.746094 205.054688 131.289062 205.425781 L 129.9375 206.566406 C 128.125 208.070312 126.355469 209.644531 124.453125 211.046875 C 122.558594 212.472656 120.738281 213.941406 118.695312 215.292969 C 116.71875 216.65625 114.644531 218.125 112.773438 219.246094 L 109.90625 221.042969 L 109.1875 221.488281 L 109.007812 221.601562 L 108.917969 221.660156 L 108.894531 221.671875 L 108.714844 221.773438 L 108.664062 221.800781 L 108.285156 222.023438 L 106.761719 222.910156 L 103.445312 224.835938 L 99.28125 222.886719 L 97.785156 222.183594 L 97.40625 222.011719 L 97.3125 221.964844 L 97.175781 221.894531 L 96.980469 221.800781 L 93.074219 219.847656 L 92.289062 219.457031 L 91.523438 219.039062 L 89.988281 218.199219 C 88.96875 217.632812 87.933594 217.09375 86.925781 216.496094 L 83.917969 214.703125 C 83.417969 214.402344 82.90625 214.117188 82.414062 213.800781 L 80.941406 212.851562 L 77.996094 210.9375 L 75.117188 208.925781 L 73.679688 207.917969 C 73.203125 207.574219 72.738281 207.214844 72.269531 206.867188 L 69.464844 204.746094 C 68.539062 204.023438 67.640625 203.273438 66.726562 202.535156 C 65.820312 201.792969 64.894531 201.0625 64.019531 200.28125 L 61.367188 197.964844 C 60.921875 197.578125 60.492188 197.179688 60.066406 196.773438 L 58.785156 195.566406 L 57.5 194.355469 C 57.066406 193.957031 56.644531 193.546875 56.234375 193.128906 L 53.75 190.621094 C 52.90625 189.800781 52.125 188.917969 51.324219 188.054688 C 50.535156 187.183594 49.71875 186.332031 48.949219 185.445312 C 47.421875 183.652344 45.84375 181.898438 44.398438 180.039062 C 43.660156 179.121094 42.921875 178.203125 42.199219 177.269531 L 40.085938 174.433594 L 39.035156 173.007812 L 38.027344 171.554688 L 36.015625 168.644531 L 34.105469 165.664062 L 33.15625 164.171875 C 32.84375 163.667969 32.550781 163.15625 32.246094 162.652344 L 30.441406 159.605469 C 29.855469 158.578125 29.300781 157.535156 28.730469 156.503906 C 27.566406 154.445312 26.554688 152.308594 25.488281 150.199219 C 24.960938 149.144531 24.492188 148.058594 23.992188 146.988281 C 23.503906 145.910156 22.984375 144.851562 22.542969 143.753906 C 21.625 141.574219 20.707031 139.394531 19.898438 137.171875 C 19.492188 136.0625 19.046875 134.96875 18.671875 133.84375 L 17.535156 130.484375 C 17.140625 129.371094 16.8125 128.234375 16.472656 127.101562 C 16.140625 125.96875 15.789062 124.835938 15.472656 123.695312 L 14.578125 120.265625 C 14.429688 119.691406 14.273438 119.121094 14.132812 118.546875 L 12.960938 113.355469 L 12.304688 109.871094 L 11.980469 108.125 C 11.875 107.542969 11.796875 106.957031 11.703125 106.375 L 11.171875 102.867188 C 11 101.695312 10.886719 100.519531 10.738281 99.347656 C 10.613281 98.171875 10.441406 97 10.367188 95.820312 C 10.183594 93.457031 9.96875 91.136719 9.886719 88.660156 L 9.804688 86.832031 L 9.769531 85.914062 L 9.746094 85.457031 L 9.742188 85.042969 L 9.710938 81.734375 L 9.699219 79.894531 L 9.71875 78.238281 L 9.753906 74.929688 C 9.796875 70.519531 9.851562 66.105469 9.921875 61.691406 C 9.984375 57.28125 10.054688 52.867188 10.148438 48.457031 C 10.226562 44.042969 10.316406 39.632812 10.429688 35.21875 L 10.558594 30.046875 L 14.304688 27.214844 C 17.394531 24.878906 20.570312 22.703125 23.820312 20.699219 C 24.632812 20.195312 25.449219 19.703125 26.269531 19.214844 C 27.0625 18.75 27.988281 18.210938 28.71875 17.800781 L 31.246094 16.425781 C 32.089844 15.984375 32.914062 15.511719 33.769531 15.097656 C 37.171875 13.398438 40.601562 11.765625 44.125 10.351562 L 46.761719 9.285156 L 49.429688 8.308594 C 51.199219 7.632812 53.007812 7.0625 54.804688 6.476562 C 55.703125 6.175781 56.613281 5.914062 57.523438 5.65625 L 60.246094 4.875 C 61.15625 4.625 62.078125 4.410156 62.992188 4.175781 C 63.910156 3.953125 64.816406 3.703125 65.742188 3.511719 L 68.507812 2.925781 L 69.890625 2.636719 L 71.28125 2.386719 L 74.0625 1.898438 C 74.988281 1.726562 75.925781 1.625 76.855469 1.488281 C 77.785156 1.363281 78.714844 1.222656 79.644531 1.113281 L 82.449219 0.820312 C 84.308594 0.597656 86.1875 0.507812 88.054688 0.378906 C 88.988281 0.300781 89.925781 0.296875 90.859375 0.257812 L 93.664062 0.167969 L 96.46875 0.171875 C 97.402344 0.175781 98.332031 0.164062 99.265625 0.210938 C 101.132812 0.289062 102.996094 0.324219 104.851562 0.480469 L 107.636719 0.6875 L 110.410156 0.984375 C 114.105469 1.359375 117.769531 1.980469 121.40625 2.652344 C 122.3125 2.828125 123.214844 3.042969 124.117188 3.238281 C 125.019531 3.445312 125.925781 3.617188 126.820312 3.851562 L 129.5 4.539062 L 130.835938 4.882812 L 132.164062 5.269531 L 134.8125 6.046875 C 135.695312 6.304688 136.5625 6.609375 137.433594 6.894531 C 138.304688 7.195312 139.175781 7.472656 140.039062 7.785156 L 142.613281 8.753906 C 144.335938 9.371094 146.011719 10.121094 147.703125 10.808594 C 148.550781 11.140625 149.375 11.542969 150.203125 11.925781 L 152.679688 13.074219 L 155.117188 14.3125 C 155.925781 14.730469 156.746094 15.117188 157.535156 15.566406 L 159.917969 16.886719 C 160.308594 17.109375 160.710938 17.324219 161.097656 17.558594 L 162.261719 18.261719 L 164.578125 19.667969 C 165.351562 20.136719 166.105469 20.65625 166.863281 21.148438 C 167.617188 21.652344 168.382812 22.148438 169.117188 22.660156 L 171.285156 24.21875 L 172.371094 25 L 172.644531 25.195312 C 172.761719 25.28125 172.832031 25.335938 172.925781 25.40625 L 173.460938 25.816406 C 174.175781 26.363281 174.878906 26.914062 175.582031 27.476562 C 176.984375 28.589844 178.347656 29.75 179.679688 30.941406 " fill-opacity="1" fill-rule="nonzero"/></g><g clip-path="url(#edf84b54b1)"><path fill="#ffffff" d="M 107.808594 153.6875 L 49.363281 92.105469 L 65.433594 76.851562 L 107.355469 121.023438 L 198.695312 19.257812 L 215.1875 34.058594 L 107.808594 153.6875 " fill-opacity="1" fill-rule="nonzero"/></g></svg>