<svg xmlns="http://www.w3.org/2000/svg" xmlns:xlink="http://www.w3.org/1999/xlink" width="300" zoomAndPan="magnify" viewBox="0 0 224.87999 225" height="300" preserveAspectRatio="xMidYMid meet" version="1.0"><defs><clipPath id="4edbbffefc"><path d="M 21 92 L 220 92 L 220 224.9375 L 21 224.9375 Z M 21 92 " clip-rule="nonzero"/></clipPath></defs><path fill="#ffffff" d="M 166.175781 134.535156 C 166.402344 133.40625 167.304688 132.726562 168.433594 132.5 L 177.703125 131.597656 C 181.09375 131.144531 183.804688 128.207031 183.804688 124.816406 L 183.804688 110.351562 C 183.804688 106.960938 181.09375 104.023438 177.703125 103.574219 L 168.433594 102.667969 C 167.304688 102.441406 166.402344 101.765625 166.175781 100.632812 C 165.269531 97.46875 163.914062 94.304688 162.332031 91.59375 C 161.882812 90.691406 161.882812 89.332031 162.558594 88.65625 L 168.433594 81.421875 C 170.695312 78.710938 170.46875 74.871094 167.984375 72.382812 L 157.585938 61.988281 C 155.101562 59.5 151.257812 59.273438 148.546875 61.535156 L 141.3125 67.410156 C 140.410156 67.863281 139.28125 67.863281 138.375 67.410156 C 135.4375 65.828125 132.5 64.699219 129.335938 63.570312 C 128.207031 63.34375 127.527344 62.4375 127.300781 61.308594 L 126.171875 52.042969 C 125.71875 48.652344 122.78125 45.941406 119.390625 45.941406 L 104.925781 45.941406 C 101.535156 45.941406 98.597656 48.652344 98.144531 52.042969 L 97.242188 61.308594 C 97.015625 62.4375 96.339844 63.34375 95.207031 63.570312 C 92.042969 64.472656 88.878906 65.828125 86.167969 67.410156 C 85.265625 67.863281 83.90625 67.863281 83.230469 67.183594 L 75.996094 61.308594 C 73.285156 59.046875 69.441406 59.273438 66.957031 61.761719 L 56.558594 72.15625 C 54.074219 74.644531 53.847656 78.484375 56.109375 81.199219 L 61.984375 88.429688 C 62.664062 89.335938 62.664062 90.464844 62.210938 91.367188 C 60.628906 94.304688 59.5 97.246094 58.367188 100.410156 C 58.140625 101.539062 57.238281 102.214844 56.109375 102.441406 L 46.617188 103.574219 C 43.226562 104.023438 40.515625 106.960938 40.515625 110.351562 L 40.515625 124.816406 C 40.515625 128.207031 43.226562 131.144531 46.617188 131.597656 L 55.882812 132.5 C 57.011719 132.726562 57.917969 133.40625 58.140625 134.535156 C 59.046875 137.699219 60.402344 140.863281 61.984375 143.578125 C 62.4375 144.480469 62.4375 145.835938 61.757812 146.515625 L 55.882812 153.746094 C 53.621094 156.457031 53.847656 160.300781 56.335938 162.789062 L 66.730469 173.183594 C 69.21875 175.667969 73.058594 175.894531 75.769531 173.636719 L 83.003906 167.757812 C 83.90625 167.082031 85.039062 167.082031 85.941406 167.535156 C 88.878906 169.117188 91.816406 170.246094 94.980469 171.375 C 96.113281 171.601562 96.789062 172.503906 97.015625 173.636719 L 97.921875 182.902344 C 98.371094 186.292969 101.308594 189.003906 104.699219 189.003906 L 119.164062 189.003906 C 122.554688 189.003906 125.492188 186.292969 125.945312 182.902344 L 126.847656 173.636719 C 127.074219 172.503906 127.753906 171.601562 128.882812 171.375 C 132.046875 170.472656 135.210938 169.117188 137.925781 167.535156 C 138.828125 167.082031 140.183594 167.082031 140.863281 167.757812 L 148.09375 173.636719 C 150.804688 175.894531 154.648438 175.667969 157.136719 173.183594 L 167.53125 162.789062 C 170.015625 160.300781 170.242188 156.457031 167.984375 153.746094 L 162.105469 146.515625 C 161.882812 145.835938 161.882812 144.707031 162.332031 143.800781 C 163.914062 140.863281 165.046875 137.699219 166.175781 134.535156 Z M 112.160156 145.160156 C 97.015625 145.160156 84.585938 132.726562 84.585938 117.585938 C 84.585938 102.441406 97.015625 90.011719 112.160156 90.011719 C 127.300781 90.011719 139.730469 102.441406 139.730469 117.585938 C 139.730469 132.726562 127.300781 145.160156 112.160156 145.160156 Z M 112.160156 145.160156 " fill-opacity="1" fill-rule="nonzero"/><path fill="#ffffff" d="M 45.484375 50.914062 C 80.96875 15.429688 137.925781 14.296875 174.988281 47.296875 L 169.792969 52.496094 C 168.433594 53.851562 167.984375 55.882812 168.433594 57.691406 C 168.886719 59.5 170.46875 60.855469 172.277344 61.082031 L 196.6875 65.375 C 196.914062 65.375 197.363281 65.375 197.589844 65.375 C 198.945312 65.375 200.304688 64.925781 201.207031 63.792969 C 202.335938 62.664062 202.789062 60.855469 202.5625 59.273438 L 198.269531 34.867188 C 198.042969 33.058594 196.6875 31.476562 194.878906 31.023438 C 193.070312 30.570312 191.035156 31.023438 189.679688 32.378906 L 184.257812 37.804688 C 141.992188 0.0585938 76.902344 0.964844 36.21875 41.644531 C 11.132812 66.734375 0.0585938 102.667969 6.613281 137.472656 C 7.289062 140.636719 10.003906 142.898438 12.941406 142.898438 C 13.390625 142.898438 13.84375 142.898438 14.070312 142.671875 C 17.6875 141.996094 19.945312 138.605469 19.269531 134.988281 C 13.617188 104.476562 23.335938 72.835938 45.484375 50.914062 Z M 45.484375 50.914062 " fill-opacity="1" fill-rule="nonzero"/><g clip-path="url(#4edbbffefc)"><path fill="#ffffff" d="M 217.707031 97.46875 C 217.027344 93.855469 213.636719 91.59375 210.019531 92.273438 C 206.40625 92.949219 204.144531 96.339844 204.824219 99.957031 C 210.699219 130.695312 200.980469 162.109375 178.832031 184.257812 C 143.347656 219.742188 86.394531 220.871094 49.328125 187.875 L 54.527344 182.675781 C 55.882812 181.320312 56.335938 179.285156 55.882812 177.476562 C 55.203125 175.667969 53.847656 174.3125 52.039062 174.085938 L 27.855469 169.792969 C 26.273438 169.566406 24.46875 170.019531 23.335938 171.148438 C 22.207031 172.28125 21.527344 174.085938 21.980469 175.667969 L 26.273438 200.078125 C 26.726562 201.886719 27.855469 203.46875 29.664062 203.921875 C 30.117188 204.148438 30.570312 204.148438 31.246094 204.148438 C 32.601562 204.148438 33.960938 203.695312 34.863281 202.566406 L 40.289062 197.140625 C 60.628906 215.671875 86.394531 224.941406 112.160156 224.941406 C 139.730469 224.941406 167.078125 214.542969 188.097656 193.523438 C 213.183594 168.4375 224.261719 132.5 217.707031 97.46875 Z M 217.707031 97.46875 " fill-opacity="1" fill-rule="nonzero"/></g></svg>