<svg xmlns="http://www.w3.org/2000/svg" xmlns:xlink="http://www.w3.org/1999/xlink" width="300" zoomAndPan="magnify" viewBox="0 0 224.87999 225" height="300" preserveAspectRatio="xMidYMid meet" version="1.0"><defs><clipPath id="111f2fd654"><path d="M 4.074219 9 L 103 9 L 103 108 L 4.074219 108 Z M 4.074219 9 " clip-rule="nonzero"/></clipPath><clipPath id="3c8ba396ce"><path d="M 81 0.0585938 L 103 0.0585938 L 103 27 L 81 27 Z M 81 0.0585938 " clip-rule="nonzero"/></clipPath><clipPath id="f829bd8f0f"><path d="M 123 0.0585938 L 158 0.0585938 L 158 35 L 123 35 Z M 123 0.0585938 " clip-rule="nonzero"/></clipPath></defs><path fill="#ffffff" d="M 118.589844 192.078125 L 97.070312 192.078125 C 92.773438 192.078125 89.277344 188.582031 89.277344 184.285156 L 89.277344 177.652344 C 84.492188 176.265625 79.886719 174.355469 75.535156 171.941406 L 70.867188 176.609375 C 69.394531 178.082031 67.4375 178.890625 65.355469 178.890625 C 63.273438 178.890625 61.316406 178.082031 59.847656 176.609375 L 44.628906 161.390625 C 43.15625 159.917969 42.347656 157.964844 42.347656 155.882812 C 42.347656 153.800781 43.15625 151.84375 44.628906 150.371094 L 49.324219 145.675781 C 46.917969 141.316406 45.015625 136.710938 43.640625 131.921875 L 37.039062 131.921875 C 32.742188 131.921875 29.246094 128.425781 29.246094 124.128906 L 29.246094 102.609375 C 29.246094 98.3125 32.742188 94.816406 37.039062 94.816406 L 43.675781 94.816406 C 45.058594 90.035156 46.972656 85.429688 49.386719 81.074219 L 44.71875 76.40625 C 41.679688 73.371094 41.679688 68.425781 44.71875 65.386719 L 59.933594 50.171875 C 62.972656 47.132812 67.917969 47.132812 70.957031 50.171875 L 75.648438 54.863281 C 80.007812 52.460938 84.617188 50.554688 89.402344 49.179688 L 89.402344 42.582031 C 89.402344 38.285156 92.898438 34.789062 97.195312 34.789062 L 118.714844 34.789062 C 123.011719 34.789062 126.507812 38.285156 126.507812 42.582031 L 126.507812 49.21875 C 131.292969 50.601562 135.898438 52.515625 140.25 54.925781 L 144.917969 50.257812 C 147.957031 47.222656 152.902344 47.222656 155.9375 50.257812 L 171.15625 65.476562 C 174.195312 68.515625 174.195312 73.457031 171.15625 76.496094 L 166.464844 81.191406 C 168.867188 85.550781 170.769531 90.160156 172.144531 94.945312 L 178.746094 94.945312 C 183.042969 94.945312 186.539062 98.441406 186.539062 102.738281 L 186.539062 124.257812 C 186.539062 128.554688 183.042969 132.050781 178.746094 132.050781 L 172.109375 132.050781 C 170.726562 136.835938 168.8125 141.4375 166.398438 145.792969 L 171.066406 150.460938 C 174.105469 153.5 174.105469 158.441406 171.066406 161.480469 L 155.851562 176.699219 C 154.332031 178.21875 152.335938 178.976562 150.339844 178.976562 C 148.34375 178.976562 146.347656 178.21875 144.828125 176.699219 L 140.136719 172.003906 C 135.777344 174.410156 131.167969 176.3125 126.382812 177.6875 L 126.382812 184.285156 C 126.382812 188.582031 122.886719 192.078125 118.589844 192.078125 Z M 74.976562 164.21875 C 75.589844 164.21875 76.207031 164.382812 76.757812 164.71875 C 81.964844 167.886719 87.605469 170.230469 93.527344 171.683594 C 95.0625 172.0625 96.140625 173.4375 96.140625 175.015625 L 96.140625 184.285156 C 96.140625 184.800781 96.558594 185.21875 97.070312 185.21875 L 118.589844 185.21875 C 119.105469 185.21875 119.519531 184.800781 119.519531 184.285156 L 119.519531 175.046875 C 119.519531 173.464844 120.601562 172.089844 122.140625 171.714844 C 128.0625 170.273438 133.710938 167.941406 138.921875 164.78125 C 140.273438 163.964844 142.007812 164.171875 143.125 165.289062 L 149.683594 171.847656 C 150.042969 172.207031 150.636719 172.210938 151 171.847656 L 166.214844 156.628906 C 166.578125 156.265625 166.578125 155.675781 166.214844 155.3125 L 159.683594 148.777344 C 158.5625 147.660156 158.355469 145.921875 159.175781 144.570312 C 162.34375 139.363281 164.6875 133.722656 166.144531 127.800781 C 166.519531 126.265625 167.894531 125.1875 169.476562 125.1875 L 178.746094 125.1875 C 179.257812 125.1875 179.675781 124.769531 179.675781 124.257812 L 179.675781 102.738281 C 179.675781 102.222656 179.257812 101.804688 178.746094 101.804688 L 169.507812 101.804688 C 167.925781 101.804688 166.546875 100.722656 166.171875 99.1875 C 164.730469 93.265625 162.398438 87.617188 159.238281 82.402344 C 158.421875 81.054688 158.632812 79.316406 159.75 78.199219 L 166.304688 71.644531 C 166.667969 71.28125 166.667969 70.691406 166.304688 70.328125 L 151.085938 55.109375 C 150.722656 54.75 150.132812 54.75 149.769531 55.109375 L 143.238281 61.644531 C 142.117188 62.761719 140.378906 62.972656 139.027344 62.148438 C 133.820312 58.980469 128.179688 56.636719 122.257812 55.183594 C 120.726562 54.804688 119.644531 53.429688 119.644531 51.851562 L 119.644531 42.582031 C 119.644531 42.066406 119.230469 41.648438 118.714844 41.648438 L 97.195312 41.648438 C 96.683594 41.648438 96.265625 42.066406 96.265625 42.582031 L 96.265625 51.820312 C 96.265625 53.402344 95.183594 54.777344 93.644531 55.152344 C 87.722656 56.597656 82.078125 58.929688 76.863281 62.085938 C 75.511719 62.90625 73.777344 62.695312 72.660156 61.578125 L 66.105469 55.023438 C 65.742188 54.660156 65.148438 54.660156 64.789062 55.023438 L 49.570312 70.238281 C 49.207031 70.601562 49.207031 71.191406 49.570312 71.554688 L 56.105469 78.089844 C 57.222656 79.207031 57.429688 80.949219 56.609375 82.300781 C 53.441406 87.503906 51.097656 93.144531 49.640625 99.066406 C 49.265625 100.601562 47.890625 101.679688 46.308594 101.679688 L 37.039062 101.679688 C 36.527344 101.679688 36.109375 102.097656 36.109375 102.609375 L 36.109375 124.128906 C 36.109375 124.644531 36.527344 125.0625 37.039062 125.0625 L 46.277344 125.0625 C 47.859375 125.0625 49.238281 126.144531 49.613281 127.679688 C 51.054688 133.601562 53.386719 139.25 56.546875 144.464844 C 57.363281 145.8125 57.152344 147.550781 56.035156 148.667969 L 49.480469 155.222656 C 49.257812 155.449219 49.207031 155.707031 49.207031 155.882812 C 49.207031 156.058594 49.257812 156.3125 49.480469 156.539062 L 64.699219 171.757812 C 64.925781 171.980469 65.179688 172.027344 65.355469 172.027344 C 65.53125 172.027344 65.789062 171.980469 66.015625 171.757812 L 72.546875 165.222656 C 73.210938 164.5625 74.089844 164.21875 74.976562 164.21875 Z M 74.976562 164.21875 " fill-opacity="1" fill-rule="nonzero"/><path fill="#ffffff" d="M 107.890625 162.472656 C 101.273438 162.472656 94.851562 161.175781 88.804688 158.617188 C 82.964844 156.148438 77.71875 152.613281 73.21875 148.109375 C 68.714844 143.605469 65.179688 138.363281 62.710938 132.523438 C 60.152344 126.476562 58.855469 120.054688 58.855469 113.433594 C 58.855469 106.816406 60.152344 100.394531 62.710938 94.34375 C 65.179688 88.503906 68.714844 83.261719 73.21875 78.757812 C 77.71875 74.257812 82.964844 70.722656 88.804688 68.25 C 94.851562 65.691406 101.273438 64.394531 107.890625 64.394531 C 114.511719 64.394531 120.933594 65.691406 126.980469 68.25 C 132.820312 70.722656 138.066406 74.257812 142.566406 78.757812 C 147.070312 83.261719 150.605469 88.503906 153.074219 94.34375 C 155.632812 100.394531 156.929688 106.816406 156.929688 113.433594 C 156.929688 120.054688 155.632812 126.476562 153.074219 132.523438 C 150.605469 138.363281 147.070312 143.605469 142.566406 148.109375 C 138.066406 152.613281 132.820312 156.148438 126.980469 158.617188 C 120.933594 161.175781 114.511719 162.472656 107.890625 162.472656 Z M 107.890625 71.257812 C 84.636719 71.257812 65.714844 90.179688 65.714844 113.433594 C 65.714844 136.691406 84.636719 155.609375 107.890625 155.609375 C 131.148438 155.609375 150.070312 136.691406 150.070312 113.433594 C 150.070312 90.179688 131.148438 71.257812 107.890625 71.257812 Z M 107.890625 71.257812 " fill-opacity="1" fill-rule="nonzero"/><g clip-path="url(#111f2fd654)"><path fill="#ffffff" d="M 7.558594 107.320312 C 5.660156 107.320312 4.125 105.78125 4.125 103.886719 C 4.125 91.113281 6.628906 78.71875 11.566406 67.046875 C 16.332031 55.777344 23.15625 45.65625 31.847656 36.964844 C 40.539062 28.273438 50.660156 21.449219 61.929688 16.683594 C 73.601562 11.746094 85.996094 9.242188 98.769531 9.242188 C 100.667969 9.242188 102.203125 10.777344 102.203125 12.671875 C 102.203125 14.570312 100.667969 16.105469 98.769531 16.105469 C 50.367188 16.105469 10.988281 55.484375 10.988281 103.886719 C 10.988281 105.78125 9.453125 107.320312 7.558594 107.320312 Z M 7.558594 107.320312 " fill-opacity="1" fill-rule="nonzero"/></g><g clip-path="url(#3c8ba396ce)"><path fill="#ffffff" d="M 86.566406 26.890625 C 85.617188 26.890625 84.675781 26.5 83.996094 25.730469 C 82.742188 24.3125 82.875 22.144531 84.292969 20.890625 L 93.070312 13.132812 L 83.167969 6.878906 C 81.566406 5.867188 81.085938 3.746094 82.097656 2.144531 C 83.109375 0.542969 85.226562 0.0625 86.832031 1.074219 L 100.601562 9.773438 C 101.515625 10.347656 102.105469 11.320312 102.191406 12.398438 C 102.277344 13.476562 101.851562 14.527344 101.042969 15.246094 L 88.839844 26.03125 C 88.1875 26.609375 87.375 26.890625 86.566406 26.890625 Z M 86.566406 26.890625 " fill-opacity="1" fill-rule="nonzero"/></g><path fill="#ffffff" d="M 196.460938 165.761719 C 195.800781 165.761719 195.132812 165.570312 194.542969 165.171875 C 192.972656 164.113281 192.5625 161.980469 193.621094 160.410156 C 220.742188 120.316406 210.1875 65.632812 170.09375 38.515625 C 168.523438 37.453125 168.109375 35.320312 169.171875 33.75 C 170.234375 32.179688 172.367188 31.769531 173.9375 32.832031 C 184.519531 39.988281 193.382812 49.007812 200.285156 59.632812 C 206.949219 69.898438 211.511719 81.21875 213.839844 93.289062 C 216.167969 105.355469 216.152344 117.5625 213.785156 129.570312 C 211.335938 142.003906 206.464844 153.671875 199.304688 164.253906 C 198.644531 165.234375 197.5625 165.761719 196.460938 165.761719 Z M 196.460938 165.761719 " fill-opacity="1" fill-rule="nonzero"/><path fill="#ffffff" d="M 196.464844 165.761719 C 195.878906 165.761719 195.296875 165.613281 194.777344 165.316406 C 193.835938 164.785156 193.199219 163.84375 193.0625 162.773438 L 190.964844 146.621094 C 190.722656 144.742188 192.046875 143.019531 193.925781 142.777344 C 195.804688 142.53125 197.527344 143.859375 197.769531 145.738281 L 199.277344 157.351562 L 210.007812 152.652344 C 211.742188 151.894531 213.765625 152.683594 214.527344 154.417969 C 215.285156 156.15625 214.496094 158.179688 212.761719 158.9375 L 197.839844 165.472656 C 197.402344 165.667969 196.933594 165.761719 196.464844 165.761719 Z M 196.464844 165.761719 " fill-opacity="1" fill-rule="nonzero"/><path fill="#ffffff" d="M 102.476562 220.121094 C 101.882812 220.121094 101.289062 220.117188 100.691406 220.105469 C 88.457031 219.875 76.523438 217.308594 65.222656 212.476562 C 53.917969 207.644531 43.820312 200.792969 35.199219 192.105469 C 26.273438 183.109375 19.335938 172.539062 14.582031 160.679688 C 13.878906 158.921875 14.730469 156.921875 16.488281 156.21875 C 18.246094 155.511719 20.246094 156.367188 20.949219 158.125 C 38.96875 203.050781 90.175781 224.945312 135.101562 206.929688 C 136.859375 206.222656 138.855469 207.078125 139.5625 208.835938 C 140.265625 210.597656 139.414062 212.59375 137.65625 213.296875 C 126.355469 217.828125 114.527344 220.121094 102.476562 220.121094 Z M 102.476562 220.121094 " fill-opacity="1" fill-rule="nonzero"/><path fill="#ffffff" d="M 14.824219 178.855469 C 14.617188 178.855469 14.410156 178.835938 14.199219 178.796875 C 12.335938 178.453125 11.105469 176.664062 11.445312 174.800781 L 14.390625 158.78125 C 14.585938 157.71875 15.269531 156.8125 16.238281 156.332031 C 17.203125 155.851562 18.339844 155.851562 19.308594 156.335938 L 33.859375 163.652344 C 35.554688 164.5 36.238281 166.5625 35.386719 168.257812 C 34.535156 169.949219 32.472656 170.632812 30.78125 169.78125 L 20.3125 164.523438 L 18.195312 176.042969 C 17.890625 177.695312 16.449219 178.855469 14.824219 178.855469 Z M 14.824219 178.855469 " fill-opacity="1" fill-rule="nonzero"/><path fill="#ffffff" d="M 100.171875 129.730469 C 99.292969 129.730469 98.417969 129.394531 97.746094 128.726562 L 87.453125 118.433594 C 86.113281 117.09375 86.113281 114.921875 87.453125 113.582031 C 88.792969 112.242188 90.964844 112.242188 92.304688 113.582031 L 100.171875 121.449219 L 123.476562 98.140625 C 124.816406 96.800781 126.992188 96.800781 128.332031 98.140625 C 129.671875 99.480469 129.671875 101.65625 128.332031 102.996094 L 102.597656 128.726562 C 101.929688 129.394531 101.050781 129.730469 100.171875 129.730469 Z M 100.171875 129.730469 " fill-opacity="1" fill-rule="nonzero"/><g clip-path="url(#f829bd8f0f)"><path fill="#ffffff" d="M 154.445312 34.855469 L 127 34.855469 C 125.105469 34.855469 123.570312 33.320312 123.570312 31.425781 L 123.570312 3.976562 C 123.570312 2.082031 125.105469 0.546875 127 0.546875 L 154.445312 0.546875 C 156.339844 0.546875 157.878906 2.082031 157.878906 3.976562 L 157.878906 31.425781 C 157.878906 33.320312 156.339844 34.855469 154.445312 34.855469 Z M 130.429688 27.992188 L 151.015625 27.992188 L 151.015625 7.40625 L 130.429688 7.40625 Z M 130.429688 27.992188 " fill-opacity="1" fill-rule="nonzero"/></g><path fill="#ffffff" d="M 192.1875 220.121094 L 164.738281 220.121094 C 162.84375 220.121094 161.308594 218.585938 161.308594 216.691406 L 161.308594 189.246094 C 161.308594 187.351562 162.84375 185.8125 164.738281 185.8125 L 192.1875 185.8125 C 194.082031 185.8125 195.617188 187.351562 195.617188 189.246094 L 195.617188 216.691406 C 195.617188 218.585938 194.082031 220.121094 192.1875 220.121094 Z M 168.171875 213.261719 L 188.753906 213.261719 L 188.753906 192.675781 L 168.171875 192.675781 Z M 168.171875 213.261719 " fill-opacity="1" fill-rule="nonzero"/></svg>