<svg xmlns="http://www.w3.org/2000/svg" xmlns:xlink="http://www.w3.org/1999/xlink" width="300" zoomAndPan="magnify" viewBox="0 0 224.87999 225" height="300" preserveAspectRatio="xMidYMid meet" version="1.0"><defs><clipPath id="fb04f9d217"><path d="M 0 21.703125 L 224.761719 21.703125 L 224.761719 202.359375 L 0 202.359375 Z M 0 21.703125 " clip-rule="nonzero"/></clipPath></defs><g clip-path="url(#fb04f9d217)"><path fill="#ffffff" d="M 112.441406 21.707031 C 94.957031 21.707031 77.378906 28.375 64.046875 41.703125 C 54.132812 51.617188 48.125 63.914062 45.574219 76.738281 C 19.707031 81.757812 0.0820312 104.347656 0.0820312 131.621094 C 0.0820312 162.558594 25.320312 187.796875 56.261719 187.796875 L 83.128906 187.796875 C 83.617188 187.804688 84.097656 187.765625 84.574219 187.675781 C 85.050781 187.585938 85.515625 187.453125 85.964844 187.269531 C 86.417969 187.089844 86.847656 186.867188 87.253906 186.601562 C 87.660156 186.335938 88.035156 186.03125 88.378906 185.691406 C 88.726562 185.347656 89.035156 184.976562 89.308594 184.574219 C 89.578125 184.171875 89.808594 183.746094 89.996094 183.300781 C 90.183594 182.851562 90.324219 182.390625 90.421875 181.914062 C 90.515625 181.4375 90.566406 180.957031 90.566406 180.46875 C 90.566406 179.984375 90.515625 179.503906 90.421875 179.027344 C 90.324219 178.550781 90.183594 178.089844 89.996094 177.640625 C 89.808594 177.195312 89.578125 176.769531 89.308594 176.367188 C 89.035156 175.964844 88.726562 175.589844 88.378906 175.25 C 88.035156 174.910156 87.660156 174.605469 87.253906 174.339844 C 86.847656 174.074219 86.417969 173.851562 85.964844 173.667969 C 85.515625 173.488281 85.050781 173.355469 84.574219 173.265625 C 84.097656 173.175781 83.617188 173.136719 83.128906 173.144531 L 56.261719 173.144531 C 33.242188 173.144531 14.738281 154.636719 14.738281 131.621094 C 14.738281 109.882812 31.269531 92.171875 52.445312 90.25 C 53.277344 90.167969 54.070312 89.953125 54.824219 89.601562 C 55.582031 89.25 56.257812 88.78125 56.855469 88.199219 C 57.453125 87.613281 57.933594 86.949219 58.304688 86.203125 C 58.675781 85.453125 58.910156 84.664062 59.007812 83.835938 C 60.359375 72.222656 65.496094 60.9375 74.429688 52.007812 C 84.945312 41.492188 98.667969 36.359375 112.441406 36.359375 C 126.210938 36.359375 139.847656 41.480469 150.375 52.007812 C 162.539062 64.171875 167.6875 80.699219 165.792969 96.507812 C 165.730469 97.023438 165.71875 97.539062 165.765625 98.054688 C 165.808594 98.574219 165.90625 99.078125 166.058594 99.574219 C 166.210938 100.070312 166.414062 100.546875 166.667969 101 C 166.921875 101.453125 167.21875 101.875 167.5625 102.261719 C 167.90625 102.652344 168.285156 103.003906 168.703125 103.3125 C 169.121094 103.621094 169.5625 103.882812 170.035156 104.097656 C 170.507812 104.3125 171 104.472656 171.507812 104.585938 C 172.011719 104.695312 172.527344 104.75 173.046875 104.75 L 175.945312 104.75 C 195.015625 104.75 210.140625 119.875 210.140625 138.945312 C 210.140625 158.019531 195.015625 173.144531 175.945312 173.144531 L 141.75 173.144531 C 141.265625 173.136719 140.78125 173.175781 140.304688 173.265625 C 139.828125 173.351562 139.363281 173.488281 138.914062 173.667969 C 138.460938 173.851562 138.035156 174.074219 137.628906 174.339844 C 137.222656 174.605469 136.84375 174.910156 136.5 175.25 C 136.152344 175.589844 135.84375 175.964844 135.574219 176.367188 C 135.300781 176.769531 135.070312 177.191406 134.882812 177.640625 C 134.695312 178.089844 134.554688 178.550781 134.457031 179.027344 C 134.363281 179.503906 134.316406 179.984375 134.316406 180.46875 C 134.316406 180.957031 134.363281 181.4375 134.457031 181.914062 C 134.554688 182.390625 134.695312 182.851562 134.882812 183.300781 C 135.070312 183.746094 135.300781 184.171875 135.574219 184.574219 C 135.84375 184.976562 136.152344 185.347656 136.5 185.691406 C 136.84375 186.03125 137.222656 186.335938 137.628906 186.601562 C 138.035156 186.867188 138.460938 187.089844 138.914062 187.269531 C 139.363281 187.453125 139.828125 187.585938 140.304688 187.675781 C 140.78125 187.765625 141.265625 187.804688 141.75 187.796875 L 175.945312 187.796875 C 202.882812 187.796875 224.796875 165.882812 224.796875 138.945312 C 224.796875 113.523438 205.210938 92.828125 180.371094 90.554688 C 180.488281 72.871094 174.207031 55.15625 160.757812 41.703125 C 147.4375 28.382812 129.921875 21.707031 112.441406 21.707031 Z M 112.441406 99.867188 C 109.996094 99.867188 108.707031 100.652344 107.480469 101.773438 L 80.609375 126.199219 C 77.507812 129.078125 77.5625 133.753906 80.152344 136.582031 C 82.742188 139.410156 87.691406 139.613281 90.535156 137.039062 L 105.113281 123.757812 L 105.113281 195.125 C 105.113281 199.171875 108.390625 202.453125 112.441406 202.453125 C 116.488281 202.453125 119.769531 199.171875 119.769531 195.125 L 119.769531 123.757812 L 134.347656 137.039062 C 137.1875 139.613281 141.988281 139.265625 144.726562 136.582031 C 147.613281 133.75 147.085938 128.804688 144.269531 126.199219 L 117.402344 101.773438 C 115.949219 100.445312 114.882812 99.867188 112.441406 99.867188 Z M 112.441406 99.867188 " fill-opacity="1" fill-rule="nonzero"/></g></svg>