<svg xmlns="http://www.w3.org/2000/svg" xmlns:xlink="http://www.w3.org/1999/xlink" width="300" zoomAndPan="magnify" viewBox="0 0 224.87999 225" height="300" preserveAspectRatio="xMidYMid meet" version="1.0"><defs><clipPath id="1311d3ebdb"><path d="M 0 0.0585938 L 224.761719 0.0585938 L 224.761719 224.9375 L 0 224.9375 Z M 0 0.0585938 " clip-rule="nonzero"/></clipPath></defs><g clip-path="url(#1311d3ebdb)"><path fill="#ffffff" d="M 189.742188 210.886719 L 35.136719 210.886719 C 23.519531 210.886719 14.054688 201.421875 14.054688 189.800781 L 14.054688 70.335938 L 210.824219 70.335938 L 210.824219 189.800781 C 210.824219 201.421875 201.363281 210.886719 189.742188 210.886719 Z M 35.136719 14.113281 L 189.742188 14.113281 C 201.363281 14.113281 210.824219 23.578125 210.824219 35.199219 L 210.824219 56.28125 L 14.054688 56.28125 L 14.054688 35.199219 C 14.054688 23.578125 23.519531 14.113281 35.136719 14.113281 Z M 189.742188 0.0585938 L 35.136719 0.0585938 C 15.773438 0.0585938 0 15.832031 0 35.199219 L 0 189.800781 C 0 209.1875 15.773438 224.941406 35.136719 224.941406 L 189.742188 224.941406 C 209.109375 224.941406 224.878906 209.1875 224.878906 189.800781 L 224.878906 35.199219 C 224.878906 15.832031 209.109375 0.0585938 189.742188 0.0585938 " fill-opacity="1" fill-rule="nonzero"/></g><path fill="#ffffff" d="M 40.070312 40.1875 C 42.902344 37.355469 42.84375 33 40.070312 30.207031 C 37.472656 27.609375 32.761719 27.609375 30.167969 30.207031 C 27.449219 33.0625 27.472656 37.332031 30.167969 40.1875 C 33.101562 42.964844 37.414062 42.84375 40.070312 40.1875 " fill-opacity="1" fill-rule="nonzero"/><path fill="#ffffff" d="M 68.179688 40.1875 C 71.015625 37.355469 70.953125 33 68.179688 30.207031 C 65.582031 27.609375 60.871094 27.609375 58.277344 30.207031 C 55.582031 33.042969 55.519531 37.292969 58.277344 40.1875 C 61.210938 42.964844 65.523438 42.84375 68.179688 40.1875 " fill-opacity="1" fill-rule="nonzero"/><path fill="#ffffff" d="M 152.546875 107.527344 C 149.792969 104.792969 145.363281 104.792969 142.605469 107.527344 C 139.851562 110.285156 139.851562 114.734375 142.605469 117.472656 L 165.746094 140.609375 L 142.605469 163.75 C 139.851562 166.503906 139.851562 170.957031 142.605469 173.691406 C 145.363281 176.445312 149.792969 176.445312 152.546875 173.691406 L 180.660156 145.582031 C 183.414062 142.824219 183.414062 138.394531 180.660156 135.640625 L 152.546875 107.527344 " fill-opacity="1" fill-rule="nonzero"/><path fill="#ffffff" d="M 82.273438 107.527344 C 79.519531 104.792969 75.085938 104.792969 72.332031 107.527344 L 44.222656 135.640625 C 41.464844 138.394531 41.464844 142.847656 44.222656 145.582031 L 72.332031 173.691406 C 75.085938 176.445312 79.519531 176.445312 82.273438 173.691406 C 85.007812 170.9375 85.007812 166.503906 82.273438 163.75 L 59.136719 140.609375 L 82.273438 117.472656 C 85.007812 114.714844 85.007812 110.285156 82.273438 107.527344 " fill-opacity="1" fill-rule="nonzero"/><path fill="#ffffff" d="M 128.710938 91.777344 C 125.019531 90.539062 121.042969 92.535156 119.828125 96.230469 L 91.71875 180.539062 C 90.480469 184.230469 92.476562 188.207031 96.148438 189.441406 C 99.800781 190.660156 103.796875 188.703125 105.03125 185.011719 L 133.144531 100.660156 C 134.382812 96.988281 132.40625 93.015625 128.710938 91.777344 " fill-opacity="1" fill-rule="nonzero"/><path fill="#ffffff" d="M 140.550781 42.226562 L 189.742188 42.226562 C 193.617188 42.226562 196.75 39.070312 196.75 35.199219 C 196.75 31.324219 193.617188 28.171875 189.742188 28.171875 L 140.550781 28.171875 C 136.65625 28.171875 133.523438 31.324219 133.523438 35.199219 C 133.523438 39.070312 136.65625 42.226562 140.550781 42.226562 " fill-opacity="1" fill-rule="nonzero"/></svg>